<svg width="64" height="64" viewBox="0 0 64 64" fill="none" xmlns="http://www.w3.org/2000/svg">
    <path d="M18.0585 23.8516L21.6936 23.9354C21.6936 23.9354 18.8781 25.5813 17.6426 27.1667C17.6426 27.1667 25.8045 24.079 28.0499 24.3196L26.3509 25.9174C26.4629 25.9166 31.3588 25.8786 31.048 25.8809C30.6667 39.6302 25.354 51.9797 23.543 57.2542C23.2506 58.1055 23.8807 58.9863 24.7716 58.9863C24.9727 58.9281 29.6031 59.6482 30.2814 55.4228C31.3819 48.5792 33.3479 34.4442 34.5228 25.8886C35.3009 26.8594 35.9678 27.5648 35.9678 27.5648L36.6085 26.5739C38.283 28.8018 39.5814 30.0605 39.5814 30.0605L38.6221 27.9715C44.9845 30.5626 46.0121 28.5853 46.0121 28.5853L40.2851 24.7456L42.7745 24.5896C41.0248 22.6116 38.4019 21.5065 36.4305 20.9168C37.9929 21.0161 39.2238 21.1651 39.2238 21.1651L38.5285 19.7194L45.389 22.9577L45.2616 21.5903C50.225 22.7233 52.5985 23.4318 52.5985 23.4318C49.0663 18.1099 45.4795 17.8189 45.4795 17.8189L48.1139 17.4169C44.6645 13.8015 38.956 15.3124 35.7575 16.5905C38.2277 14.3781 42.8888 11.3555 42.8888 11.3555C40.9044 11.4036 37.9108 12.6771 37.9108 12.6771C39.1908 11.3245 40.7609 6.61953 45.7634 6.91054L46.5001 6.94623C45.5186 6.36811 44.5863 5.40197 42.7223 5.09623L41.7009 5.91336L41.2021 5C40.3841 5.04578 39.3949 5.32515 39.0634 5.49277L38.7311 6.55047C38.7311 6.55047 38.4694 6.26179 38.1249 5.86603C36.5924 6.52641 35.3331 7.3195 34.288 8.19639C34.6202 7.29544 35.0009 6.29827 35.2503 5.8055C34.8934 6.17798 32.1853 9.09733 31.8047 11.0071C31.0396 12.2107 30.5539 13.4787 30.2553 14.7389C29.0114 13.0255 27.0154 11.1406 23.8323 9.28901L24.7593 11.6077C24.5813 11.4758 22.847 10.2381 20.518 9.2052L20.043 10.2745L19.3899 8.74891C17.8214 8.15991 16.0756 7.72768 14.3881 7.78743C14.3881 7.78743 20.079 11.7521 21.0651 13.9746L18.9625 13.9148C18.9625 13.9148 22.7043 15.8184 25.8014 18.2659C24.678 18.0013 23.4709 17.8872 22.1817 17.9997L22.2408 20.4387L18.9855 18.6966C18.5581 18.8409 18.1299 19.021 17.6909 19.225L18.4752 21.4235C18.3447 21.3513 17.2512 20.715 16.0994 20.0538C15.7494 20.2494 14.956 20.7321 14.4955 21.1348C14.8992 21.9155 15.2322 22.5766 15.2322 22.5766C15.2322 22.5766 14.3651 22.4688 13.3913 22.3244C11.7314 24.5795 12.1427 26.5296 12 27.4562C12.1673 27.2948 13.7259 23.7601 18.0585 23.8524V23.8516Z" fill="black"/>
    <g clip-path="url(#clip0_382_8159)">
    <path fill-rule="evenodd" clip-rule="evenodd" d="M32.3542 14.4933C32.3046 14.467 34.3997 13.6944 35.1178 13.5984C36.0122 13.4793 37.4008 13.4301 38.6832 13.7668C39.8109 14.0626 40.7427 14.7795 41.1074 15.4181C41.3393 15.8246 41.9111 16.1244 40.9368 16.5811C40.5889 16.744 40.905 17.1026 41.1168 17.4216C41.6932 18.2901 41.7194 18.7355 42.0065 19.5128C42.446 20.703 42.5035 22.1556 42.5708 23.3469C42.6676 25.0603 42.2061 26.7971 41.3192 28.4146C40.213 30.4313 38.2732 31.1762 36.5994 31.2869C33.7718 31.4733 31.9946 29.5372 31.9231 29.6311C31.4864 30.2052 30.6767 30.7459 30.1142 30.9026C27.5783 31.6093 25.7577 31.1748 24.2457 29.5464C23.3513 28.5836 22.5261 27.1615 22.2456 25.6679C21.9473 24.0825 21.8411 22.4661 22.0819 21.3048C22.2858 20.3236 22.5121 19.2983 22.8262 18.3417C22.9866 17.8536 23.2007 17.4742 23.0871 17.0442C22.9389 16.4851 22.1693 16.7208 22.9997 15.538C23.3522 15.036 23.8127 14.5223 24.4219 14.203C26.9532 12.8761 30.0647 13.2173 32.3542 14.4933Z" fill="#A6F7F7"/>
    <path fill-rule="evenodd" clip-rule="evenodd" d="M36.2341 16.021C33.6416 16.0291 31.5554 19.1566 31.5783 22.9999C31.6012 26.8435 33.7248 29.9573 36.3173 29.9487C38.9098 29.9405 40.9959 26.8131 40.973 22.9698C40.9501 19.1262 38.8265 16.0124 36.2341 16.021Z" fill="white"/>
    <path fill-rule="evenodd" clip-rule="evenodd" d="M33.9883 23.2318C33.9822 20.6805 35.1296 18.6078 36.5485 18.6057C37.8619 18.604 38.9503 20.3766 39.1102 22.6631C39.0527 22.658 38.9938 22.6553 38.9344 22.6567C38.3041 22.6727 37.809 23.0607 37.831 23.5214C37.853 23.9822 38.3832 24.3445 39.0134 24.3285C39.0288 24.3281 39.0443 24.3264 39.0597 24.3257C38.7894 26.3469 37.7786 27.85 36.5705 27.8514C35.1515 27.8531 33.9944 25.7834 33.9888 23.2318H33.9883Z" fill="black"/>
    <path fill-rule="evenodd" clip-rule="evenodd" d="M32.4018 14.3613C29.1291 12.5238 23.7898 12.9569 22.5559 16.1697C22.476 16.378 22.5873 16.5761 22.7411 16.7677C22.8711 16.9303 23.0324 17.0874 23.0777 17.2479C23.0777 17.2527 23.0735 17.2793 23.0679 17.3012C23.0525 17.3606 23.0225 17.4481 22.9819 17.5611C22.7032 18.3333 21.9369 20.2664 21.8593 22.5769C21.8004 24.3255 22.0664 26.3819 23.0272 28.0998C23.6729 29.2542 24.6323 30.2563 26.0129 30.9148C26.7942 31.2874 28.0219 31.4055 29.2011 31.2095C30.3353 31.021 31.4219 30.5428 32.0212 29.7307C32.0596 29.7638 32.1077 29.8068 32.1657 29.8574C32.8348 30.4376 34.7348 31.9455 37.8842 31.2112C39.7782 30.7696 40.9807 29.3256 41.6319 28.1067C43.3642 24.8652 42.992 19.6714 41.048 17.114C40.9526 16.9887 40.9274 16.8917 40.9507 16.8107C40.9872 16.6837 41.1321 16.599 41.2589 16.5119C41.4487 16.3814 41.6048 16.2469 41.5459 16.0471C40.7464 13.3131 35.9977 12.5347 32.4018 14.3613ZM32.4645 14.5327C35.9247 12.7352 40.5501 13.4398 41.3238 16.0819C41.3467 16.1598 41.3112 16.2202 41.2542 16.2749C41.1803 16.3456 41.0751 16.4074 40.9807 16.476C40.868 16.5584 40.7707 16.6489 40.7324 16.7623C40.6941 16.8763 40.7123 17.0153 40.8488 17.195C42.7681 19.7196 43.1295 24.8464 41.4192 28.0462C40.7904 29.2231 39.643 30.6262 37.8145 31.0527C34.416 31.8451 32.5393 29.9059 32.1484 29.5845C32.1068 29.5503 32.0741 29.5305 32.0549 29.523C32.0315 29.5134 32.0105 29.5111 31.9937 29.5111C31.945 29.5111 31.9072 29.5257 31.8843 29.5609C31.333 30.3847 30.2642 30.8622 29.1501 31.0476C28.0364 31.2327 26.8751 31.1275 26.1373 30.7758C24.7945 30.1357 23.8655 29.1596 23.2376 28.0373C22.2885 26.3402 22.0286 24.3088 22.087 22.5813C22.1642 20.2886 22.9253 18.3702 23.2021 17.6038C23.2516 17.4651 23.2862 17.363 23.2989 17.3019C23.3073 17.2629 23.3063 17.2346 23.3017 17.2185C23.2526 17.0406 23.0815 16.864 22.9375 16.6844C22.8164 16.5331 22.7121 16.3797 22.7752 16.2155C23.9717 13.0996 29.1824 12.7181 32.3279 14.53C32.3677 14.5529 32.4233 14.5539 32.4645 14.5324V14.5327Z" fill="black"/>
    <path fill-rule="evenodd" clip-rule="evenodd" d="M39.3803 16.1739C38.7959 15.2822 37.4242 14.9116 36.0861 14.9912C34.7452 15.0711 33.4309 15.6032 32.9676 16.536C32.9461 16.579 32.8806 16.6015 32.8213 16.5858C32.7619 16.5701 32.7315 16.5223 32.753 16.4793C33.2467 15.4858 34.6386 14.9106 36.0674 14.8256C37.499 14.7402 38.96 15.148 39.5856 16.1026C39.6127 16.1439 39.5889 16.1938 39.5318 16.2136C39.4753 16.2334 39.407 16.216 39.3799 16.1743L39.3803 16.1739Z" fill="black"/>
    <path fill-rule="evenodd" clip-rule="evenodd" d="M31.7257 16.508C30.7728 15.1579 28.6858 14.7518 26.9507 15.0548C25.7996 15.2556 24.8005 15.7686 24.3961 16.5312C24.3732 16.5742 24.3073 16.5954 24.2488 16.5787C24.1899 16.5623 24.1609 16.5138 24.1834 16.4711C24.614 15.6586 25.672 15.1067 26.8979 14.8929C28.7274 14.5735 30.9239 15.0083 31.9286 16.4318C31.9576 16.4728 31.9356 16.523 31.8795 16.5442C31.8239 16.5654 31.7547 16.5493 31.7261 16.5083L31.7257 16.508Z" fill="black"/>
    <path d="M36.3807 30.0672C35.0758 30.0713 33.8513 29.3343 32.9317 27.9917C32.0251 26.668 31.5192 24.9084 31.508 23.0371C31.4968 21.1662 31.9812 19.4035 32.8723 18.0736C33.7756 16.7252 34.9958 15.9827 36.2961 15.9762C38.9596 15.9677 41.1458 19.1214 41.1687 23.0064C41.18 24.8773 40.6956 26.6399 39.8045 27.9699C38.9185 29.2923 37.7323 30.0341 36.4564 30.0662C36.4312 30.0669 36.4059 30.0672 36.3807 30.0672ZM33.0771 18.1467C32.2014 19.4537 31.7249 21.1904 31.7362 23.0361C31.7474 24.8821 32.2444 26.6154 33.1355 27.9169C34.014 29.1997 35.1665 29.9043 36.3797 29.9002C37.6005 29.8989 38.7366 29.1847 39.6001 27.8961C40.4758 26.5891 40.9523 24.8524 40.941 23.0067C40.9186 19.2136 38.8353 16.1343 36.2975 16.1425C36.2741 16.1425 36.2516 16.1429 36.2287 16.1436C35.0412 16.1736 33.9242 16.8826 33.0771 18.1467Z" fill="black"/>
    <path fill-rule="evenodd" clip-rule="evenodd" d="M28.3591 15.8973C25.7666 15.9055 23.6804 19.0329 23.7033 22.8762C23.7262 26.7198 25.8498 29.8336 28.4423 29.8251C31.0348 29.8169 33.1209 26.6894 33.098 22.8462C33.0751 19.0025 30.9515 15.8888 28.3591 15.8973Z" fill="white"/>
    <path d="M28.4435 29.9084C27.1438 29.9125 25.9235 29.1751 25.0076 27.8322C24.1043 26.5077 23.6013 24.7478 23.59 22.8766C23.5788 21.0049 24.0613 19.2419 24.9487 17.9117C25.8482 16.5629 27.0648 15.8211 28.3589 15.8136C31.0117 15.8051 33.189 18.9595 33.2129 22.8455C33.2241 24.7171 32.7416 26.4801 31.8542 27.8104C30.972 29.1331 29.7901 29.8753 28.5188 29.9074C28.494 29.9081 28.4683 29.9084 28.4435 29.9084ZM28.3599 15.9806C27.1414 15.9847 26.0133 16.6961 25.1535 17.9851C24.2811 19.2925 23.807 21.0295 23.8182 22.8759C23.8289 24.7222 24.3241 26.4562 25.2119 27.7581C26.0872 29.0413 27.2345 29.7458 28.4426 29.7421C29.6615 29.7352 30.7896 29.0266 31.6494 27.7376C32.5219 26.4302 32.996 24.6932 32.9847 22.8468C32.9618 19.0527 30.8874 15.9728 28.3603 15.9806H28.3599Z" fill="black"/>
    <path fill-rule="evenodd" clip-rule="evenodd" d="M25.8535 23.1296C25.7988 20.5787 26.9213 18.494 28.3581 18.4779C29.7228 18.4622 30.8837 20.3178 31.0436 22.6897C30.9973 22.6867 30.9506 22.6853 30.9034 22.6863C30.2731 22.7024 29.7785 23.0904 29.8 23.5511C29.8219 24.0118 30.3521 24.3742 30.9824 24.3581C30.9833 24.3581 30.9847 24.3581 30.9856 24.3581C30.7126 26.2875 29.7415 27.7089 28.5558 27.7223C27.1191 27.7387 25.9082 25.6809 25.8535 23.13V23.1296Z" fill="black"/>
    </g>
    <defs>
    <clipPath id="clip0_382_8159">
    <rect width="20.8905" height="18.1314" fill="white" transform="translate(21.8516 13.2774)"/>
    </clipPath>
    </defs>
    </svg>
    