<svg width="64" height="64" viewBox="0 0 64 64" fill="none" xmlns="http://www.w3.org/2000/svg">
    <rect width="64" height="64" fill="#A6F7F7"/>
    <path d="M18.0585 23.8516L21.6936 23.9354C21.6936 23.9354 18.8781 25.5813 17.6426 27.1667C17.6426 27.1667 25.8045 24.079 28.0499 24.3196L26.3509 25.9174C26.4629 25.9166 31.3588 25.8786 31.048 25.8809C30.6667 39.6302 25.354 51.9797 23.543 57.2542C23.2506 58.1055 23.8807 58.9863 24.7716 58.9863C24.9727 58.9281 29.6031 59.6482 30.2814 55.4228C31.3819 48.5792 33.3479 34.4442 34.5228 25.8886C35.3009 26.8594 35.9678 27.5648 35.9678 27.5648L36.6085 26.5739C38.283 28.8018 39.5814 30.0605 39.5814 30.0605L38.6221 27.9715C44.9845 30.5626 46.0121 28.5853 46.0121 28.5853L40.2851 24.7456L42.7745 24.5896C41.0248 22.6116 38.4019 21.5065 36.4305 20.9168C37.9929 21.0161 39.2238 21.1651 39.2238 21.1651L38.5285 19.7194L45.389 22.9577L45.2616 21.5903C50.225 22.7233 52.5985 23.4318 52.5985 23.4318C49.0663 18.1099 45.4795 17.8189 45.4795 17.8189L48.1139 17.4169C44.6645 13.8015 38.956 15.3124 35.7575 16.5905C38.2277 14.3781 42.8888 11.3555 42.8888 11.3555C40.9044 11.4036 37.9108 12.6771 37.9108 12.6771C39.1908 11.3245 40.7609 6.61953 45.7634 6.91054L46.5001 6.94623C45.5186 6.36811 44.5863 5.40197 42.7223 5.09623L41.7009 5.91336L41.2021 5C40.3841 5.04578 39.3949 5.32515 39.0634 5.49277L38.7311 6.55047C38.7311 6.55047 38.4694 6.26179 38.1249 5.86603C36.5924 6.52641 35.3331 7.3195 34.288 8.19639C34.6202 7.29544 35.0009 6.29827 35.2503 5.8055C34.8934 6.17798 32.1853 9.09733 31.8047 11.0071C31.0396 12.2107 30.5539 13.4787 30.2553 14.7389C29.0114 13.0255 27.0154 11.1406 23.8323 9.28901L24.7593 11.6077C24.5813 11.4758 22.847 10.2381 20.518 9.2052L20.043 10.2745L19.3899 8.74891C17.8214 8.15991 16.0756 7.72768 14.3881 7.78743C14.3881 7.78743 20.079 11.7521 21.0651 13.9746L18.9625 13.9148C18.9625 13.9148 22.7043 15.8184 25.8014 18.2659C24.678 18.0013 23.4709 17.8872 22.1817 17.9997L22.2408 20.4387L18.9855 18.6966C18.5581 18.8409 18.1299 19.021 17.6909 19.225L18.4752 21.4235C18.3447 21.3513 17.2512 20.715 16.0994 20.0538C15.7494 20.2494 14.956 20.7321 14.4955 21.1348C14.8992 21.9155 15.2322 22.5766 15.2322 22.5766C15.2322 22.5766 14.3651 22.4688 13.3913 22.3244C11.7314 24.5795 12.1427 26.5296 12 27.4562C12.1673 27.2948 13.7259 23.7601 18.0585 23.8524V23.8516Z" fill="black"/>
    <g clip-path="url(#clip0_381_7052)">
    <path fill-rule="evenodd" clip-rule="evenodd" d="M32.3542 14.4932C32.3046 14.4669 34.3997 13.6944 35.1178 13.5984C36.0122 13.4792 37.4008 13.43 38.6832 13.7668C39.8109 14.0625 40.7427 14.7794 41.1074 15.4181C41.3393 15.8245 41.9111 16.1244 40.9368 16.581C40.5889 16.7439 40.905 17.1025 41.1168 17.4215C41.6932 18.29 41.7194 18.7354 42.0065 19.5127C42.446 20.703 42.5035 22.1555 42.5708 23.3468C42.6676 25.0603 42.2061 26.797 41.3192 28.4145C40.213 30.4313 38.2732 31.1761 36.5994 31.2868C33.7718 31.4733 31.9946 29.5371 31.9231 29.631C31.4864 30.2052 30.6767 30.7458 30.1142 30.9026C27.5783 31.6092 25.7577 31.1748 24.2457 29.5463C23.3513 28.5836 22.5261 27.1614 22.2456 25.6679C21.9473 24.0825 21.8411 22.466 22.0819 21.3048C22.2858 20.3235 22.5121 19.2983 22.8262 18.3416C22.9866 17.8536 23.2007 17.4741 23.0871 17.0441C22.9389 16.485 22.1693 16.7207 22.9997 15.538C23.3522 15.0359 23.8127 14.5222 24.4219 14.2029C26.9532 12.876 30.0647 13.2172 32.3542 14.4932Z" fill="#A6F7F7"/>
    <path fill-rule="evenodd" clip-rule="evenodd" d="M36.2341 16.0209C33.6416 16.0291 31.5554 19.1565 31.5783 22.9998C31.6012 26.8434 33.7248 29.9572 36.3173 29.9487C38.9098 29.9405 40.9959 26.813 40.973 22.9698C40.9501 19.1261 38.8265 16.0124 36.2341 16.0209Z" fill="white"/>
    <path fill-rule="evenodd" clip-rule="evenodd" d="M33.9883 23.2317C33.9822 20.6804 35.1296 18.6076 36.5485 18.6056C37.8619 18.6039 38.9503 20.3764 39.1102 22.663C39.0527 22.6579 38.9938 22.6552 38.9344 22.6565C38.3041 22.6726 37.809 23.0606 37.831 23.5213C37.853 23.982 38.3832 24.3444 39.0134 24.3283C39.0288 24.328 39.0443 24.3263 39.0597 24.3256C38.7894 26.3468 37.7786 27.8499 36.5705 27.8513C35.1515 27.853 33.9944 25.7833 33.9888 23.2317H33.9883Z" fill="black"/>
    <path fill-rule="evenodd" clip-rule="evenodd" d="M32.4018 14.3612C29.1291 12.5237 23.7898 12.9568 22.5559 16.1696C22.476 16.378 22.5873 16.5761 22.7411 16.7677C22.8711 16.9302 23.0324 17.0873 23.0777 17.2479C23.0777 17.2526 23.0735 17.2793 23.0679 17.3011C23.0525 17.3606 23.0225 17.448 22.9819 17.561C22.7032 18.3332 21.9369 20.2663 21.8593 22.5768C21.8004 24.3255 22.0664 26.3819 23.0272 28.0998C23.6729 29.2542 24.6323 30.2562 26.0129 30.9147C26.7942 31.2873 28.0219 31.4055 29.2011 31.2094C30.3353 31.0209 31.4219 30.5428 32.0212 29.7306C32.0596 29.7637 32.1077 29.8068 32.1657 29.8573C32.8348 30.4376 34.7348 31.9455 37.8842 31.2112C39.7782 30.7695 40.9807 29.3255 41.6319 28.1066C43.3642 24.8651 42.992 19.6714 41.048 17.114C40.9526 16.9886 40.9274 16.8916 40.9507 16.8107C40.9872 16.6836 41.1321 16.5989 41.2589 16.5118C41.4487 16.3814 41.6048 16.2468 41.5459 16.047C40.7464 13.313 35.9977 12.5347 32.4018 14.3612ZM32.4645 14.5327C35.9247 12.7352 40.5501 13.4397 41.3238 16.0819C41.3467 16.1597 41.3112 16.2202 41.2542 16.2748C41.1803 16.3455 41.0751 16.4073 40.9807 16.476C40.868 16.5583 40.7707 16.6488 40.7324 16.7622C40.6941 16.8763 40.7123 17.0153 40.8488 17.1949C42.7681 19.7195 43.1295 24.8463 41.4192 28.0462C40.7904 29.2231 39.643 30.6261 37.8145 31.0527C34.416 31.845 32.5393 29.9058 32.1484 29.5844C32.1068 29.5503 32.0741 29.5305 32.0549 29.5229C32.0315 29.5134 32.0105 29.511 31.9937 29.511C31.945 29.511 31.9072 29.5257 31.8843 29.5609C31.333 30.3846 30.2642 30.8621 29.1501 31.0476C28.0364 31.2327 26.8751 31.1275 26.1373 30.7757C24.7945 30.1357 23.8655 29.1596 23.2376 28.0373C22.2885 26.3402 22.0286 24.3087 22.087 22.5813C22.1642 20.2885 22.9253 18.3701 23.2021 17.6037C23.2516 17.4651 23.2862 17.3629 23.2989 17.3018C23.3073 17.2629 23.3063 17.2345 23.3017 17.2185C23.2526 17.0405 23.0815 16.864 22.9375 16.6843C22.8164 16.533 22.7121 16.3797 22.7752 16.2154C23.9717 13.0996 29.1824 12.7181 32.3279 14.5299C32.3677 14.5528 32.4233 14.5538 32.4645 14.5323V14.5327Z" fill="black"/>
    <path fill-rule="evenodd" clip-rule="evenodd" d="M39.3803 16.1739C38.7959 15.2821 37.4242 14.9116 36.0861 14.9911C34.7452 15.0711 33.4309 15.6032 32.9676 16.5359C32.9461 16.5789 32.8806 16.6015 32.8213 16.5858C32.7619 16.5701 32.7315 16.5222 32.753 16.4792C33.2467 15.4857 34.6386 14.9105 36.0674 14.8255C37.499 14.7401 38.96 15.1479 39.5856 16.1025C39.6127 16.1438 39.5889 16.1937 39.5318 16.2135C39.4753 16.2333 39.407 16.2159 39.3799 16.1742L39.3803 16.1739Z" fill="black"/>
    <path fill-rule="evenodd" clip-rule="evenodd" d="M31.7257 16.5079C30.7728 15.1578 28.6858 14.7517 26.9507 15.0546C25.7996 15.2555 24.8005 15.7684 24.3961 16.5311C24.3732 16.5741 24.3073 16.5953 24.2488 16.5786C24.1899 16.5622 24.1609 16.5137 24.1834 16.471C24.614 15.6585 25.672 15.1066 26.8979 14.8928C28.7274 14.5734 30.9239 15.0082 31.9286 16.4317C31.9576 16.4727 31.9356 16.5229 31.8795 16.5441C31.8239 16.5652 31.7547 16.5492 31.7261 16.5082L31.7257 16.5079Z" fill="black"/>
    <path d="M36.3807 30.0671C35.0758 30.0712 33.8513 29.3342 32.9317 27.9916C32.0251 26.6678 31.5192 24.9082 31.508 23.037C31.4968 21.1661 31.9812 19.4034 32.8723 18.0735C33.7756 16.7251 34.9958 15.9826 36.2961 15.9761C38.9596 15.9676 41.1458 19.1213 41.1687 23.0062C41.18 24.8772 40.6956 26.6398 39.8045 27.9698C38.9185 29.2922 37.7323 30.034 36.4564 30.0661C36.4312 30.0668 36.4059 30.0671 36.3807 30.0671ZM33.0771 18.1465C32.2014 19.4536 31.7249 21.1903 31.7362 23.036C31.7474 24.8819 32.2444 26.6152 33.1355 27.9168C34.014 29.1996 35.1665 29.9042 36.3797 29.9001C37.6005 29.8987 38.7366 29.1846 39.6001 27.896C40.4758 26.5889 40.9523 24.8522 40.941 23.0066C40.9186 19.2135 38.8353 16.1342 36.2975 16.1424C36.2741 16.1424 36.2516 16.1428 36.2287 16.1434C35.0412 16.1735 33.9242 16.8825 33.0771 18.1465Z" fill="black"/>
    <path fill-rule="evenodd" clip-rule="evenodd" d="M28.3591 15.8972C25.7666 15.9054 23.6804 19.0329 23.7033 22.8762C23.7262 26.7198 25.8498 29.8336 28.4423 29.825C31.0348 29.8168 33.1209 26.6894 33.098 22.8461C33.0751 19.0025 30.9515 15.8887 28.3591 15.8972Z" fill="white"/>
    <path d="M28.4435 29.9084C27.1438 29.9125 25.9235 29.1751 25.0076 27.8322C24.1043 26.5077 23.6013 24.7478 23.59 22.8766C23.5788 21.0049 24.0613 19.2419 24.9487 17.9117C25.8482 16.5629 27.0648 15.8211 28.3589 15.8136C31.0117 15.8051 33.189 18.9595 33.2129 22.8455C33.2241 24.7171 32.7416 26.4801 31.8542 27.8104C30.972 29.1331 29.7901 29.8753 28.5188 29.9074C28.494 29.9081 28.4683 29.9084 28.4435 29.9084ZM28.3599 15.9806C27.1414 15.9847 26.0133 16.6961 25.1535 17.9851C24.2811 19.2925 23.807 21.0295 23.8182 22.8759C23.8289 24.7222 24.3241 26.4562 25.2119 27.7581C26.0872 29.0413 27.2345 29.7458 28.4426 29.7421C29.6615 29.7352 30.7896 29.0266 31.6494 27.7376C32.5219 26.4302 32.996 24.6932 32.9847 22.8468C32.9618 19.0527 30.8874 15.9728 28.3603 15.9806H28.3599Z" fill="black"/>
    <path fill-rule="evenodd" clip-rule="evenodd" d="M25.8535 23.1296C25.7988 20.5787 26.9213 18.4939 28.3581 18.4779C29.7228 18.4622 30.8837 20.3177 31.0436 22.6897C30.9973 22.6866 30.9506 22.6852 30.9034 22.6863C30.2731 22.7023 29.7785 23.0903 29.8 23.551C29.8219 24.0118 30.3521 24.3741 30.9824 24.3581C30.9833 24.3581 30.9847 24.3581 30.9856 24.3581C30.7126 26.2874 29.7415 27.7089 28.5558 27.7222C27.1191 27.7386 25.9082 25.6808 25.8535 23.1299V23.1296Z" fill="black"/>
    </g>
    <defs>
    <clipPath id="clip0_381_7052">
    <rect width="20.8905" height="18.1314" fill="white" transform="translate(21.8516 13.2773)"/>
    </clipPath>
    </defs>
    </svg>
    