<svg width="147" height="49" viewBox="0 0 147 49" fill="none" xmlns="http://www.w3.org/2000/svg">
    <path
        d="M9.356 25H0.652V0.859999H9.356V25ZM25.8157 25.816C16.0577 25.816 9.80172 20.852 9.80172 13.066C9.80172 5.45 16.5337 0.0439991 26.0877 0.0439991C34.0437 0.0439991 40.0277 3.512 41.6597 9.088L32.6497 10.788C31.9357 8 29.6577 6.504 26.0877 6.504C21.6677 6.504 18.9817 8.986 18.9817 12.93C18.9817 16.908 21.6337 19.322 26.0877 19.322C29.6917 19.322 32.0037 17.826 32.6837 15.072L41.5917 17.044C39.6537 22.586 33.8397 25.816 25.8157 25.816ZM57.1045 25.816C47.0745 25.816 40.7165 20.818 40.7165 12.93C40.7165 5.042 47.0745 0.0439991 57.1045 0.0439991C67.1005 0.0439991 73.4585 5.042 73.4585 12.93C73.4585 20.818 67.1685 25.816 57.1045 25.816ZM49.8965 12.93C49.8965 16.874 52.7525 19.526 57.1045 19.526C61.4565 19.526 64.2785 16.874 64.2785 12.93C64.2785 8.952 61.4565 6.334 57.1045 6.334C52.7525 6.334 49.8965 8.952 49.8965 12.93ZM73.9393 25V0.859999H82.9493L92.8433 12.114C93.4893 12.862 94.3393 14.052 94.8833 15.106H95.0533V11.366V0.859999H102.907V25H94.4073L84.0713 13.746C83.3913 12.998 82.3373 11.536 81.9973 10.686H81.8273V14.392V25H73.9393ZM114.222 25H105.518V0.859999H114.222V25ZM130.682 25.816C120.924 25.816 114.668 20.852 114.668 13.066C114.668 5.45 121.4 0.0439991 130.954 0.0439991C138.91 0.0439991 144.894 3.512 146.526 9.088L137.516 10.788C136.802 8 134.524 6.504 130.954 6.504C126.534 6.504 123.848 8.986 123.848 12.93C123.848 16.908 126.5 19.322 130.954 19.322C134.558 19.322 136.87 17.826 137.55 15.072L146.458 17.044C144.52 22.586 138.706 25.816 130.682 25.816ZM0.652 49V24.86H13.538L17.856 37.134C18.264 38.29 18.638 39.242 18.74 40.16H18.808C18.91 39.242 19.284 38.256 19.692 37.066L23.84 24.86H37.066V49H29.11V35.74C29.11 34.21 29.28 32.408 29.586 30.64H29.416C29.212 31.49 28.43 33.802 27.784 35.434L22.548 49H14.456L9.526 35.502C8.846 33.632 8.302 31.796 7.996 30.64H7.86C8.166 32.238 8.2 34.108 8.2 35.74V49H0.652ZM52.0791 49H43.3751V24.86H52.0791V49ZM56.0948 49L67.3148 24.86H78.5688L89.7888 49H80.4728L78.6028 44.41H67.2808L65.4108 49H56.0948ZM69.3888 39.174H76.4948L74.7948 34.992C74.3868 33.972 73.4348 31.354 72.9928 29.79H72.8908C72.4828 31.354 71.4968 33.972 71.0888 34.992L69.3888 39.174ZM93.7921 49V24.86H106.678L110.996 37.134C111.404 38.29 111.778 39.242 111.88 40.16H111.948C112.05 39.242 112.424 38.256 112.832 37.066L116.98 24.86H130.206V49H122.25V35.74C122.25 34.21 122.42 32.408 122.726 30.64H122.556C122.352 31.49 121.57 33.802 120.924 35.434L115.688 49H107.596L102.666 35.502C101.986 33.632 101.442 31.796 101.136 30.64H101C101.306 32.238 101.34 34.108 101.34 35.74V49H93.7921ZM145.219 49H136.515V24.86H145.219V49Z"
        fill="url(#paint0_linear_120_843)" />
    <defs>
        <linearGradient id="paint0_linear_120_843" x1="125" y1="13" x2="23" y2="44"
            gradientUnits="userSpaceOnUse">
            <stop stop-color="#A6F7F7" />
            <stop offset="1" stop-color="#B9AFF5" />
        </linearGradient>
    </defs>
</svg>