<svg width="1920" height="640" viewBox="0 0 1920 640" fill="none" xmlns="http://www.w3.org/2000/svg">
    <path
        d="M115.968 319H0.256001V-1.92002H115.968V319ZM334.785 329.848C205.061 329.848 121.893 263.856 121.893 160.348C121.893 59.1 211.389 -12.768 338.401 -12.768C444.169 -12.768 523.721 33.336 545.417 107.464L425.637 130.064C416.145 93 385.861 73.112 338.401 73.112C279.641 73.112 243.933 106.108 243.933 158.54C243.933 211.424 279.189 243.516 338.401 243.516C386.313 243.516 417.049 223.628 426.089 187.016L544.513 213.232C518.749 286.908 441.457 329.848 334.785 329.848ZM750.742 329.848C617.402 329.848 532.878 263.404 532.878 158.54C532.878 53.676 617.402 -12.768 750.742 -12.768C883.63 -12.768 968.154 53.676 968.154 158.54C968.154 263.404 884.534 329.848 750.742 329.848ZM654.918 158.54C654.918 210.972 692.886 246.228 750.742 246.228C808.598 246.228 846.114 210.972 846.114 158.54C846.114 105.656 808.598 70.852 750.742 70.852C692.886 70.852 654.918 105.656 654.918 158.54ZM974.546 319V-1.92002H1094.33L1225.86 147.692C1234.45 157.636 1245.75 173.456 1252.98 187.468H1255.24V137.748V-1.92002H1359.65V319H1246.65L1109.24 169.388C1100.2 159.444 1086.19 140.008 1081.67 128.708H1079.41V177.976V319H974.546ZM1510.07 319H1394.36V-1.92002H1510.07V319ZM1728.89 329.848C1599.16 329.848 1516 263.856 1516 160.348C1516 59.1 1605.49 -12.768 1732.5 -12.768C1838.27 -12.768 1917.82 33.336 1939.52 107.464L1819.74 130.064C1810.25 93 1779.96 73.112 1732.5 73.112C1673.74 73.112 1638.04 106.108 1638.04 158.54C1638.04 211.424 1673.29 243.516 1732.5 243.516C1780.42 243.516 1811.15 223.628 1820.19 187.016L1938.62 213.232C1912.85 286.908 1835.56 329.848 1728.89 329.848ZM0.256001 640V319.08H171.564L228.968 482.252C234.392 497.62 239.364 510.276 240.72 522.48H241.624C242.98 510.276 247.952 497.168 253.376 481.348L308.52 319.08H484.348V640H378.58V463.72C378.58 443.38 380.84 419.424 384.908 395.92H382.648C379.936 407.22 369.54 437.956 360.952 459.652L291.344 640H183.768L118.228 460.556C109.188 435.696 101.956 411.288 97.888 395.92H96.08C100.148 417.164 100.6 442.024 100.6 463.72V640H0.256001ZM683.934 640H568.222V319.08H683.934V640ZM737.32 640L886.48 319.08H1036.09L1185.25 640H1061.4L1036.54 578.98H886.028L861.168 640H737.32ZM914.052 509.372H1008.52L985.92 453.776C980.496 440.216 967.84 405.412 961.964 384.62H960.608C955.184 405.412 942.076 440.216 936.652 453.776L914.052 509.372ZM1238.47 640V319.08H1409.78L1467.18 482.252C1472.61 497.62 1477.58 510.276 1478.94 522.48H1479.84C1481.2 510.276 1486.17 497.168 1491.59 481.348L1546.74 319.08H1722.56V640H1616.8V463.72C1616.8 443.38 1619.06 419.424 1623.12 395.92H1620.86C1618.15 407.22 1607.76 437.956 1599.17 459.652L1529.56 640H1421.98L1356.44 460.556C1347.4 435.696 1340.17 411.288 1336.1 395.92H1334.3C1338.36 417.164 1338.82 442.024 1338.82 463.72V640H1238.47ZM1922.15 640H1806.44V319.08H1922.15V640Z"
        fill="url(#paint0_linear_132_6)" />
    <defs>
        <linearGradient id="paint0_linear_132_6" x1="88.0994" y1="630.556" x2="1017.44" y2="645.063"
            gradientUnits="userSpaceOnUse">
            <stop stop-color="#7261E1" />
            <stop offset="0.16" stop-color="#9A7DE3" />
            <stop offset="0.66" stop-color="#FFC7E9" />
            <stop offset="0.845" stop-color="#E2BDEE" />
            <stop offset="1" stop-color="#B9AFF5" />
        </linearGradient>
    </defs>
</svg>