<svg width="142" height="49" viewBox="0 0 142 49" fill="none" xmlns="http://www.w3.org/2000/svg">
    <path
        d="M6.996 25H0.128V0.859999H6.996V25ZM23.546 25.816C13.89 25.816 7.73603 20.784 7.73603 13.032C7.73603 5.382 14.298 0.0439991 23.818 0.0439991C31.672 0.0439991 37.35 3.444 38.948 9.088L31.842 10.346C30.924 7.048 28.102 5.246 23.75 5.246C18.31 5.246 14.944 8.204 14.944 12.93C14.944 17.588 18.378 20.614 23.818 20.614C28.102 20.614 30.89 18.914 31.91 15.718L38.914 17.214C36.908 22.688 31.434 25.816 23.546 25.816ZM54.4616 25.816C44.6356 25.816 38.2776 20.716 38.2776 12.93C38.2776 5.11 44.6356 0.0439991 54.4616 0.0439991C64.2536 0.0439991 70.6456 5.11 70.6456 12.93C70.6456 20.75 64.3216 25.816 54.4616 25.816ZM45.4856 12.93C45.4856 17.588 49.0896 20.716 54.4616 20.716C59.8336 20.716 63.4376 17.588 63.4376 12.93C63.4376 8.272 59.8336 5.144 54.4616 5.144C49.0896 5.144 45.4856 8.272 45.4856 12.93ZM71.4324 25V0.859999H78.7424L91.3564 14.562C92.0704 15.344 92.7844 16.364 93.2604 17.316H93.3964V13.848V0.859999H99.6184V25H92.7844L79.6944 11.128C79.0144 10.38 78.1304 9.156 77.7904 8.374H77.6544V11.74V25H71.4324ZM109.639 25H102.771V0.859999H109.639V25ZM126.189 25.816C116.533 25.816 110.379 20.784 110.379 13.032C110.379 5.382 116.941 0.0439991 126.461 0.0439991C134.315 0.0439991 139.993 3.444 141.591 9.088L134.485 10.346C133.567 7.048 130.745 5.246 126.393 5.246C120.953 5.246 117.587 8.204 117.587 12.93C117.587 17.588 121.021 20.614 126.461 20.614C130.745 20.614 133.533 18.914 134.553 15.718L141.557 17.214C139.551 22.688 134.077 25.816 126.189 25.816ZM0.128 49V24.86H10.362L16.618 39.48C16.958 40.466 17.298 41.316 17.434 42.098H17.502C17.638 41.316 17.978 40.432 18.352 39.446L24.54 24.86H35.012V49H28.756V33.632C28.756 32.374 28.858 30.81 29.062 29.518H28.926C28.756 30.198 28.076 32.034 27.498 33.36L20.494 49H14.068L7.302 33.394C6.724 31.966 6.282 30.47 6.01 29.518H5.874C6.078 30.708 6.112 32.204 6.112 33.632V49H0.128ZM49.1547 49H42.2867V24.86H49.1547V49ZM53.7027 49L65.7727 24.86H74.3407L86.3767 49H79.0327L76.7887 44.138H63.3247L61.0807 49H53.7027ZM65.3647 39.752H74.7487L71.6547 33.122C71.2807 32.272 70.4987 30.232 70.0907 28.974H69.9887C69.6147 30.232 68.8327 32.272 68.4587 33.122L65.3647 39.752ZM91.0103 49V24.86H101.244L107.5 39.48C107.84 40.466 108.18 41.316 108.316 42.098H108.384C108.52 41.316 108.86 40.432 109.234 39.446L115.422 24.86H125.894V49H119.638V33.632C119.638 32.374 119.74 30.81 119.944 29.518H119.808C119.638 30.198 118.958 32.034 118.38 33.36L111.376 49H104.95L98.1843 33.394C97.6063 31.966 97.1643 30.47 96.8923 29.518H96.7563C96.9603 30.708 96.9943 32.204 96.9943 33.632V49H91.0103ZM140.037 49H133.169V24.86H140.037V49Z"
        fill="white" />
</svg>