<svg xmlns="http://www.w3.org/2000/svg" width="248" height="144" viewBox="0 0 248 144" fill="none">
    <ellipse cx="109.602" cy="100.8" rx="12" ry="41.5999" fill="#FF5208"/>
    <ellipse cx="9.59998" cy="19.2" rx="9.59998" ry="19.2" transform="matrix(-1 0 0 1 248 104)" fill="#FF5208"/>
    <ellipse cx="91.1996" cy="108.8" rx="9.59998" ry="35.1999" fill="#FF5208"/>
    <ellipse cx="7.99998" cy="10.4" rx="7.99998" ry="10.4" transform="matrix(-1 0 0 1 16.002 121.6)" fill="#FF5208"/>
    <ellipse cx="75.2015" cy="113.6" rx="9.59998" ry="30.3999" fill="#FF5208"/>
    <ellipse cx="7.99998" cy="14.4" rx="7.99998" ry="14.4" transform="matrix(-1 0 0 1 28.8008 113.6)" fill="#FF5208"/>
    <ellipse cx="59.2015" cy="124" rx="9.59998" ry="18.4" fill="#FF5208"/>
    <path d="M25.6013 120C25.6013 132.371 29.5411 142.4 34.4012 142.4C39.2613 142.4 43.2012 132.371 43.2012 120C43.2012 107.629 39.2613 97.6001 34.4012 97.6001C29.5411 97.6001 25.6013 107.629 25.6013 120Z" fill="#FF5208"/>
    <ellipse cx="129.602" cy="86.3998" rx="11.2" ry="55.9999" fill="#FF5208"/>
    <ellipse cx="12" cy="71.1999" rx="12" ry="71.1999" transform="matrix(-1 0 0 1 232 0)" fill="#FF5208"/>
    <ellipse cx="149.602" cy="80.0002" rx="12" ry="62.3999" fill="#FF5208"/>
    <ellipse cx="11.2" cy="44.7999" rx="11.2" ry="44.7999" transform="matrix(-1 0 0 1 211.201 52.8003)" fill="#FF5208"/>
    <ellipse cx="168.801" cy="84.8001" rx="12" ry="57.5999" fill="#FF5208"/>
    <ellipse cx="12" cy="30.3999" rx="12" ry="30.3999" transform="matrix(-1 0 0 1 192.002 81.5999)" fill="#FF5208"/>
    </svg>