<svg width="232" height="51" viewBox="0 0 232 51" fill="none" xmlns="http://www.w3.org/2000/svg">
    <rect x="0.0117188" y="15.7979" width="229.473" height="34.5072" transform="rotate(-3.90653 0.0117188 15.7979)" fill="#B9AFF5"/>
    <mask id="path-2-outside-1_286_3006" maskUnits="userSpaceOnUse" x="14.9281" y="11.0119" width="200.489" height="27.5933" fill="black">
    <rect fill="white" x="14.9281" y="11.0119" width="200.489" height="27.5933"/>
    <path d="M17.2454 36.5074L18.3142 26.4713L21.8898 26.2271L21.123 33.4922L27.3665 33.0659L27.0785 35.8359L17.2454 36.5074ZM32.2171 33.0714L39.1031 32.6012L38.8341 35.0332L28.3725 35.7476L29.4412 25.7114L39.8051 25.0037L39.5641 27.4338L32.7619 27.8983L32.6068 29.3262L39.1576 28.8788L38.9312 31.1114L32.3804 31.5588L32.2171 33.0714ZM39.5302 34.9856L45.2082 24.6347L49.8454 24.3181L53.3859 34.0395L49.7404 34.2884L49.1787 32.4324L44.5135 32.7509L43.5389 34.7119L39.5302 34.9856ZM45.6097 30.515L48.529 30.3157L48.0205 28.6244C47.7716 27.8556 47.641 27.1769 47.5115 26.5122L47.4696 26.515C47.248 27.1757 46.8935 27.9436 46.4981 28.7284L45.6097 30.515ZM54.4049 33.9699L55.4736 23.9337L62.2479 23.4711C64.3709 23.3262 66.335 23.9358 66.4933 26.2544C66.5725 27.4137 66.2155 28.9676 64.1167 29.6722L66.0957 33.1715L62.1568 33.4405L60.4131 30.304L58.332 30.4461L57.9806 33.7257L54.4049 33.9699ZM58.5641 28.2973L61.2878 28.1113C62.4471 28.0322 62.7374 27.3528 62.6974 26.7662C62.6449 25.998 62.0541 25.7717 61.3977 25.8165L58.8137 25.993L58.5641 28.2973ZM67.3188 33.088L68.3875 23.0519L71.9912 22.8058L75.4794 27.2404C76.0159 27.9054 76.1598 28.1622 76.3849 28.5819L76.4268 28.579L76.5879 26.828L77.0613 22.4596L80.2878 22.2392L79.2191 32.2754L75.839 32.5062L72.1196 27.9751C71.6913 27.457 71.3964 27.0422 71.2189 26.7035L71.177 26.7063C71.1294 27.2428 71.0968 27.7923 71.0159 28.4574L70.5593 32.8667L67.3188 33.088ZM84.845 31.8912L81.2694 32.1354L82.3381 22.0992L85.9138 21.855L84.845 31.8912ZM86.8858 31.7518L87.9545 21.7157L91.5582 21.4696L95.0464 25.9043C95.5829 26.5693 95.7268 26.826 95.9519 27.2457L95.9938 27.2428L96.1549 25.4918L96.6283 21.1234L99.8548 20.903L98.7861 30.9392L95.406 31.17L91.6866 26.6389C91.2583 26.1208 90.9634 25.706 90.7859 25.3673L90.744 25.3701C90.6964 25.9066 90.6638 26.4561 90.5829 27.1212L90.1263 31.5305L86.8858 31.7518ZM105.929 30.7882C102.94 30.9923 100.717 29.6707 100.51 26.6397C100.318 23.8183 101.924 20.425 107.19 20.0654C110.193 19.8603 113.002 20.7209 113.641 22.8804L109.801 23.7741C109.479 22.7577 108.353 22.5118 107.25 22.5871C104.973 22.7426 104.165 24.2712 104.28 25.9473C104.404 27.7631 105.528 28.402 107.204 28.2875C108.796 28.1788 109.715 27.4565 109.892 26.5464L109.905 26.5314L106.636 26.7546L106.857 24.6487L113.464 24.1975L112.848 29.9789L110.139 30.1639L110.18 28.5053C109.759 29.5304 108.416 30.6184 105.929 30.7882ZM126.309 29.3965C123.082 29.6168 119.664 28.6715 119.421 25.1098C119.252 22.6376 120.585 19.1506 126.088 18.7748C129.315 18.5545 132.719 19.5008 132.963 23.0625C133.131 25.5347 131.812 29.0207 126.309 29.3965ZM123.211 24.7247C123.324 26.3728 124.694 26.9108 126.048 26.8182C128.521 26.6494 129.289 24.9551 129.185 23.4327C129.073 21.7985 127.704 21.2606 126.349 21.3531C123.877 21.5219 123.108 23.2162 123.211 24.7247ZM137.207 28.3155L133.631 28.5597L134.7 18.5236L145.064 17.8158L144.813 20.3167L138.011 20.7812L137.847 22.2799L144.398 21.8325L144.157 24.2626L137.592 24.7109L137.207 28.3155ZM148.934 27.5147L145.358 27.7589L146.427 17.7227L156.791 17.015L156.541 19.5159L149.738 19.9804L149.574 21.4791L156.125 21.0317L155.884 23.4618L149.319 23.9101L148.934 27.5147ZM160.661 26.7139L157.085 26.958L158.154 16.9219L161.73 16.6777L160.661 26.7139ZM169.066 26.4767C165.616 26.7123 162.64 25.4562 162.407 22.0481C162.211 19.1848 164.097 16.1793 169.139 15.835C172.226 15.6242 174.933 16.6321 175.734 19.1173L171.969 20.0761C171.401 18.7537 170.382 18.4163 169.195 18.4974C166.722 18.6662 166.119 20.3072 166.209 21.6341C166.337 23.5057 167.752 23.8862 169.051 23.7975C170.686 23.6859 171.457 22.8614 171.782 21.857L175.357 22.4267C174.412 24.8207 172.279 26.2573 169.066 26.4767ZM180.102 22.9727L186.987 22.5025L186.719 24.9345L176.257 25.6489L177.326 15.6127L187.689 14.905L187.448 17.3351L180.646 17.7996L180.491 19.2275L187.042 18.7801L186.816 21.0127L180.265 21.4601L180.102 22.9727ZM188.421 24.8182L189.489 14.7821L196.264 14.3195C198.387 14.1745 200.351 14.7841 200.509 17.1027C200.588 18.262 200.231 19.816 198.132 20.5206L200.111 24.0199L196.173 24.2889L194.429 21.1524L192.348 21.2945L191.996 24.5741L188.421 24.8182ZM192.58 19.1457L195.303 18.9597C196.463 18.8805 196.753 18.2012 196.713 17.6145C196.661 16.8463 196.07 16.6201 195.413 16.6649L192.829 16.8413L192.58 19.1457ZM206.685 23.9078C203.668 24.1138 201.286 23.7572 199.896 22.3086L202.414 20.13C203.652 21.2101 205.359 21.5426 206.84 21.4415C208.236 21.3461 208.774 21.0007 208.74 20.4979C208.715 20.1347 208.439 19.9992 207.693 19.966L205.214 19.8265C203.327 19.7309 201.474 19.0997 201.338 17.1163C201.232 15.5659 202.163 13.5799 206.772 13.2651C208.7 13.1335 211.244 13.1983 212.736 14.4997L210.65 16.6207C209.532 15.6587 207.995 15.5531 206.558 15.6793C205.373 15.7883 204.881 15.9763 204.917 16.5071C204.942 16.8702 205.204 17.0067 206.105 17.0574L208.442 17.1644C210.428 17.2674 212.253 17.69 212.398 19.8271C212.509 21.4473 211.644 23.5692 206.685 23.9078Z"/>
    </mask>
    <path d="M17.2454 36.5074L18.3142 26.4713L21.8898 26.2271L21.123 33.4922L27.3665 33.0659L27.0785 35.8359L17.2454 36.5074ZM32.2171 33.0714L39.1031 32.6012L38.8341 35.0332L28.3725 35.7476L29.4412 25.7114L39.8051 25.0037L39.5641 27.4338L32.7619 27.8983L32.6068 29.3262L39.1576 28.8788L38.9312 31.1114L32.3804 31.5588L32.2171 33.0714ZM39.5302 34.9856L45.2082 24.6347L49.8454 24.3181L53.3859 34.0395L49.7404 34.2884L49.1787 32.4324L44.5135 32.7509L43.5389 34.7119L39.5302 34.9856ZM45.6097 30.515L48.529 30.3157L48.0205 28.6244C47.7716 27.8556 47.641 27.1769 47.5115 26.5122L47.4696 26.515C47.248 27.1757 46.8935 27.9436 46.4981 28.7284L45.6097 30.515ZM54.4049 33.9699L55.4736 23.9337L62.2479 23.4711C64.3709 23.3262 66.335 23.9358 66.4933 26.2544C66.5725 27.4137 66.2155 28.9676 64.1167 29.6722L66.0957 33.1715L62.1568 33.4405L60.4131 30.304L58.332 30.4461L57.9806 33.7257L54.4049 33.9699ZM58.5641 28.2973L61.2878 28.1113C62.4471 28.0322 62.7374 27.3528 62.6974 26.7662C62.6449 25.998 62.0541 25.7717 61.3977 25.8165L58.8137 25.993L58.5641 28.2973ZM67.3188 33.088L68.3875 23.0519L71.9912 22.8058L75.4794 27.2404C76.0159 27.9054 76.1598 28.1622 76.3849 28.5819L76.4268 28.579L76.5879 26.828L77.0613 22.4596L80.2878 22.2392L79.2191 32.2754L75.839 32.5062L72.1196 27.9751C71.6913 27.457 71.3964 27.0422 71.2189 26.7035L71.177 26.7063C71.1294 27.2428 71.0968 27.7923 71.0159 28.4574L70.5593 32.8667L67.3188 33.088ZM84.845 31.8912L81.2694 32.1354L82.3381 22.0992L85.9138 21.855L84.845 31.8912ZM86.8858 31.7518L87.9545 21.7157L91.5582 21.4696L95.0464 25.9043C95.5829 26.5693 95.7268 26.826 95.9519 27.2457L95.9938 27.2428L96.1549 25.4918L96.6283 21.1234L99.8548 20.903L98.7861 30.9392L95.406 31.17L91.6866 26.6389C91.2583 26.1208 90.9634 25.706 90.7859 25.3673L90.744 25.3701C90.6964 25.9066 90.6638 26.4561 90.5829 27.1212L90.1263 31.5305L86.8858 31.7518ZM105.929 30.7882C102.94 30.9923 100.717 29.6707 100.51 26.6397C100.318 23.8183 101.924 20.425 107.19 20.0654C110.193 19.8603 113.002 20.7209 113.641 22.8804L109.801 23.7741C109.479 22.7577 108.353 22.5118 107.25 22.5871C104.973 22.7426 104.165 24.2712 104.28 25.9473C104.404 27.7631 105.528 28.402 107.204 28.2875C108.796 28.1788 109.715 27.4565 109.892 26.5464L109.905 26.5314L106.636 26.7546L106.857 24.6487L113.464 24.1975L112.848 29.9789L110.139 30.1639L110.18 28.5053C109.759 29.5304 108.416 30.6184 105.929 30.7882ZM126.309 29.3965C123.082 29.6168 119.664 28.6715 119.421 25.1098C119.252 22.6376 120.585 19.1506 126.088 18.7748C129.315 18.5545 132.719 19.5008 132.963 23.0625C133.131 25.5347 131.812 29.0207 126.309 29.3965ZM123.211 24.7247C123.324 26.3728 124.694 26.9108 126.048 26.8182C128.521 26.6494 129.289 24.9551 129.185 23.4327C129.073 21.7985 127.704 21.2606 126.349 21.3531C123.877 21.5219 123.108 23.2162 123.211 24.7247ZM137.207 28.3155L133.631 28.5597L134.7 18.5236L145.064 17.8158L144.813 20.3167L138.011 20.7812L137.847 22.2799L144.398 21.8325L144.157 24.2626L137.592 24.7109L137.207 28.3155ZM148.934 27.5147L145.358 27.7589L146.427 17.7227L156.791 17.015L156.541 19.5159L149.738 19.9804L149.574 21.4791L156.125 21.0317L155.884 23.4618L149.319 23.9101L148.934 27.5147ZM160.661 26.7139L157.085 26.958L158.154 16.9219L161.73 16.6777L160.661 26.7139ZM169.066 26.4767C165.616 26.7123 162.64 25.4562 162.407 22.0481C162.211 19.1848 164.097 16.1793 169.139 15.835C172.226 15.6242 174.933 16.6321 175.734 19.1173L171.969 20.0761C171.401 18.7537 170.382 18.4163 169.195 18.4974C166.722 18.6662 166.119 20.3072 166.209 21.6341C166.337 23.5057 167.752 23.8862 169.051 23.7975C170.686 23.6859 171.457 22.8614 171.782 21.857L175.357 22.4267C174.412 24.8207 172.279 26.2573 169.066 26.4767ZM180.102 22.9727L186.987 22.5025L186.719 24.9345L176.257 25.6489L177.326 15.6127L187.689 14.905L187.448 17.3351L180.646 17.7996L180.491 19.2275L187.042 18.7801L186.816 21.0127L180.265 21.4601L180.102 22.9727ZM188.421 24.8182L189.489 14.7821L196.264 14.3195C198.387 14.1745 200.351 14.7841 200.509 17.1027C200.588 18.262 200.231 19.816 198.132 20.5206L200.111 24.0199L196.173 24.2889L194.429 21.1524L192.348 21.2945L191.996 24.5741L188.421 24.8182ZM192.58 19.1457L195.303 18.9597C196.463 18.8805 196.753 18.2012 196.713 17.6145C196.661 16.8463 196.07 16.6201 195.413 16.6649L192.829 16.8413L192.58 19.1457ZM206.685 23.9078C203.668 24.1138 201.286 23.7572 199.896 22.3086L202.414 20.13C203.652 21.2101 205.359 21.5426 206.84 21.4415C208.236 21.3461 208.774 21.0007 208.74 20.4979C208.715 20.1347 208.439 19.9992 207.693 19.966L205.214 19.8265C203.327 19.7309 201.474 19.0997 201.338 17.1163C201.232 15.5659 202.163 13.5799 206.772 13.2651C208.7 13.1335 211.244 13.1983 212.736 14.4997L210.65 16.6207C209.532 15.6587 207.995 15.5531 206.558 15.6793C205.373 15.7883 204.881 15.9763 204.917 16.5071C204.942 16.8702 205.204 17.0067 206.105 17.0574L208.442 17.1644C210.428 17.2674 212.253 17.69 212.398 19.8271C212.509 21.4473 211.644 23.5692 206.685 23.9078Z" fill="#A6F7F7"/>
    <path d="M17.2454 36.5074L16.251 36.4015L16.1249 37.5863L17.3136 37.5051L17.2454 36.5074ZM18.3142 26.4713L18.246 25.4736L17.4087 25.5308L17.3198 26.3654L18.3142 26.4713ZM21.8898 26.2271L22.8843 26.3321L23.0092 25.1483L21.8217 25.2294L21.8898 26.2271ZM21.123 33.4922L20.1285 33.3873L20.0036 34.571L21.1911 34.4899L21.123 33.4922ZM27.3665 33.0659L28.3611 33.1693L28.484 31.9872L27.2983 32.0682L27.3665 33.0659ZM27.0785 35.8359L27.1467 36.8336L27.9862 36.7763L28.0732 35.9393L27.0785 35.8359ZM18.2398 36.6133L19.3085 26.5772L17.3198 26.3654L16.251 36.4015L18.2398 36.6133ZM18.3823 27.4689L21.958 27.2248L21.8217 25.2294L18.246 25.4736L18.3823 27.4689ZM20.8954 26.1221L20.1285 33.3873L22.1175 33.5972L22.8843 26.3321L20.8954 26.1221ZM21.1911 34.4899L27.4346 34.0635L27.2983 32.0682L21.0549 32.4945L21.1911 34.4899ZM26.3718 32.9625L26.0839 35.7325L28.0732 35.9393L28.3611 33.1693L26.3718 32.9625ZM27.0104 34.8382L17.1773 35.5097L17.3136 37.5051L27.1467 36.8336L27.0104 34.8382ZM32.2171 33.0714L31.2229 32.9641L31.0948 34.1504L32.2852 34.0691L32.2171 33.0714ZM39.1031 32.6012L40.097 32.7111L40.2285 31.522L39.0349 31.6035L39.1031 32.6012ZM38.8341 35.0332L38.9022 36.0308L39.7362 35.9739L39.8281 35.1431L38.8341 35.0332ZM28.3725 35.7476L27.3781 35.6417L27.2519 36.8264L28.4406 36.7452L28.3725 35.7476ZM29.4412 25.7114L29.3731 24.7138L28.5357 24.7709L28.4468 25.6055L29.4412 25.7114ZM39.8051 25.0037L40.8002 25.1024L40.9169 23.9255L39.7369 24.006L39.8051 25.0037ZM39.5641 27.4338L39.6322 28.4314L40.4757 28.3738L40.5592 27.5325L39.5641 27.4338ZM32.7619 27.8983L32.6938 26.9006L31.8582 26.9577L31.7678 27.7903L32.7619 27.8983ZM32.6068 29.3262L31.6127 29.2182L31.4838 30.4052L32.675 30.3238L32.6068 29.3262ZM39.1576 28.8788L40.1525 28.9797L40.2721 27.8004L39.0895 27.8811L39.1576 28.8788ZM38.9312 31.1114L38.9993 32.1091L39.8409 32.0516L39.9261 31.2123L38.9312 31.1114ZM32.3804 31.5588L32.3123 30.5611L31.4762 30.6182L31.3862 31.4514L32.3804 31.5588ZM32.2852 34.0691L39.1712 33.5989L39.0349 31.6035L32.149 32.0737L32.2852 34.0691ZM38.1091 32.4913L37.8402 34.9232L39.8281 35.1431L40.097 32.7111L38.1091 32.4913ZM38.766 34.0355L28.3044 34.7499L28.4406 36.7452L38.9022 36.0308L38.766 34.0355ZM29.3669 35.8535L30.4356 25.8173L28.4468 25.6055L27.3781 35.6417L29.3669 35.8535ZM29.5093 26.7091L39.8732 26.0014L39.7369 24.006L29.3731 24.7138L29.5093 26.7091ZM38.81 24.905L38.569 27.3351L40.5592 27.5325L40.8002 25.1024L38.81 24.905ZM39.4959 26.4361L32.6938 26.9006L32.83 28.896L39.6322 28.4314L39.4959 26.4361ZM31.7678 27.7903L31.6127 29.2182L33.601 29.4341L33.7561 28.0062L31.7678 27.7903ZM32.675 30.3238L39.2257 29.8765L39.0895 27.8811L32.5387 28.3285L32.675 30.3238ZM38.1627 28.7779L37.9363 31.0105L39.9261 31.2123L40.1525 28.9797L38.1627 28.7779ZM38.863 30.1138L32.3123 30.5611L32.4485 32.5564L38.9993 32.1091L38.863 30.1138ZM31.3862 31.4514L31.2229 32.9641L33.2113 33.1788L33.3746 31.6661L31.3862 31.4514ZM39.5302 34.9856L38.6535 34.5047L37.774 36.1079L39.5983 35.9833L39.5302 34.9856ZM45.2082 24.6347L45.1401 23.6371L44.5945 23.6743L44.3314 24.1538L45.2082 24.6347ZM49.8454 24.3181L50.785 23.9759L50.5276 23.2692L49.7773 23.3204L49.8454 24.3181ZM53.3859 34.0395L53.4541 35.0371L54.7806 34.9465L54.3256 33.6972L53.3859 34.0395ZM49.7404 34.2884L48.7833 34.5781L49.014 35.3403L49.8086 35.2861L49.7404 34.2884ZM49.1787 32.4324L50.1358 32.1427L49.9051 31.3804L49.1105 31.4347L49.1787 32.4324ZM44.5135 32.7509L44.4454 31.7532L43.8733 31.7923L43.618 32.3058L44.5135 32.7509ZM43.5389 34.7119L43.607 35.7096L44.1791 35.6705L44.4344 35.157L43.5389 34.7119ZM45.6098 30.515L44.7143 30.0698L43.9378 31.6315L45.6779 31.5127L45.6098 30.515ZM48.529 30.3157L48.5971 31.3134L49.8474 31.228L49.4866 30.0278L48.529 30.3157ZM48.0205 28.6244L48.9782 28.3365L48.9752 28.3264L48.9719 28.3163L48.0205 28.6244ZM47.5115 26.5122L48.493 26.3208L48.3241 25.4544L47.4433 25.5145L47.5115 26.5122ZM47.4696 26.515L47.4014 25.5174L46.7341 25.5629L46.5214 26.1971L47.4696 26.515ZM46.4981 28.7284L45.6051 28.2784L45.6027 28.2832L46.4981 28.7284ZM40.407 35.4666L46.0849 25.1157L44.3314 24.1538L38.6535 34.5047L40.407 35.4666ZM45.2763 25.6324L49.9135 25.3158L49.7773 23.3204L45.1401 23.6371L45.2763 25.6324ZM48.9058 24.6603L52.4463 34.3817L54.3256 33.6972L50.785 23.9759L48.9058 24.6603ZM53.3178 33.0418L49.6723 33.2907L49.8086 35.2861L53.4541 35.0371L53.3178 33.0418ZM50.6975 33.9987L50.1358 32.1427L48.2215 32.722L48.7833 34.5781L50.6975 33.9987ZM49.1105 31.4347L44.4454 31.7532L44.5817 33.7486L49.2468 33.43L49.1105 31.4347ZM43.618 32.3058L42.6434 34.2668L44.4344 35.157L45.409 33.196L43.618 32.3058ZM43.4707 33.7142L39.4621 33.988L39.5983 35.9833L43.607 35.7096L43.4707 33.7142ZM45.6779 31.5127L48.5971 31.3134L48.4608 29.318L45.5416 29.5174L45.6779 31.5127ZM49.4866 30.0278L48.9782 28.3365L47.0629 28.9123L47.5713 30.6036L49.4866 30.0278ZM48.9719 28.3163C48.7441 27.6128 48.6235 26.9904 48.493 26.3208L46.5299 26.7035C46.6586 27.3634 46.7991 28.0984 47.0692 28.9325L48.9719 28.3163ZM47.4433 25.5145L47.4014 25.5174L47.5377 27.5127L47.5796 27.5099L47.4433 25.5145ZM46.5214 26.1971C46.3234 26.7877 45.9953 27.5039 45.6051 28.2784L47.3911 29.1784C47.7917 28.3834 48.1727 27.5636 48.4177 26.8329L46.5214 26.1971ZM45.6027 28.2832L44.7143 30.0698L46.5052 30.9603L47.3935 29.1736L45.6027 28.2832ZM54.4049 33.9699L53.4105 33.864L53.2844 35.0487L54.473 34.9675L54.4049 33.9699ZM55.4736 23.9337L55.4055 22.9361L54.5681 22.9932L54.4793 23.8278L55.4736 23.9337ZM64.1167 29.6722L63.7984 28.7242L62.6498 29.1098L63.2462 30.1645L64.1167 29.6722ZM66.0957 33.1715L66.1638 34.1692L67.7476 34.0611L66.9661 32.6793L66.0957 33.1715ZM62.1568 33.4405L61.2828 33.9264L61.5914 34.4814L62.225 34.4382L62.1568 33.4405ZM60.4131 30.304L61.2871 29.8181L60.9785 29.2631L60.345 29.3063L60.4131 30.304ZM58.332 30.4461L58.2638 29.4485L57.427 29.5056L57.3376 30.3396L58.332 30.4461ZM57.9806 33.7257L58.0487 34.7234L58.8855 34.6662L58.9749 33.8322L57.9806 33.7257ZM58.5641 28.2973L57.5699 28.1896L57.4414 29.3763L58.6322 29.295L58.5641 28.2973ZM58.8137 25.993L58.7456 24.9953L57.9097 25.0524L57.8195 25.8853L58.8137 25.993ZM55.3993 34.0758L56.468 24.0396L54.4793 23.8278L53.4105 33.864L55.3993 34.0758ZM55.5418 24.9314L62.316 24.4688L62.1797 22.4735L55.4055 22.9361L55.5418 24.9314ZM62.316 24.4688C63.29 24.4023 64.0909 24.5231 64.6279 24.8165C65.0938 25.0711 65.4389 25.4915 65.4957 26.3225L67.491 26.1862C67.3894 24.6987 66.6733 23.655 65.5869 23.0614C64.5714 22.5065 63.3287 22.395 62.1797 22.4735L62.316 24.4688ZM65.4957 26.3225C65.5269 26.7806 65.4662 27.2506 65.2455 27.652C65.0378 28.0298 64.6369 28.4427 63.7984 28.7242L64.4349 30.6202C65.6953 30.1971 66.5224 29.4808 66.998 28.6156C67.4607 27.7741 67.5389 26.8875 67.491 26.1862L65.4957 26.3225ZM63.2462 30.1645L65.2252 33.6638L66.9661 32.6793L64.9871 29.18L63.2462 30.1645ZM66.0275 32.1739L62.0887 32.4428L62.225 34.4382L66.1638 34.1692L66.0275 32.1739ZM63.0309 32.9546L61.2871 29.8181L59.5391 30.7899L61.2828 33.9264L63.0309 32.9546ZM60.345 29.3063L58.2638 29.4485L58.4001 31.4438L60.4812 31.3017L60.345 29.3063ZM57.3376 30.3396L56.9863 33.6192L58.9749 33.8322L59.3263 30.5527L57.3376 30.3396ZM57.9124 32.728L54.3368 32.9722L54.473 34.9675L58.0487 34.7234L57.9124 32.728ZM58.6322 29.295L61.3559 29.109L61.2196 27.1137L58.496 27.2996L58.6322 29.295ZM61.3559 29.109C62.1248 29.0565 62.7744 28.7887 63.2081 28.2721C63.632 27.7673 63.7273 27.17 63.6951 26.698L61.6997 26.8343C61.7075 26.949 61.6776 26.9847 61.6765 26.986C61.6747 26.9882 61.6573 27.0095 61.5977 27.0359C61.5344 27.064 61.4168 27.1002 61.2196 27.1137L61.3559 29.109ZM63.6951 26.698C63.6495 26.031 63.342 25.4731 62.8022 25.1373C62.3183 24.8363 61.7675 24.7889 61.3295 24.8188L61.4658 26.8142C61.5653 26.8074 61.6406 26.8126 61.692 26.8219C61.7433 26.8312 61.7558 26.8417 61.7459 26.8356C61.7308 26.8262 61.7091 26.8062 61.695 26.7813C61.6825 26.7594 61.6951 26.7672 61.6997 26.8343L63.6951 26.698ZM61.3295 24.8188L58.7456 24.9953L58.8818 26.9906L61.4658 26.8142L61.3295 24.8188ZM57.8195 25.8853L57.5699 28.1896L59.5583 28.405L59.8079 26.1006L57.8195 25.8853ZM67.3188 33.088L66.3244 32.9821L66.1983 34.1669L67.3869 34.0857L67.3188 33.088ZM68.3875 23.0519L68.3194 22.0542L67.482 22.1114L67.3932 22.946L68.3875 23.0519ZM71.9911 22.8058L72.7771 22.1875L72.4504 21.7721L71.923 21.8081L71.9911 22.8058ZM75.4794 27.2404L74.6933 27.8587L74.7011 27.8684L75.4794 27.2404ZM76.3849 28.5819L75.5037 29.0546L75.8089 29.6235L76.453 29.5795L76.3849 28.5819ZM76.4268 28.579L76.4949 29.5767L77.3446 29.5187L77.4226 28.6706L76.4268 28.579ZM76.5879 26.828L75.5937 26.7202L75.5928 26.7283L75.5921 26.7364L76.5879 26.828ZM77.0613 22.4596L76.9932 21.4619L76.1574 21.519L76.0672 22.3518L77.0613 22.4596ZM80.2878 22.2392L81.2822 22.3451L81.4084 21.1604L80.2197 21.2416L80.2878 22.2392ZM79.2191 32.2754L79.2872 33.273L80.1246 33.2159L80.2135 32.3813L79.2191 32.2754ZM75.839 32.5062L75.066 33.1407L75.393 33.539L75.9071 33.5039L75.839 32.5062ZM72.1196 27.9751L72.8926 27.3406L72.8903 27.3379L72.1196 27.9751ZM71.2189 26.7035L72.1047 26.2393L71.8018 25.6613L71.1508 25.7058L71.2189 26.7035ZM71.177 26.7063L71.1089 25.7086L70.2564 25.7669L70.1809 26.618L71.177 26.7063ZM71.0159 28.4574L70.0232 28.3366L70.0222 28.3455L70.0212 28.3544L71.0159 28.4574ZM70.5593 32.8667L70.6274 33.8644L71.4672 33.807L71.5539 32.9697L70.5593 32.8667ZM68.3132 33.1939L69.3819 23.1578L67.3932 22.946L66.3244 32.9821L68.3132 33.1939ZM68.4557 24.0496L72.0593 23.8035L71.923 21.8081L68.3194 22.0542L68.4557 24.0496ZM71.2052 23.424L74.6934 27.8587L76.2654 26.6222L72.7771 22.1875L71.2052 23.424ZM74.7011 27.8684C75.1948 28.4802 75.3049 28.6841 75.5037 29.0546L77.2661 28.1092C77.0146 27.6403 76.8371 27.3307 76.2576 26.6125L74.7011 27.8684ZM76.453 29.5795L76.4949 29.5767L76.3587 27.5813L76.3168 27.5842L76.453 29.5795ZM77.4226 28.6706L77.5837 26.9196L75.5921 26.7364L75.431 28.4874L77.4226 28.6706ZM77.582 26.9357L78.0555 22.5673L76.0672 22.3518L75.5937 26.7202L77.582 26.9357ZM77.1295 23.4572L80.356 23.2369L80.2197 21.2416L76.9932 21.4619L77.1295 23.4572ZM79.2934 22.1333L78.2247 32.1695L80.2135 32.3813L81.2822 22.3451L79.2934 22.1333ZM79.151 31.2777L75.7708 31.5085L75.9071 33.5039L79.2872 33.273L79.151 31.2777ZM76.6119 31.8717L72.8926 27.3406L71.3467 28.6095L75.066 33.1407L76.6119 31.8717ZM72.8903 27.3379C72.477 26.838 72.2339 26.486 72.1047 26.2393L70.3332 27.1676C70.5588 27.5983 70.9056 28.0761 71.3489 28.6122L72.8903 27.3379ZM71.1508 25.7058L71.1089 25.7086L71.2451 27.704L71.287 27.7011L71.1508 25.7058ZM70.1809 26.618C70.1303 27.1887 70.1016 27.6924 70.0232 28.3366L72.0086 28.5781C72.092 27.8922 72.1286 27.297 72.1731 26.7946L70.1809 26.618ZM70.0212 28.3544L69.5646 32.7637L71.5539 32.9697L72.0106 28.5604L70.0212 28.3544ZM70.4911 31.869L67.2507 32.0903L67.3869 34.0857L70.6274 33.8644L70.4911 31.869ZM84.845 31.8912L84.9132 32.8889L85.7505 32.8317L85.8394 31.9971L84.845 31.8912ZM81.2694 32.1354L80.275 32.0295L80.1488 33.2142L81.3375 33.133L81.2694 32.1354ZM82.3381 22.0992L82.27 21.1015L81.4326 21.1587L81.3437 21.9933L82.3381 22.0992ZM85.9138 21.855L86.9082 21.9609L87.0343 20.7762L85.8456 20.8574L85.9138 21.855ZM84.7769 30.8935L81.2012 31.1377L81.3375 33.133L84.9132 32.8889L84.7769 30.8935ZM82.2637 32.2412L83.3325 22.2051L81.3437 21.9933L80.275 32.0295L82.2637 32.2412ZM82.4062 23.0969L85.9819 22.8527L85.8456 20.8574L82.27 21.1015L82.4062 23.0969ZM84.9194 21.7492L83.8507 31.7853L85.8394 31.9971L86.9082 21.9609L84.9194 21.7492ZM86.8858 31.7518L85.8914 31.6459L85.7653 32.8307L86.9539 32.7495L86.8858 31.7518ZM87.9545 21.7157L87.8864 20.718L87.049 20.7752L86.9602 21.6098L87.9545 21.7157ZM91.5582 21.4696L92.3441 20.8514L92.0174 20.4359L91.49 20.4719L91.5582 21.4696ZM95.0464 25.9043L94.2603 26.5226L94.2681 26.5322L95.0464 25.9043ZM95.9519 27.2457L95.0707 27.7184L95.3759 28.2874L96.02 28.2434L95.9519 27.2457ZM95.9938 27.2428L96.0619 28.2405L96.9116 28.1825L96.9896 27.3344L95.9938 27.2428ZM96.1549 25.4918L95.1607 25.384L95.1598 25.3921L95.1591 25.4002L96.1549 25.4918ZM96.6283 21.1234L96.5602 20.1257L95.7244 20.1828L95.6342 21.0156L96.6283 21.1234ZM99.8548 20.903L100.849 21.0089L100.975 19.8242L99.7867 19.9054L99.8548 20.903ZM98.7861 30.9392L98.8542 31.9369L99.6916 31.8797L99.7805 31.0451L98.7861 30.9392ZM95.406 31.17L94.633 31.8045L94.96 32.2028L95.4741 32.1677L95.406 31.17ZM91.6866 26.6389L92.4596 26.0044L92.4573 26.0017L91.6866 26.6389ZM90.7859 25.3673L91.6717 24.9031L91.3688 24.3251L90.7178 24.3696L90.7859 25.3673ZM90.744 25.3701L90.6759 24.3725L89.8234 24.4307L89.7479 25.2818L90.744 25.3701ZM90.5829 27.1212L89.5902 27.0005L89.5892 27.0093L89.5882 27.0182L90.5829 27.1212ZM90.1263 31.5305L90.1944 32.5282L91.0342 32.4709L91.1209 31.6336L90.1263 31.5305ZM87.8802 31.8577L88.9489 21.8216L86.9602 21.6098L85.8914 31.6459L87.8802 31.8577ZM88.0227 22.7134L91.6263 22.4673L91.49 20.4719L87.8864 20.718L88.0227 22.7134ZM90.7722 22.0879L94.2604 26.5225L95.8324 25.286L92.3441 20.8514L90.7722 22.0879ZM94.2681 26.5322C94.7618 27.144 94.8719 27.348 95.0707 27.7184L96.8331 26.773C96.5816 26.3041 96.4041 25.9945 95.8246 25.2763L94.2681 26.5322ZM96.02 28.2434L96.0619 28.2405L95.9257 26.2451L95.8838 26.248L96.02 28.2434ZM96.9896 27.3344L97.1507 25.5834L95.1591 25.4002L94.998 27.1512L96.9896 27.3344ZM97.149 25.5995L97.6225 21.2311L95.6342 21.0156L95.1607 25.384L97.149 25.5995ZM96.6965 22.1211L99.923 21.9007L99.7867 19.9054L96.5602 20.1257L96.6965 22.1211ZM98.8604 20.7972L97.7917 30.8333L99.7805 31.0451L100.849 21.0089L98.8604 20.7972ZM98.718 29.9415L95.3378 30.1723L95.4741 32.1677L98.8542 31.9369L98.718 29.9415ZM96.1789 30.5355L92.4596 26.0044L90.9137 27.2733L94.633 31.8045L96.1789 30.5355ZM92.4573 26.0017C92.044 25.5018 91.8009 25.1498 91.6717 24.9031L89.9002 25.8314C90.1258 26.2621 90.4726 26.7399 90.9159 27.2761L92.4573 26.0017ZM90.7178 24.3696L90.6759 24.3725L90.8121 26.3678L90.854 26.365L90.7178 24.3696ZM89.7479 25.2818C89.6973 25.8525 89.6686 26.3562 89.5902 27.0005L91.5756 27.2419C91.659 26.5561 91.6956 25.9608 91.7401 25.4584L89.7479 25.2818ZM89.5882 27.0182L89.1316 31.4275L91.1209 31.6336L91.5776 27.2242L89.5882 27.0182ZM90.0581 30.5329L86.8177 30.7541L86.9539 32.7495L90.1944 32.5282L90.0581 30.5329ZM113.641 22.8804L113.867 23.8544L114.9 23.614L114.6 22.5968L113.641 22.8804ZM109.801 23.7741L108.847 24.0761L109.127 24.9577L110.027 24.7481L109.801 23.7741ZM109.892 26.5464L109.138 25.8891L108.961 26.0919L108.91 26.3561L109.892 26.5464ZM109.905 26.5314L110.658 27.1887L112.245 25.3693L109.837 25.5338L109.905 26.5314ZM106.636 26.7546L105.642 26.6502L105.518 27.8334L106.704 27.7523L106.636 26.7546ZM106.857 24.6487L106.789 23.651L105.951 23.7083L105.863 24.5443L106.857 24.6487ZM113.464 24.1975L114.458 24.3034L114.584 23.1187L113.396 23.1998L113.464 24.1975ZM112.848 29.9789L112.917 30.9766L113.754 30.9194L113.843 30.0848L112.848 29.9789ZM110.139 30.1639L109.139 30.1392L109.112 31.2364L110.207 31.1616L110.139 30.1639ZM110.18 28.5053L111.179 28.53L109.255 28.1253L110.18 28.5053ZM105.861 29.7905C104.515 29.8824 103.467 29.621 102.759 29.1139C102.081 28.6286 101.594 27.834 101.508 26.5716L99.5126 26.7079C99.6333 28.4764 100.362 29.8581 101.595 30.7403C102.797 31.6007 104.355 31.898 105.998 31.7858L105.861 29.7905ZM101.508 26.5716C101.426 25.3658 101.731 24.0805 102.572 23.0686C103.4 22.073 104.841 21.2281 107.258 21.063L107.122 19.0677C104.273 19.2622 102.278 20.2937 101.034 21.7901C99.8038 23.2701 99.4022 25.0922 99.5126 26.7079L101.508 26.5716ZM107.258 21.063C108.658 20.9675 109.952 21.1264 110.933 21.5156C111.907 21.9024 112.477 22.4703 112.682 23.164L114.6 22.5968C114.166 21.1311 113.011 20.1888 111.671 19.6567C110.336 19.127 108.725 18.9582 107.122 19.0677L107.258 21.063ZM113.414 21.9065L109.574 22.8002L110.027 24.7481L113.867 23.8544L113.414 21.9065ZM110.754 23.4721C110.484 22.6189 109.862 22.1049 109.181 21.8395C108.533 21.5867 107.812 21.5464 107.182 21.5895L107.318 23.5848C107.791 23.5525 108.185 23.5976 108.455 23.7029C108.693 23.7958 108.796 23.913 108.847 24.0761L110.754 23.4721ZM107.182 21.5895C105.817 21.6827 104.757 22.2056 104.077 23.0855C103.414 23.9432 103.213 25.0094 103.282 26.0154L105.277 25.8792C105.232 25.209 105.378 24.6729 105.659 24.3084C105.924 23.9662 106.406 23.6471 107.318 23.5848L107.182 21.5895ZM103.282 26.0154C103.358 27.1255 103.759 28.0523 104.567 28.6467C105.341 29.2164 106.316 29.3505 107.272 29.2852L107.136 27.2898C106.416 27.339 105.99 27.2109 105.753 27.0358C105.548 26.8854 105.326 26.5849 105.277 25.8792L103.282 26.0154ZM107.272 29.2852C109.092 29.1609 110.574 28.2803 110.873 26.7366L108.91 26.3561C108.856 26.6326 108.501 27.1966 107.136 27.2898L107.272 29.2852ZM110.645 27.2036L110.658 27.1887L109.151 25.8742L109.138 25.8891L110.645 27.2036ZM109.837 25.5338L106.568 25.757L106.704 27.7523L109.973 27.5291L109.837 25.5338ZM107.631 26.859L107.852 24.7531L105.863 24.5443L105.642 26.6502L107.631 26.859ZM106.925 25.6464L113.532 25.1952L113.396 23.1998L106.789 23.651L106.925 25.6464ZM112.47 24.0917L111.854 29.873L113.843 30.0848L114.458 24.3034L112.47 24.0917ZM112.78 28.9812L110.071 29.1663L110.207 31.1616L112.917 30.9766L112.78 28.9812ZM111.138 30.1887L111.179 28.53L109.18 28.4805L109.139 30.1392L111.138 30.1887ZM109.255 28.1253C109.024 28.6867 108.105 29.6373 105.861 29.7905L105.998 31.7858C108.727 31.5995 110.493 30.374 111.105 28.8853L109.255 28.1253ZM126.241 28.3988C124.722 28.5025 123.264 28.3205 122.199 27.7797C121.196 27.2709 120.514 26.4409 120.418 25.0417L118.423 25.178C118.571 27.3405 119.719 28.764 121.293 29.5631C122.805 30.3303 124.669 30.5108 126.377 30.3942L126.241 28.3988ZM120.418 25.0417C120.347 23.9998 120.597 22.7776 121.403 21.7878C122.192 20.8186 123.619 19.9458 126.157 19.7725L126.02 17.7772C123.055 17.9797 121.063 19.0382 119.852 20.5246C118.658 21.9903 118.325 23.7476 118.423 25.178L120.418 25.0417ZM126.157 19.7725C127.675 19.6688 129.129 19.8511 130.19 20.3915C131.189 20.8997 131.869 21.7295 131.965 23.1306L133.96 22.9943C133.813 20.8337 132.67 19.4095 131.098 18.6093C129.59 17.8412 127.728 17.6605 126.02 17.7772L126.157 19.7725ZM131.965 23.1306C132.036 24.1745 131.789 25.3966 130.986 26.3853C130.201 27.3531 128.778 28.2256 126.241 28.3988L126.377 30.3942C129.342 30.1917 131.331 29.1333 132.539 27.646C133.729 26.1797 134.058 24.4227 133.96 22.9943L131.965 23.1306ZM122.213 24.7928C122.291 25.9253 122.826 26.7671 123.634 27.272C124.394 27.7476 125.306 27.8713 126.117 27.8159L125.98 25.8206C125.436 25.8577 124.986 25.7587 124.694 25.5764C124.45 25.4234 124.244 25.1723 124.209 24.6566L122.213 24.7928ZM126.117 27.8159C127.588 27.7154 128.684 27.142 129.376 26.2425C130.048 25.3682 130.247 24.3041 130.183 23.3646L128.187 23.5008C128.227 24.0838 128.094 24.628 127.79 25.0236C127.505 25.3941 126.981 25.7523 125.98 25.8206L126.117 27.8159ZM130.183 23.3646C130.106 22.2359 129.568 21.398 128.761 20.8963C128.002 20.4238 127.092 20.3 126.281 20.3554L126.417 22.3508C126.961 22.3136 127.413 22.4125 127.705 22.5944C127.95 22.7471 128.153 22.9953 128.187 23.5008L130.183 23.3646ZM126.281 20.3554C124.809 20.4559 123.714 21.0292 123.022 21.9259C122.35 22.7978 122.15 23.8584 122.213 24.7928L124.209 24.6566C124.17 24.0825 124.302 23.5417 124.606 23.1471C124.891 22.7773 125.416 22.4191 126.417 22.3508L126.281 20.3554ZM137.207 28.3155L137.275 29.3132L138.112 29.256L138.201 28.4218L137.207 28.3155ZM133.631 28.5597L132.637 28.4538L132.51 29.6385L133.699 29.5574L133.631 28.5597ZM134.7 18.5236L134.632 17.5259L133.794 17.5831L133.705 18.4177L134.7 18.5236ZM145.064 17.8158L146.059 17.9154L146.176 16.7375L144.995 16.8182L145.064 17.8158ZM144.813 20.3167L144.882 21.3144L145.724 21.2568L145.808 20.4162L144.813 20.3167ZM138.011 20.7812L137.943 19.7835L137.108 19.8405L137.017 20.6722L138.011 20.7812ZM137.847 22.2799L136.853 22.1709L136.723 23.359L137.915 23.2776L137.847 22.2799ZM144.398 21.8325L145.393 21.9312L145.51 20.7543L144.33 20.8349L144.398 21.8325ZM144.157 24.2626L144.225 25.2603L145.068 25.2027L145.152 24.3613L144.157 24.2626ZM137.592 24.7109L137.524 23.7132L136.687 23.7704L136.598 24.6046L137.592 24.7109ZM137.139 27.3178L133.563 27.562L133.699 29.5574L137.275 29.3132L137.139 27.3178ZM134.625 28.6656L135.694 18.6295L133.705 18.4177L132.637 28.4538L134.625 28.6656ZM134.768 19.5212L145.132 18.8135L144.995 16.8182L134.632 17.5259L134.768 19.5212ZM144.069 17.7163L143.818 20.2171L145.808 20.4162L146.059 17.9154L144.069 17.7163ZM144.745 19.319L137.943 19.7835L138.079 21.7789L144.882 21.3144L144.745 19.319ZM137.017 20.6722L136.853 22.1709L138.841 22.3888L139.005 20.8902L137.017 20.6722ZM137.915 23.2776L144.466 22.8302L144.33 20.8349L137.779 21.2822L137.915 23.2776ZM143.403 21.7339L143.162 24.1639L145.152 24.3613L145.393 21.9312L143.403 21.7339ZM144.089 23.2649L137.524 23.7132L137.66 25.7086L144.225 25.2603L144.089 23.2649ZM136.598 24.6046L136.212 28.2092L138.201 28.4218L138.586 24.8172L136.598 24.6046ZM148.934 27.5147L149.002 28.5124L149.839 28.4552L149.928 27.621L148.934 27.5147ZM145.358 27.7589L144.364 27.653L144.238 28.8377L145.426 28.7565L145.358 27.7589ZM146.427 17.7227L146.359 16.7251L145.521 16.7822L145.433 17.6169L146.427 17.7227ZM156.791 17.015L157.786 17.1146L157.904 15.9367L156.723 16.0173L156.791 17.015ZM156.541 19.5159L156.609 20.5135L157.452 20.456L157.536 19.6154L156.541 19.5159ZM149.738 19.9804L149.67 18.9827L148.836 19.0397L148.744 19.8714L149.738 19.9804ZM149.574 21.4791L148.58 21.3701L148.45 22.5582L149.642 22.4767L149.574 21.4791ZM156.125 21.0317L157.12 21.1304L157.237 19.9535L156.057 20.034L156.125 21.0317ZM155.884 23.4618L155.952 24.4595L156.796 24.4019L156.879 23.5605L155.884 23.4618ZM149.319 23.9101L149.251 22.9124L148.414 22.9696L148.325 23.8038L149.319 23.9101ZM148.866 26.517L145.29 26.7612L145.426 28.7565L149.002 28.5124L148.866 26.517ZM146.353 27.8648L147.421 17.8286L145.433 17.6169L144.364 27.653L146.353 27.8648ZM146.495 18.7204L156.859 18.0127L156.723 16.0173L146.359 16.7251L146.495 18.7204ZM155.796 16.9155L155.546 19.4163L157.536 19.6154L157.786 17.1146L155.796 16.9155ZM156.473 18.5182L149.67 18.9827L149.807 20.9781L156.609 20.5135L156.473 18.5182ZM148.744 19.8714L148.58 21.3701L150.568 21.588L150.733 20.0893L148.744 19.8714ZM149.642 22.4767L156.193 22.0294L156.057 20.034L149.506 20.4814L149.642 22.4767ZM155.13 20.933L154.889 23.3631L156.879 23.5605L157.12 21.1304L155.13 20.933ZM155.816 22.4641L149.251 22.9124L149.387 24.9077L155.952 24.4595L155.816 22.4641ZM148.325 23.8038L147.94 27.4084L149.928 27.621L150.314 24.0164L148.325 23.8038ZM160.661 26.7139L160.729 27.7115L161.567 27.6544L161.656 26.8198L160.661 26.7139ZM157.085 26.958L156.091 26.8522L155.965 28.0369L157.154 27.9557L157.085 26.958ZM158.154 16.9219L158.086 15.9242L157.249 15.9814L157.16 16.816L158.154 16.9219ZM161.73 16.6777L162.724 16.7836L162.85 15.5989L161.662 15.6801L161.73 16.6777ZM160.593 25.7162L157.017 25.9604L157.154 27.9557L160.729 27.7115L160.593 25.7162ZM158.08 27.0639L159.149 17.0278L157.16 16.816L156.091 26.8522L158.08 27.0639ZM158.222 17.9196L161.798 17.6754L161.662 15.6801L158.086 15.9242L158.222 17.9196ZM160.735 16.5719L159.667 26.608L161.656 26.8198L162.724 16.7836L160.735 16.5719ZM175.734 19.1173L175.981 20.0864L177.013 19.8237L176.686 18.8105L175.734 19.1173ZM171.969 20.0761L171.05 20.4704L171.387 21.2561L172.215 21.0452L171.969 20.0761ZM171.782 21.857L171.939 20.8694L171.093 20.7346L170.83 21.5497L171.782 21.857ZM175.357 22.4267L176.287 22.7939L176.744 21.6352L175.514 21.4392L175.357 22.4267ZM168.998 25.479C167.391 25.5887 166.009 25.3401 165.038 24.7675C164.118 24.2249 163.498 23.3561 163.405 21.98L161.409 22.1162C161.548 24.1482 162.533 25.6114 164.022 26.4901C165.46 27.3386 167.291 27.6003 169.134 27.4744L168.998 25.479ZM163.405 21.98C163.323 20.7914 163.673 19.6064 164.539 18.6798C165.405 17.7541 166.876 16.9919 169.207 16.8327L169.071 14.8373C166.36 15.0224 164.367 15.9351 163.078 17.314C161.79 18.6921 161.295 20.4414 161.409 22.1162L163.405 21.98ZM169.207 16.8327C172.139 16.6325 174.198 17.6105 174.782 19.4241L176.686 18.8105C175.668 15.6537 172.313 14.6159 169.071 14.8373L169.207 16.8327ZM175.487 18.1482L171.722 19.107L172.215 21.0452L175.981 20.0864L175.487 18.1482ZM172.888 19.6818C172.525 18.8361 171.978 18.2277 171.265 17.8678C170.574 17.5189 169.824 17.4521 169.127 17.4997L169.263 19.4951C169.753 19.4616 170.106 19.523 170.363 19.653C170.599 19.7721 170.845 19.9936 171.05 20.4704L172.888 19.6818ZM169.127 17.4997C167.661 17.5998 166.598 18.1566 165.941 19.0308C165.307 19.8751 165.156 20.8784 165.212 21.7022L167.207 21.5659C167.173 21.0628 167.278 20.5822 167.541 20.2321C167.781 19.9119 168.256 19.5638 169.263 19.4951L169.127 17.4997ZM165.212 21.7022C165.295 22.9208 165.829 23.8018 166.678 24.3093C167.461 24.7772 168.378 24.8458 169.12 24.7951L168.983 22.7998C168.426 22.8378 167.986 22.7606 167.704 22.5925C167.489 22.4641 167.252 22.219 167.207 21.5659L165.212 21.7022ZM169.12 24.7951C170.097 24.7284 170.902 24.4407 171.527 23.9469C172.152 23.4538 172.524 22.8132 172.733 22.1642L170.83 21.5497C170.715 21.9052 170.539 22.179 170.288 22.3772C170.038 22.5746 169.64 22.7549 168.983 22.7998L169.12 24.7951ZM171.624 22.8445L175.199 23.4143L175.514 21.4392L171.939 20.8694L171.624 22.8445ZM174.427 22.0595C173.653 24.0186 171.914 25.2799 168.998 25.479L169.134 27.4744C172.643 27.2348 175.17 25.6227 176.287 22.7939L174.427 22.0595ZM180.102 22.9727L179.107 22.8654L178.979 24.0517L180.17 23.9704L180.102 22.9727ZM186.987 22.5025L187.981 22.6124L188.113 21.4233L186.919 21.5048L186.987 22.5025ZM186.719 24.9345L186.787 25.9321L187.621 25.8752L187.712 25.0444L186.719 24.9345ZM176.257 25.6489L175.263 25.543L175.136 26.7277L176.325 26.6465L176.257 25.6489ZM177.326 15.6127L177.257 14.6151L176.42 14.6722L176.331 15.5069L177.326 15.6127ZM187.689 14.905L188.685 15.0037L188.801 13.8268L187.621 13.9073L187.689 14.905ZM187.448 17.3351L187.517 18.3328L188.36 18.2752L188.444 17.4338L187.448 17.3351ZM180.646 17.7996L180.578 16.8019L179.743 16.859L179.652 17.6916L180.646 17.7996ZM180.491 19.2275L179.497 19.1195L179.368 20.3065L180.559 20.2251L180.491 19.2275ZM187.042 18.7801L188.037 18.881L188.156 17.7017L186.974 17.7825L187.042 18.7801ZM186.816 21.0127L186.884 22.0104L187.725 21.953L187.81 21.1136L186.816 21.0127ZM180.265 21.4601L180.197 20.4624L179.361 20.5195L179.271 21.3527L180.265 21.4601ZM180.17 23.9704L187.056 23.5002L186.919 21.5048L180.033 21.975L180.17 23.9704ZM185.994 22.3926L185.725 24.8246L187.712 25.0444L187.981 22.6124L185.994 22.3926ZM186.65 23.9368L176.189 24.6512L176.325 26.6465L186.787 25.9321L186.65 23.9368ZM177.251 25.7548L178.32 15.7186L176.331 15.5069L175.263 25.543L177.251 25.7548ZM177.394 16.6104L187.758 15.9027L187.621 13.9073L177.257 14.6151L177.394 16.6104ZM186.694 14.8063L186.453 17.2364L188.444 17.4338L188.685 15.0037L186.694 14.8063ZM187.38 16.3374L180.578 16.8019L180.714 18.7973L187.517 18.3328L187.38 16.3374ZM179.652 17.6916L179.497 19.1195L181.485 19.3354L181.64 17.9076L179.652 17.6916ZM180.559 20.2251L187.11 19.7778L186.974 17.7825L180.423 18.2298L180.559 20.2251ZM186.047 18.6792L185.821 20.9119L187.81 21.1136L188.037 18.881L186.047 18.6792ZM186.747 20.0151L180.197 20.4624L180.333 22.4578L186.884 22.0104L186.747 20.0151ZM179.271 21.3527L179.107 22.8654L181.096 23.0801L181.259 21.5674L179.271 21.3527ZM188.421 24.8182L187.426 24.7124L187.3 25.8971L188.489 25.8159L188.421 24.8182ZM189.489 14.7821L189.421 13.7844L188.584 13.8416L188.495 14.6762L189.489 14.7821ZM198.132 20.5206L197.814 19.5726L196.665 19.9582L197.262 21.0129L198.132 20.5206ZM200.111 24.0199L200.179 25.0176L201.763 24.9094L200.982 23.5276L200.111 24.0199ZM196.173 24.2889L195.299 24.7748L195.607 25.3298L196.241 25.2866L196.173 24.2889ZM194.429 21.1524L195.303 20.6665L194.994 20.1115L194.361 20.1547L194.429 21.1524ZM192.348 21.2945L192.28 20.2968L191.443 20.354L191.353 21.188L192.348 21.2945ZM191.996 24.5741L192.064 25.5717L192.901 25.5146L192.991 24.6806L191.996 24.5741ZM192.58 19.1457L191.586 19.038L191.457 20.2247L192.648 20.1434L192.58 19.1457ZM192.829 16.8413L192.761 15.8437L191.925 15.9007L191.835 16.7337L192.829 16.8413ZM189.415 24.9241L190.484 14.888L188.495 14.6762L187.426 24.7124L189.415 24.9241ZM189.557 15.7798L196.332 15.3172L196.195 13.3218L189.421 13.7844L189.557 15.7798ZM196.332 15.3172C197.306 15.2507 198.107 15.3714 198.644 15.6648C199.11 15.9194 199.455 16.3398 199.511 17.1709L201.507 17.0346C201.405 15.5471 200.689 14.5033 199.603 13.9097C198.587 13.3549 197.344 13.2434 196.195 13.3218L196.332 15.3172ZM199.511 17.1709C199.543 17.6289 199.482 18.0989 199.261 18.5004C199.053 18.8782 198.653 19.2911 197.814 19.5726L198.451 21.4686C199.711 21.0455 200.538 20.3291 201.014 19.464C201.476 18.6225 201.555 17.7358 201.507 17.0346L199.511 17.1709ZM197.262 21.0129L199.241 24.5122L200.982 23.5276L199.003 20.0283L197.262 21.0129ZM200.043 23.0222L196.104 23.2912L196.241 25.2866L200.179 25.0176L200.043 23.0222ZM197.047 23.803L195.303 20.6665L193.555 21.6383L195.299 24.7748L197.047 23.803ZM194.361 20.1547L192.28 20.2968L192.416 22.2922L194.497 22.1501L194.361 20.1547ZM191.353 21.188L191.002 24.4675L192.991 24.6806L193.342 21.401L191.353 21.188ZM191.928 23.5764L188.352 23.8206L188.489 25.8159L192.064 25.5717L191.928 23.5764ZM192.648 20.1434L195.372 19.9574L195.235 17.962L192.512 18.148L192.648 20.1434ZM195.372 19.9574C196.14 19.9049 196.79 19.637 197.224 19.1205C197.648 18.6157 197.743 18.0184 197.711 17.5464L195.715 17.6827C195.723 17.7973 195.693 17.833 195.692 17.8344C195.69 17.8366 195.673 17.8579 195.613 17.8843C195.55 17.9124 195.433 17.9486 195.235 17.962L195.372 19.9574ZM197.711 17.5464C197.665 16.8794 197.358 16.3215 196.818 15.9857C196.334 15.6847 195.783 15.6373 195.345 15.6672L195.481 17.6626C195.581 17.6558 195.656 17.661 195.708 17.6703C195.759 17.6796 195.771 17.6901 195.762 17.684C195.747 17.6746 195.725 17.6546 195.711 17.6297C195.698 17.6077 195.711 17.6156 195.715 17.6827L197.711 17.5464ZM195.345 15.6672L192.761 15.8437L192.898 17.839L195.481 17.6626L195.345 15.6672ZM191.835 16.7337L191.586 19.038L193.574 19.2534L193.824 16.949L191.835 16.7337ZM199.896 22.3086L199.242 21.5524L198.446 22.2413L199.175 23.0009L199.896 22.3086ZM202.414 20.13L203.071 19.3764L202.416 18.8053L201.76 19.3738L202.414 20.13ZM207.693 19.966L207.637 20.9644L207.648 20.965L207.693 19.966ZM205.214 19.8265L205.27 18.8281L205.264 18.8278L205.214 19.8265ZM212.736 14.4997L213.449 15.2009L214.194 14.4439L213.394 13.746L212.736 14.4997ZM210.65 16.6207L209.998 17.3788L210.707 17.9889L211.363 17.322L210.65 16.6207ZM206.558 15.6793L206.471 14.6831L206.467 14.6835L206.558 15.6793ZM206.105 17.0574L206.049 18.0559L206.059 18.0563L206.105 17.0574ZM208.442 17.1644L208.494 16.1658L208.488 16.1655L208.442 17.1644ZM206.617 22.9101C203.624 23.1145 201.669 22.7118 200.618 21.6162L199.175 23.0009C200.904 24.8026 203.713 25.1131 206.753 24.9055L206.617 22.9101ZM200.551 23.0647L203.068 20.8862L201.76 19.3738L199.242 21.5524L200.551 23.0647ZM201.757 20.8836C203.258 22.1929 205.259 22.5518 206.908 22.4392L206.771 20.4439C205.459 20.5335 204.047 20.2273 203.071 19.3764L201.757 20.8836ZM206.908 22.4392C207.648 22.3887 208.301 22.2671 208.794 22.0065C209.052 21.87 209.309 21.6727 209.494 21.3858C209.687 21.0863 209.759 20.7533 209.737 20.4298L207.742 20.566C207.737 20.4939 207.755 20.3927 207.813 20.3023C207.863 20.2246 207.905 20.2139 207.859 20.2385C207.742 20.3001 207.428 20.399 206.771 20.4439L206.908 22.4392ZM209.737 20.4298C209.723 20.2169 209.666 19.9676 209.514 19.7285C209.359 19.4858 209.149 19.3223 208.937 19.2155C208.565 19.0276 208.119 18.984 207.738 18.9669L207.648 20.965C207.812 20.9722 207.922 20.9841 207.995 20.9969C208.071 21.0103 208.072 21.019 208.036 21.001C207.99 20.9775 207.9 20.9181 207.827 20.804C207.757 20.6935 207.744 20.5973 207.742 20.566L209.737 20.4298ZM207.749 18.9675L205.27 18.8281L205.158 20.825L207.637 20.9644L207.749 18.9675ZM205.264 18.8278C204.391 18.7835 203.64 18.617 203.123 18.3155C202.661 18.0461 202.378 17.6737 202.336 17.0482L200.34 17.1844C200.433 18.5422 201.145 19.4772 202.115 20.0431C203.031 20.577 204.15 20.7739 205.163 20.8253L205.264 18.8278ZM202.336 17.0482C202.299 16.5133 202.434 15.9493 202.963 15.4643C203.525 14.9489 204.652 14.4122 206.84 14.2628L206.704 12.2674C204.284 12.4327 202.64 13.0464 201.611 13.9903C200.549 14.9647 200.271 16.1689 200.34 17.1844L202.336 17.0482ZM206.84 14.2628C207.771 14.1992 208.807 14.187 209.767 14.3336C210.736 14.4816 211.534 14.7777 212.079 15.2533L213.394 13.746C212.447 12.9202 211.226 12.5332 210.069 12.3565C208.901 12.1782 207.701 12.1994 206.704 12.2674L206.84 14.2628ZM212.023 13.7984L209.937 15.9195L211.363 17.322L213.449 15.2009L212.023 13.7984ZM211.302 15.8627C209.861 14.6229 207.965 14.5519 206.471 14.6831L206.646 16.6755C208.025 16.5543 209.202 16.6944 209.998 17.3788L211.302 15.8627ZM206.467 14.6835C205.881 14.7374 205.296 14.8197 204.85 15.0321C204.605 15.1485 204.337 15.3332 204.147 15.6336C203.95 15.9441 203.899 16.2781 203.919 16.5752L205.915 16.4389C205.917 16.4706 205.914 16.5821 205.836 16.7046C205.765 16.8171 205.687 16.8485 205.709 16.8379C205.736 16.8252 205.816 16.7949 205.987 16.7616C206.153 16.7294 206.37 16.7009 206.65 16.6751L206.467 14.6835ZM203.919 16.5752C203.933 16.7802 203.987 17.0367 204.148 17.285C204.313 17.5376 204.536 17.6999 204.754 17.8032C205.132 17.9819 205.604 18.0308 206.049 18.0558L206.161 16.059C205.954 16.0473 205.81 16.032 205.709 16.015C205.604 15.9972 205.585 15.9838 205.61 15.9956C205.647 16.013 205.744 16.0699 205.824 16.1932C205.902 16.3123 205.913 16.4155 205.915 16.4389L203.919 16.5752ZM206.059 18.0563L208.396 18.1634L208.488 16.1655L206.151 16.0584L206.059 18.0563ZM208.39 18.1631C209.365 18.2136 210.125 18.3408 210.639 18.6152C211.062 18.8407 211.352 19.1753 211.401 19.8952L213.396 19.7589C213.299 18.3418 212.604 17.3966 211.581 16.8507C210.65 16.3538 209.504 16.2182 208.494 16.1658L208.39 18.1631ZM211.401 19.8952C211.441 20.4901 211.307 21.1015 210.757 21.6204C210.172 22.1714 208.983 22.7485 206.617 22.9101L206.753 24.9055C209.346 24.7284 211.069 24.0753 212.129 23.0756C213.223 22.0439 213.466 20.7843 213.396 19.7589L211.401 19.8952Z" fill="#1B1B1B" mask="url(#path-2-outside-1_286_3006)"/>
    </svg>
    