<svg width="318" height="63" viewBox="0 0 318 63" fill="none" xmlns="http://www.w3.org/2000/svg">
    <path
        d="M150.003 19.4766C156.585 19.4766 161.938 24.8078 161.938 31.3641C161.938 37.9204 156.585 43.2516 150.003 43.2516C143.42 43.2516 138.068 37.9204 138.068 31.3641C138.068 24.8078 143.42 19.4766 150.003 19.4766ZM150.003 15.0151C140.94 15.0151 133.589 22.3366 133.589 31.3641C133.589 40.3916 140.94 47.7132 150.003 47.7132C159.066 47.7132 166.417 40.3916 166.417 31.3641C166.417 22.3366 159.066 15.0151 150.003 15.0151Z"
        fill="#1B1B1B" />
    <path
        d="M110.831 33.6471V19.9951H118.727C122.505 19.9951 125.583 23.0558 125.583 26.8232C125.583 30.5905 122.51 33.6513 118.727 33.6513H110.831V33.6471ZM118.723 15.5336H106.033V47.1944H110.827V38.1127H118.723C124.982 38.1127 130.058 33.0575 130.058 26.8232C130.058 20.5888 124.982 15.5336 118.723 15.5336Z"
        fill="#1B1B1B" />
    <path
        d="M96.9817 15.5336L87.7461 31.4603L78.515 15.5336H73.0156L85.3491 36.8124V47.1944H90.1139V36.8667L102.481 15.5336H96.9817Z"
        fill="#1B1B1B" />
    <path
        d="M18.257 52.5007L12.17 42.0014H12.1784L12.1742 41.9931H12.17L12.1742 41.9889L0 62.9917H24.3357L18.257 52.5007Z"
        fill="#1B1B1B" />
    <path
        d="M60.8457 41.9972L60.8413 42.0014H60.8457L54.7627 52.4964H54.7671L48.6797 62.9957H73.0156L60.8457 41.9972Z"
        fill="#1B1B1B" />
    <path d="M36.5184 20.9986H48.6884L36.5184 0L24.3442 20.9986H36.5142H36.5184Z" fill="#1B1B1B" />
    <path d="M18.2576 52.4925H30.4191L24.3404 42.0057L18.2576 52.4925Z" fill="#1B1B1B" />
    <path d="M54.7584 52.4925L48.6754 42.0057L42.5969 52.4925H54.7584Z" fill="#1B1B1B" />
    <path d="M42.5886 31.4978L36.5057 21.0068L30.4229 31.4978H30.427H42.5886Z" fill="#1B1B1B" />
    <path d="M48.6759 63L42.5931 52.5051L36.5103 63H48.6759Z" fill="#1B1B1B" />
    <path d="M30.423 52.5051L24.3401 62.9961H36.5016H36.5058L30.423 52.5051Z" fill="#1B1B1B" />
    <path
        d="M24.3317 41.9972L18.253 31.502H18.2572V31.4979L12.1743 41.9888L12.1785 41.9972H24.3317Z"
        fill="#1B1B1B" />
    <path d="M54.7583 31.4979V31.502L48.6797 41.9972H60.8457L54.7627 31.4979H54.7583Z"
        fill="#1B1B1B" />
    <path d="M30.4191 31.4978L24.3363 21.0068L18.2576 31.4978H30.4191Z" fill="#1B1B1B" />
    <path d="M54.7584 31.4979H54.7628H54.7672L48.6798 20.9986L42.5928 31.4979H54.7584Z"
        fill="#1B1B1B" />
    <path
        d="M41.0563 41.9931H48.667L42.5843 31.5021L38.781 38.0668L36.5056 34.1405L34.2261 38.071L30.4186 31.5021L24.3357 41.9931H31.9508L29.6881 45.8983H34.2471L30.4228 52.4881H42.5843L38.7642 45.8983H43.319L41.0563 41.9931ZM36.5056 35.8214L41.8581 45.062H31.149L36.5056 35.8214Z"
        fill="#1B1B1B" />
    <path d="M187.457 15.6675H186.26V47.3325H187.457V15.6675Z" fill="#1B1B1B" />
    <path
        d="M208.748 22.5931L214.369 12.1047H216.964L222.585 22.5931H220.182L219.055 20.3772H212.277L211.15 22.5931H208.748ZM213.078 18.8114H218.254L216.267 14.9262C216.119 14.616 215.837 13.966 215.689 13.5524H215.644C215.496 13.966 215.214 14.616 215.066 14.9262L213.078 18.8114ZM224.378 22.5931V12.1047H227.729L231.259 19.4318C231.408 19.7863 231.541 20.1113 231.6 20.392H231.645C231.704 20.1113 231.853 19.7716 232.001 19.4318L235.56 12.1047H238.972V22.5931H236.94V15.0444C236.94 14.6012 236.954 14.0399 237.014 13.6706H236.954C236.88 13.8774 236.643 14.483 236.435 14.941L232.639 22.5931H230.518L226.795 14.941C226.602 14.483 226.439 13.9956 226.35 13.6706H226.276C226.335 14.0103 226.35 14.4978 226.35 15.0444V22.5931H224.378ZM244.316 20.9386H252.473V22.5931H242.091V12.1047H252.369V13.7592H244.316V16.4626H252.117V18.0284H244.316V20.9386ZM255.112 22.5931V12.1047H262.112C265.256 12.1047 266.161 13.8183 266.161 15.3103C266.161 16.4773 265.523 17.8659 263.61 18.3386L266.562 22.5931H263.996L261.237 18.6046H257.337V22.5931H255.112ZM257.337 17.0534H261.652C263.314 17.0534 263.818 16.1819 263.818 15.3398C263.818 14.5421 263.328 13.7001 261.652 13.7001H257.337V17.0534ZM270.936 22.5931H268.712V12.1047H270.936V22.5931ZM279.707 22.9476C275.51 22.9476 272.87 20.7466 272.87 17.3637C272.87 14.0399 275.673 11.7502 279.826 11.7502C283.208 11.7502 285.551 13.1978 286.233 15.6944L283.919 16.0342C283.43 14.3944 281.977 13.4933 279.767 13.4933C276.934 13.4933 275.199 14.9705 275.199 17.3489C275.199 19.6534 277.008 21.2045 279.811 21.2045C281.977 21.2045 283.386 20.392 283.964 18.8261L286.218 19.2693C285.328 21.6329 283.059 22.9476 279.707 22.9476ZM286.481 22.5931L292.102 12.1047H294.698L300.319 22.5931H297.916L296.789 20.3772H290.011L288.884 22.5931H286.481ZM290.812 18.8114H295.988L294.001 14.9262C293.852 14.616 293.571 13.966 293.422 13.5524H293.378C293.23 13.966 292.948 14.616 292.799 14.9262L290.812 18.8114ZM307.204 22.9476C303.778 22.9476 301.538 21.8397 300.633 19.7716L302.472 18.9C303.199 20.4216 304.801 21.2931 307.278 21.2931C309.532 21.2931 310.57 20.8056 310.57 19.7273C310.57 18.8409 309.947 18.4421 308.331 18.2943L305.009 17.9546C302.517 17.7034 301.33 16.7728 301.33 14.9558C301.33 12.9319 303.288 11.7502 306.759 11.7502C309.755 11.7502 311.727 12.6513 312.765 14.4535L311.06 15.4285C310.378 14.1137 308.969 13.3899 306.67 13.3899C304.668 13.3899 303.585 13.8922 303.585 14.8376C303.585 15.7092 304.134 16.0342 305.78 16.2114L308.88 16.5069C311.653 16.8023 312.84 17.6443 312.84 19.5204C312.84 21.7363 310.867 22.9476 307.204 22.9476ZM215.273 38.1545C211.358 38.1545 208.896 35.8796 208.896 32.6149C208.896 29.2911 211.58 26.9571 215.822 26.9571C219.115 26.9571 221.502 28.2866 222.155 30.3843L219.782 30.7979C219.352 29.5275 217.884 28.6411 215.733 28.6411C212.93 28.6411 211.195 30.207 211.195 32.6001C211.195 34.9342 212.945 36.5 215.748 36.5C218.418 36.5 220.079 35.2591 220.123 33.7228V33.6637H215.659V32.1274H222.17V37.8H220.464L220.331 35.9387C219.515 37.2091 217.824 38.1545 215.273 38.1545ZM222.497 37.8L228.118 27.3116H230.714L236.335 37.8H233.932L232.805 35.5841H226.027L224.9 37.8H222.497ZM226.828 34.0183H232.004L230.016 30.1331C229.868 29.8229 229.586 29.1729 229.438 28.7593H229.394C229.245 29.1729 228.963 29.8229 228.815 30.1331L226.828 34.0183ZM233.594 29.0843V27.3116H245.237V29.0843H240.535V37.8H238.311V29.0843H233.594ZM248.124 36.1455H256.281V37.8H245.899V27.3116H256.178V28.9661H248.124V31.6695H255.925V33.2353H248.124V36.1455ZM260.344 37.8L256.651 27.3116H258.935L261.427 34.9489C261.516 35.2591 261.635 35.5546 261.649 35.8205H261.694C261.738 35.5546 261.857 35.2296 261.976 34.9489L264.942 27.3116H267.226L270.192 34.9489C270.296 35.2296 270.415 35.5546 270.459 35.8205H270.504C270.533 35.5546 270.637 35.2591 270.726 34.9489L273.233 27.3116H275.517L271.824 37.8H269.213L266.336 30.3252C266.217 30.0149 266.128 29.7047 266.114 29.4831H266.039C266.039 29.7047 265.936 30.0149 265.817 30.3252L262.94 37.8H260.344ZM273.614 37.8L279.235 27.3116H281.831L287.452 37.8H285.049L283.922 35.5841H277.144L276.017 37.8H273.614ZM277.945 34.0183H283.121L281.134 30.1331C280.985 29.8229 280.704 29.1729 280.555 28.7593H280.511C280.363 29.1729 280.081 29.8229 279.932 30.1331L277.945 34.0183ZM289.979 37.8V34.1217L284.58 27.3116H287.191L290.809 31.9944C290.973 32.2308 291.076 32.3638 291.121 32.5263H291.151C291.195 32.3638 291.284 32.2308 291.462 31.9944L295.155 27.3116H297.676L292.218 34.1217V37.8H289.979ZM215.733 53.3614C211.536 53.3614 208.896 51.1603 208.896 47.7775C208.896 44.4537 211.699 42.1639 215.852 42.1639C219.233 42.1639 221.577 43.6116 222.259 46.1082L219.945 46.4479C219.456 44.8082 218.002 43.9071 215.792 43.9071C212.96 43.9071 211.224 45.3843 211.224 47.7627C211.224 50.0672 213.034 51.6183 215.837 51.6183C218.002 51.6183 219.411 50.8058 219.99 49.2399L222.244 49.6831C221.354 52.0467 219.085 53.3614 215.733 53.3614ZM236.185 42.5185V53.0069H233.945V48.4865H226.382V53.0069H224.157V42.5185H226.382V46.8468H233.945V42.5185H236.185ZM237.809 53.0069L243.43 42.5185H246.026L251.647 53.0069H249.244L248.117 50.791H241.339L240.212 53.0069H237.809ZM242.14 49.2252H247.316L245.329 45.34C245.181 45.0298 244.899 44.3798 244.75 43.9662H244.706C244.558 44.3798 244.276 45.0298 244.128 45.34L242.14 49.2252ZM255.515 53.0069H253.291V42.5185H260.247C262.798 42.5185 264.37 43.8037 264.37 45.9014C264.37 48.0434 262.664 49.4172 260.024 49.4172H255.515V53.0069ZM255.515 47.8218H259.742C261.181 47.8218 262.041 47.1127 262.041 45.9309C262.041 44.7934 261.211 44.1287 259.757 44.1287H255.515V47.8218ZM264.812 44.2912V42.5185H276.455V44.2912H271.753V53.0069H269.529V44.2912H264.812ZM280.232 51.3524H288.389V53.0069H278.007V42.5185H288.285V44.173H280.232V46.8763H288.033V48.4422H280.232V51.3524ZM290.88 53.0069V42.5185H297.88C301.025 42.5185 301.929 44.2321 301.929 45.7241C301.929 46.8911 301.292 48.2797 299.378 48.7524L302.33 53.0069H299.764L297.005 49.0183H293.105V53.0069H290.88ZM293.105 47.4672H297.421C299.082 47.4672 299.586 46.5957 299.586 45.7536C299.586 44.9559 299.097 44.1139 297.421 44.1139H293.105V47.4672Z"
        fill="#1B1B1B" />
</svg>