<svg width="255" height="50" viewBox="0 0 255 50" fill="none" xmlns="http://www.w3.org/2000/svg">
    <path
        d="M120.285 15.4579C125.563 15.4579 129.855 19.689 129.855 24.8924C129.855 30.0958 125.563 34.3269 120.285 34.3269C115.007 34.3269 110.715 30.0958 110.715 24.8924C110.715 19.689 115.007 15.4579 120.285 15.4579ZM120.285 11.917C113.017 11.917 107.123 17.7277 107.123 24.8924C107.123 32.057 113.017 37.8678 120.285 37.8678C127.553 37.8678 133.448 32.057 133.448 24.8924C133.448 17.7277 127.553 11.917 120.285 11.917Z"
        fill="white" />
    <path
        d="M88.8741 26.7039V15.869H95.2061C98.2356 15.869 100.703 18.2981 100.703 21.2881C100.703 24.2781 98.2391 26.7072 95.2061 26.7072H88.8741V26.7039ZM95.2026 12.3281H85.0264V37.4557H88.8706V30.2481H95.2026C100.222 30.2481 104.292 26.236 104.292 21.2881C104.292 16.3402 100.222 12.3281 95.2026 12.3281Z"
        fill="white" />
    <path
        d="M77.7683 12.3281L70.3625 24.9683L62.9602 12.3281H58.5503L68.4404 29.216V37.4557H72.2612V29.2592L82.1782 12.3281H77.7683Z"
        fill="white" />
    <path
        d="M14.6401 41.6669L9.75894 33.3342H9.76566L9.7623 33.3275H9.75894L9.7623 33.3242L0 49.9932H19.5145L14.6401 41.6669Z"
        fill="white" />
    <path
        d="M48.7914 33.3311L48.7879 33.3344H48.7914L43.9135 41.6637H43.917L39.0356 49.9965H58.5503L48.7914 33.3311Z"
        fill="white" />
    <path d="M29.2838 16.6656H39.0428L29.2838 0L19.5215 16.6656H29.2804H29.2838Z" fill="white" />
    <path d="M14.6406 41.6608H24.3928L19.5184 33.3379L14.6406 41.6608Z" fill="white" />
    <path d="M43.9098 41.6608L39.032 33.3379L34.1577 41.6608H43.9098Z" fill="white" />
    <path d="M34.1511 24.998L29.2733 16.6719L24.3955 24.998H24.3989H34.1511Z" fill="white" />
    <path d="M39.0323 50.0002L34.1546 41.6709L29.2769 50.0002H39.0323Z" fill="white" />
    <path d="M24.3958 41.6709L19.5181 49.9971H29.2703H29.2736L24.3958 41.6709Z" fill="white" />
    <path d="M19.511 33.3308L14.6366 25.0014H14.64V24.998L9.76221 33.3242L9.7656 33.3308H19.511Z"
        fill="white" />
    <path d="M43.91 24.998V25.0014L39.0356 33.3308H48.7914L43.9135 24.998H43.91Z" fill="white" />
    <path d="M24.3928 24.998L19.515 16.6719L14.6406 24.998H24.3928Z" fill="white" />
    <path d="M43.9098 24.9988H43.9133H43.9168L39.0354 16.666L34.1543 24.9988H43.9098Z" fill="white" />
    <path
        d="M32.9226 33.3281H39.0256L34.148 25.002L31.0981 30.212L29.2736 27.0959L27.4457 30.2153L24.3924 25.002L19.5146 33.3281H25.6211L23.8067 36.4275H27.4625L24.3958 41.6575H34.148L31.0847 36.4275H34.7371L32.9226 33.3281ZM29.2736 28.43L33.5656 35.7637H24.9782L29.2736 28.43Z"
        fill="white" />
    <path d="M150.319 12.4346H149.36V37.5656H150.319V12.4346Z" fill="white" />
    <path
        d="M167.392 17.9307L171.9 9.60657H173.981L178.488 17.9307H176.562L175.658 16.1721H170.223L169.319 17.9307H167.392ZM170.865 14.9293H175.016L173.422 11.8459C173.303 11.5997 173.077 11.0838 172.958 10.7555H172.922C172.803 11.0838 172.577 11.5997 172.459 11.8459L170.865 14.9293ZM179.926 17.9307V9.60657H182.613L185.444 15.4217C185.563 15.7031 185.67 15.9611 185.717 16.1838H185.753C185.801 15.9611 185.92 15.6914 186.039 15.4217L188.893 9.60657H191.628V17.9307H189.999V11.9397C189.999 11.588 190.011 11.1424 190.058 10.8493H190.011C189.951 11.0135 189.761 11.4942 189.595 11.8576L186.55 17.9307H184.849L181.864 11.8576C181.71 11.4942 181.579 11.1073 181.507 10.8493H181.448C181.495 11.119 181.507 11.5059 181.507 11.9397V17.9307H179.926ZM195.914 16.6176H202.455V17.9307H194.13V9.60657H202.372V10.9197H195.914V13.0652H202.169V14.308H195.914V16.6176ZM204.571 17.9307V9.60657H210.185C212.706 9.60657 213.431 10.9666 213.431 12.1507C213.431 13.0769 212.92 14.179 211.386 14.5542L213.752 17.9307H211.695L209.483 14.7652H206.355V17.9307H204.571ZM206.355 13.5342H209.816C211.148 13.5342 211.552 12.8424 211.552 12.1742C211.552 11.5411 211.16 10.8728 209.816 10.8728H206.355V13.5342ZM217.261 17.9307H215.477V9.60657H217.261V17.9307ZM224.294 18.2121C220.928 18.2121 218.811 16.4652 218.811 13.7804C218.811 11.1424 221.059 9.3252 224.389 9.3252C227.101 9.3252 228.98 10.4742 229.527 12.4555L227.671 12.7252C227.279 11.4238 226.113 10.7086 224.341 10.7086C222.07 10.7086 220.678 11.8811 220.678 13.7686C220.678 15.5976 222.129 16.8286 224.377 16.8286C226.113 16.8286 227.243 16.1838 227.707 14.9411L229.515 15.2928C228.801 17.1686 226.982 18.2121 224.294 18.2121ZM229.726 17.9307L234.233 9.60657H236.314L240.822 17.9307H238.895L237.991 16.1721H232.556L231.652 17.9307H229.726ZM233.199 14.9293H237.349L235.756 11.8459C235.637 11.5997 235.411 11.0838 235.292 10.7555H235.256C235.137 11.0838 234.911 11.5997 234.792 11.8459L233.199 14.9293ZM246.343 18.2121C243.595 18.2121 241.8 17.3328 241.074 15.6914L242.549 14.9997C243.132 16.2073 244.416 16.899 246.402 16.899C248.21 16.899 249.042 16.5121 249.042 15.6562C249.042 14.9528 248.543 14.6362 247.247 14.519L244.583 14.2493C242.585 14.05 241.633 13.3114 241.633 11.8693C241.633 10.2631 243.203 9.3252 245.986 9.3252C248.388 9.3252 249.97 10.0404 250.803 11.4707L249.435 12.2445C248.888 11.2011 247.758 10.6266 245.915 10.6266C244.309 10.6266 243.441 11.0252 243.441 11.7755C243.441 12.4673 243.881 12.7252 245.201 12.8659L247.687 13.1004C249.911 13.3349 250.862 14.0031 250.862 15.4921C250.862 17.2507 249.28 18.2121 246.343 18.2121ZM172.625 30.2811C169.485 30.2811 167.511 28.4755 167.511 25.8845C167.511 23.2466 169.664 21.3942 173.065 21.3942C175.705 21.3942 177.62 22.4493 178.143 24.1142L176.24 24.4424C175.896 23.4342 174.718 22.7307 172.994 22.7307C170.746 22.7307 169.354 23.9735 169.354 25.8728C169.354 27.7252 170.758 28.968 173.006 28.968C175.146 28.968 176.478 27.9831 176.514 26.7638V26.7169H172.934V25.4976H178.155V29.9997H176.788L176.681 28.5224C176.026 29.5307 174.671 30.2811 172.625 30.2811ZM178.418 29.9997L182.925 21.6755H185.006L189.514 29.9997H187.587L186.683 28.2411H181.248L180.344 29.9997H178.418ZM181.89 26.9983H186.041L184.447 23.9148C184.328 23.6686 184.102 23.1528 183.984 22.8245H183.948C183.829 23.1528 183.603 23.6686 183.484 23.9148L181.89 26.9983ZM187.316 23.0824V21.6755H196.652V23.0824H192.882V29.9997H191.098V23.0824H187.316ZM198.968 28.6866H205.509V29.9997H197.184V21.6755H205.426V22.9886H198.968V25.1342H205.223V26.3769H198.968V28.6866ZM208.767 29.9997L205.805 21.6755H207.637L209.635 27.7369C209.706 27.9831 209.801 28.2176 209.813 28.4286H209.849C209.885 28.2176 209.98 27.9597 210.075 27.7369L212.454 21.6755H214.285L216.664 27.7369C216.747 27.9597 216.842 28.2176 216.878 28.4286H216.914C216.937 28.2176 217.021 27.9831 217.092 27.7369L219.102 21.6755H220.933L217.972 29.9997H215.879L213.572 24.0673C213.476 23.8211 213.405 23.5749 213.393 23.399H213.334C213.334 23.5749 213.25 23.8211 213.155 24.0673L210.848 29.9997H208.767ZM219.408 29.9997L223.915 21.6755H225.997L230.504 29.9997H228.577L227.674 28.2411H222.238L221.335 29.9997H219.408ZM222.881 26.9983H227.031L225.438 23.9148C225.319 23.6686 225.093 23.1528 224.974 22.8245H224.938C224.819 23.1528 224.593 23.6686 224.474 23.9148L222.881 26.9983ZM232.53 29.9997V27.0804L228.201 21.6755H230.295L233.196 25.3921C233.327 25.5797 233.41 25.6852 233.446 25.8142H233.47C233.506 25.6852 233.577 25.5797 233.72 25.3921L236.681 21.6755H238.703L234.326 27.0804V29.9997H232.53ZM172.994 42.35C169.628 42.35 167.511 40.6031 167.511 37.9183C167.511 35.2804 169.759 33.4631 173.089 33.4631C175.8 33.4631 177.68 34.6121 178.227 36.5935L176.371 36.8631C175.979 35.5617 174.813 34.8466 173.041 34.8466C170.77 34.8466 169.378 36.019 169.378 37.9066C169.378 39.7355 170.829 40.9666 173.077 40.9666C174.813 40.9666 175.943 40.3217 176.407 39.079L178.215 39.4307C177.501 41.3066 175.682 42.35 172.994 42.35ZM189.394 33.7445V42.0686H187.598V38.4811H181.533V42.0686H179.749V33.7445H181.533V37.1797H187.598V33.7445H189.394ZM190.696 42.0686L195.204 33.7445H197.285L201.793 42.0686H199.866L198.962 40.31H193.527L192.623 42.0686H190.696ZM194.169 39.0673H198.32L196.726 35.9838C196.607 35.7376 196.381 35.2217 196.262 34.8935H196.227C196.108 35.2217 195.882 35.7376 195.763 35.9838L194.169 39.0673ZM204.895 42.0686H203.111V33.7445H208.688C210.734 33.7445 211.995 34.7645 211.995 36.4293C211.995 38.1293 210.627 39.2197 208.51 39.2197H204.895V42.0686ZM204.895 37.9535H208.284C209.438 37.9535 210.127 37.3907 210.127 36.4528C210.127 35.55 209.461 35.0224 208.296 35.0224H204.895V37.9535ZM212.35 35.1514V33.7445H221.686V35.1514H217.916V42.0686H216.132V35.1514H212.35ZM224.715 40.7555H231.256V42.0686H222.931V33.7445H231.173V35.0576H224.715V37.2031H230.97V38.4459H224.715V40.7555ZM233.253 42.0686V33.7445H238.867C241.388 33.7445 242.113 35.1045 242.113 36.2886C242.113 37.2149 241.602 38.3169 240.068 38.6921L242.435 42.0686H240.377L238.165 38.9031H235.037V42.0686H233.253ZM235.037 37.6721H238.498C239.83 37.6721 240.234 36.9804 240.234 36.3121C240.234 35.679 239.842 35.0107 238.498 35.0107H235.037V37.6721Z"
        fill="white" />
</svg>