<svg width="315" height="56" viewBox="0 0 315 56" fill="none" xmlns="http://www.w3.org/2000/svg">
    <path d="M132.803 17.3137C138.631 17.3137 143.37 22.0524 143.37 27.8801C143.37 33.7077 138.631 38.4464 132.803 38.4464C126.976 38.4464 122.237 33.7077 122.237 27.8801C122.237 22.0524 126.976 17.3137 132.803 17.3137ZM132.803 13.3481C124.779 13.3481 118.271 19.8559 118.271 27.8801C118.271 35.9043 124.779 42.4121 132.803 42.4121C140.827 42.4121 147.335 35.9043 147.335 27.8801C147.335 19.8559 140.827 13.3481 132.803 13.3481Z" fill="#1B1B1B"/>
    <path d="M98.1224 29.9087V17.774H105.113C108.458 17.774 111.183 20.4945 111.183 23.8432C111.183 27.1919 108.462 29.9124 105.113 29.9124H98.1224V29.9087ZM105.11 13.8083H93.8743V41.9506H98.1186V33.8781H105.11C110.651 33.8781 115.144 29.3847 115.144 23.8432C115.144 18.3017 110.651 13.8083 105.11 13.8083Z" fill="#1B1B1B"/>
    <path d="M85.8615 13.8083L77.6849 27.9649L69.5121 13.8083H64.6433L75.5627 32.7222V41.9506H79.7811V32.7705L90.7303 13.8083H85.8615Z" fill="#1B1B1B"/>
    <path d="M16.1636 46.6666L10.7745 37.3341H10.7819L10.7782 37.3267H10.7745L10.7782 37.323L0 55.9916H21.5453L16.1636 46.6666Z" fill="#1B1B1B"/>
    <path d="M53.8682 37.3303L53.8645 37.334H53.8682L48.4828 46.6627H48.4865L43.0974 55.9951H64.6427L53.8682 37.3303Z" fill="#1B1B1B"/>
    <path d="M32.3314 18.6649H43.1059L32.3314 0L21.5532 18.6649H32.3277H32.3314Z" fill="#1B1B1B"/>
    <path d="M16.1636 46.66H26.9306L21.549 37.3387L16.1636 46.66Z" fill="#1B1B1B"/>
    <path d="M48.4797 46.66L43.0943 37.3387L37.7126 46.66H48.4797Z" fill="#1B1B1B"/>
    <path d="M37.7049 27.9974L32.3195 18.6724L26.9341 27.9974H26.9378H37.7049Z" fill="#1B1B1B"/>
    <path d="M43.094 56L37.7086 46.6713L32.3232 56H43.094Z" fill="#1B1B1B"/>
    <path d="M26.9345 46.6713L21.5491 55.9963H32.3161H32.3198L26.9345 46.6713Z" fill="#1B1B1B"/>
    <path d="M21.5412 37.3301L16.1595 28.0014H16.1632V27.9977L10.7778 37.3227L10.7815 37.3301H21.5412Z" fill="#1B1B1B"/>
    <path d="M48.4791 27.9977V28.0014L43.0974 37.3301H53.8682L48.4828 27.9977H48.4791Z" fill="#1B1B1B"/>
    <path d="M26.9306 27.9974L21.5452 18.6724L16.1636 27.9974H26.9306Z" fill="#1B1B1B"/>
    <path d="M48.479 27.9976H48.4827H48.4865L43.0974 18.6652L37.7083 27.9976H48.479Z" fill="#1B1B1B"/>
    <path d="M36.349 37.3263H43.0872L37.7018 28.0013L34.3345 33.8364L32.3201 30.3465L30.302 33.8402L26.931 28.0013L21.5457 37.3263H28.2876L26.2843 40.7977H30.3206L26.9348 46.6551H37.7018L34.3197 40.7977H38.3522L36.349 37.3263ZM32.3201 31.8406L37.0588 40.0543H27.5777L32.3201 31.8406Z" fill="#1B1B1B"/>
    <path d="M165.962 13.9264H164.902V42.0723H165.962V13.9264Z" fill="#1B1B1B"/>
    <path d="M190.866 14.1272L195.107 25.4666H192.516L191.658 22.9431H187.417L186.529 25.4666H184.02L188.309 14.1272H190.866ZM191.008 21.0847L189.577 16.9221H189.543L188.068 21.0847H191.008Z" fill="#1B1B1B"/>
    <path d="M198.114 17.2565V18.3678H198.147C198.444 17.9441 198.801 17.617 199.218 17.3829C199.634 17.1487 200.113 17.0335 200.656 17.0335C201.198 17.0335 201.648 17.1339 202.076 17.3346C202.503 17.5353 202.83 17.892 203.053 18.3975C203.295 18.037 203.625 17.7211 204.045 17.4461C204.462 17.171 204.96 17.0335 205.532 17.0335C205.967 17.0335 206.368 17.0855 206.74 17.1933C207.112 17.3011 207.428 17.4684 207.691 17.7025C207.955 17.9366 208.163 18.2414 208.312 18.6168C208.461 18.9922 208.535 19.4456 208.535 19.9734V25.4702H206.279V20.817C206.279 20.542 206.268 20.2818 206.246 20.0403C206.223 19.795 206.168 19.5868 206.071 19.4047C205.974 19.2226 205.837 19.0814 205.651 18.9773C205.465 18.8732 205.212 18.8175 204.897 18.8175C204.581 18.8175 204.32 18.877 204.127 18.9996C203.93 19.1222 203.778 19.2783 203.666 19.4753C203.555 19.6723 203.481 19.8953 203.443 20.1406C203.406 20.3896 203.388 20.6423 203.388 20.8951V25.4702H201.132V20.8653C201.132 20.6238 201.128 20.3822 201.117 20.1443C201.106 19.9065 201.061 19.6872 200.983 19.4865C200.905 19.2858 200.771 19.1222 200.585 19.0033C200.399 18.8807 200.128 18.8212 199.768 18.8212C199.66 18.8212 199.522 18.8435 199.348 18.8918C199.173 18.9401 199.002 19.0293 198.838 19.1631C198.675 19.2969 198.534 19.4865 198.418 19.7355C198.303 19.9845 198.244 20.3079 198.244 20.713V25.4777H195.988V17.2677H198.117L198.114 17.2565Z" fill="#1B1B1B"/>
    <path d="M212.653 23.4967C212.991 23.8238 213.478 23.9873 214.113 23.9873C214.567 23.9873 214.961 23.8721 215.288 23.6454C215.615 23.4187 215.816 23.1771 215.89 22.9244H217.875C217.559 23.9093 217.068 24.6117 216.414 25.0354C215.756 25.4591 214.965 25.6709 214.032 25.6709C213.385 25.6709 212.802 25.5669 212.285 25.3625C211.765 25.1543 211.326 24.8607 210.966 24.4816C210.605 24.0988 210.326 23.6454 210.133 23.1176C209.936 22.5899 209.839 22.0063 209.839 21.3708C209.839 20.7353 209.94 20.1852 210.14 19.6574C210.341 19.1297 210.627 18.6688 210.999 18.2823C211.371 17.8958 211.813 17.591 212.326 17.368C212.839 17.145 213.407 17.0335 214.032 17.0335C214.73 17.0335 215.34 17.1673 215.857 17.4386C216.377 17.7099 216.801 18.0704 217.135 18.5276C217.47 18.9847 217.707 19.5013 217.856 20.0849C218.005 20.6684 218.057 21.2779 218.016 21.9097H212.092C212.125 22.6419 212.307 23.1697 212.649 23.4967H212.653ZM215.202 19.178C214.931 18.8807 214.522 18.732 213.972 18.732C213.612 18.732 213.314 18.7915 213.077 18.9141C212.839 19.0368 212.649 19.1854 212.504 19.3675C212.363 19.5459 212.259 19.7392 212.203 19.9399C212.144 20.1406 212.11 20.3227 212.099 20.4788H215.767C215.66 19.9065 215.474 19.4716 215.202 19.178Z" fill="#1B1B1B"/>
    <path d="M221.473 17.2565V18.7803H221.506C221.61 18.5276 221.755 18.2897 221.934 18.0742C222.112 17.8586 222.32 17.6728 222.554 17.5167C222.789 17.3643 223.038 17.2454 223.301 17.1599C223.565 17.0744 223.84 17.0335 224.127 17.0335C224.275 17.0335 224.439 17.0595 224.617 17.1116V19.2077C224.509 19.1854 224.383 19.1668 224.234 19.152C224.086 19.1371 223.944 19.1297 223.807 19.1297C223.394 19.1297 223.045 19.2003 222.759 19.3378C222.473 19.4753 222.242 19.6649 222.068 19.9027C221.893 20.1406 221.766 20.4194 221.696 20.7353C221.622 21.0512 221.584 21.3968 221.584 21.7685V25.4702H219.328V17.2602H221.473V17.2565Z" fill="#1B1B1B"/>
    <path d="M225.562 15.9855V14.1272H227.817V15.9855H225.562ZM227.817 17.2566V25.4666H225.562V17.2566H227.817Z" fill="#1B1B1B"/>
    <path d="M233.411 18.7331C233.05 18.7331 232.749 18.8149 232.504 18.9784C232.258 19.142 232.061 19.3538 231.909 19.614C231.757 19.8741 231.645 20.1603 231.582 20.4725C231.519 20.7847 231.485 21.0932 231.485 21.4017C231.485 21.7102 231.519 22.0001 231.582 22.3085C231.645 22.617 231.749 22.892 231.89 23.1411C232.032 23.3901 232.225 23.5945 232.47 23.7543C232.715 23.9141 233.009 23.9922 233.358 23.9922C233.897 23.9922 234.314 23.8398 234.604 23.5387C234.893 23.2377 235.076 22.8326 235.15 22.3234H237.324C237.175 23.4124 236.752 24.2449 236.053 24.8172C235.354 25.3896 234.459 25.6758 233.37 25.6758C232.756 25.6758 232.191 25.5717 231.679 25.3673C231.166 25.1629 230.727 24.873 230.37 24.5013C230.01 24.1297 229.731 23.6874 229.527 23.1745C229.326 22.6616 229.226 22.0967 229.226 21.4834C229.226 20.8702 229.319 20.257 229.504 19.7143C229.69 19.168 229.961 18.696 230.322 18.302C230.683 17.9043 231.121 17.5959 231.641 17.3729C232.162 17.1499 232.753 17.0384 233.422 17.0384C233.909 17.0384 234.377 17.1015 234.827 17.2279C235.276 17.3543 235.678 17.5475 236.034 17.8077C236.388 18.0679 236.677 18.3912 236.9 18.7777C237.123 19.1643 237.25 19.6214 237.283 20.1529H235.076C234.927 19.2089 234.369 18.7406 233.407 18.7406L233.411 18.7331Z" fill="#1B1B1B"/>
    <path d="M238.491 19.7801C238.525 19.2523 238.655 18.8101 238.889 18.4607C239.123 18.1113 239.417 17.8326 239.777 17.6207C240.138 17.4089 240.543 17.2565 240.993 17.1673C241.442 17.0781 241.896 17.0335 242.349 17.0335C242.762 17.0335 243.182 17.0632 243.606 17.119C244.029 17.1785 244.416 17.29 244.765 17.4609C245.115 17.6319 245.401 17.866 245.624 18.1671C245.847 18.4681 245.958 18.8695 245.958 19.3675V23.6417C245.958 24.0133 245.98 24.3664 246.021 24.7046C246.062 25.0428 246.137 25.2993 246.244 25.4665H243.959C243.918 25.3402 243.881 25.2101 243.855 25.0763C243.829 24.9425 243.81 24.8087 243.799 24.6712C243.438 25.0428 243.015 25.303 242.528 25.4479C242.041 25.5966 241.543 25.6709 241.034 25.6709C240.643 25.6709 240.275 25.6226 239.937 25.5297C239.599 25.4331 239.302 25.2844 239.049 25.0837C238.796 24.883 238.596 24.6303 238.454 24.3218C238.313 24.0133 238.239 23.6491 238.239 23.2254C238.239 22.7608 238.321 22.3743 238.484 22.0732C238.648 21.7722 238.859 21.5306 239.12 21.3522C239.38 21.1738 239.677 21.0363 240.008 20.9471C240.339 20.8579 240.677 20.7873 241.015 20.7315C241.353 20.6795 241.688 20.6349 242.015 20.6052C242.342 20.5754 242.636 20.5271 242.888 20.4639C243.141 20.4008 243.342 20.3079 243.49 20.1852C243.639 20.0626 243.706 19.8879 243.698 19.6537C243.698 19.4084 243.658 19.2152 243.58 19.0739C243.502 18.9327 243.394 18.8212 243.264 18.7394C243.13 18.6614 242.977 18.6056 242.803 18.5796C242.628 18.5536 242.439 18.5387 242.238 18.5387C241.792 18.5387 241.442 18.6354 241.19 18.8249C240.937 19.0145 240.788 19.3341 240.744 19.7764H238.488L238.491 19.7801ZM243.702 21.4489C243.606 21.5343 243.487 21.6012 243.345 21.6458C243.204 21.6942 243.048 21.735 242.885 21.7648C242.721 21.7982 242.55 21.8242 242.368 21.8428C242.19 21.8651 242.007 21.8911 241.829 21.9209C241.658 21.9506 241.495 21.9952 241.327 22.0472C241.164 22.0993 241.019 22.1699 240.9 22.2628C240.777 22.352 240.681 22.4672 240.606 22.6047C240.532 22.7422 240.495 22.9169 240.495 23.1288C240.495 23.3406 240.532 23.5004 240.606 23.6379C240.681 23.7755 240.781 23.8832 240.907 23.965C241.034 24.0468 241.182 24.0988 241.353 24.1323C241.524 24.1657 241.699 24.1806 241.877 24.1806C242.323 24.1806 242.665 24.1062 242.911 23.9576C243.152 23.8089 243.334 23.6305 243.449 23.4261C243.565 23.218 243.639 23.0098 243.665 22.798C243.691 22.5861 243.706 22.4152 243.706 22.2888V21.4489H243.702Z" fill="#1B1B1B"/>
    <path d="M249.526 23.4263C249.627 23.601 249.757 23.7422 249.917 23.8537C250.076 23.9652 250.259 24.047 250.463 24.099C250.667 24.1511 250.883 24.1771 251.106 24.1771C251.266 24.1771 251.433 24.1585 251.608 24.1213C251.782 24.0842 251.942 24.0247 252.083 23.9467C252.225 23.8686 252.347 23.7608 252.44 23.6307C252.537 23.4969 252.581 23.3334 252.581 23.129C252.581 22.7908 252.355 22.5381 251.905 22.3671C251.455 22.1961 250.827 22.0289 250.024 21.8579C249.697 21.7836 249.374 21.6981 249.066 21.594C248.753 21.4937 248.475 21.3599 248.233 21.1964C247.988 21.0328 247.794 20.8247 247.646 20.5757C247.497 20.3267 247.423 20.0219 247.423 19.6614C247.423 19.1336 247.527 18.6988 247.731 18.3606C247.939 18.0224 248.211 17.7548 248.549 17.5578C248.887 17.3608 249.27 17.2233 249.694 17.1452C250.117 17.0672 250.552 17.0263 250.994 17.0263C251.437 17.0263 251.872 17.0672 252.288 17.1527C252.704 17.2382 253.08 17.3794 253.407 17.5801C253.734 17.7808 254.009 18.0484 254.224 18.3829C254.44 18.7174 254.57 19.1373 254.614 19.6465H252.47C252.437 19.2117 252.273 18.9181 251.979 18.7657C251.682 18.6133 251.333 18.5353 250.931 18.5353C250.805 18.5353 250.667 18.5427 250.519 18.5576C250.37 18.5724 250.236 18.6096 250.114 18.6616C249.991 18.7137 249.887 18.7917 249.805 18.8921C249.72 18.9924 249.679 19.1262 249.679 19.2972C249.679 19.4979 249.753 19.6614 249.902 19.7915C250.05 19.9178 250.244 20.0219 250.482 20.1C250.719 20.178 250.991 20.2523 251.299 20.3155C251.608 20.3787 251.92 20.4493 252.236 20.5236C252.563 20.598 252.883 20.6872 253.195 20.795C253.507 20.9027 253.786 21.0403 254.027 21.2149C254.269 21.3896 254.466 21.6052 254.614 21.8653C254.763 22.1255 254.837 22.4451 254.837 22.8242C254.837 23.3631 254.73 23.8166 254.51 24.1808C254.295 24.545 254.009 24.8386 253.659 25.0616C253.31 25.2846 252.909 25.4407 252.459 25.5299C252.009 25.6191 251.552 25.6637 251.084 25.6637C250.615 25.6637 250.14 25.6154 249.686 25.5225C249.229 25.4259 248.828 25.2698 248.471 25.0468C248.114 24.8238 247.824 24.5302 247.597 24.1659C247.371 23.8017 247.244 23.3446 247.226 22.7908H249.37C249.37 23.0361 249.422 23.2442 249.523 23.4189L249.526 23.4263Z" fill="#1B1B1B"/>
    <path d="M191.929 42.1989C191.39 42.4256 190.844 42.5408 190.294 42.5408C189.424 42.5408 188.644 42.3884 187.952 42.0874C187.257 41.7863 186.674 41.3701 186.198 40.8423C185.722 40.3145 185.358 39.6901 185.102 38.9765C184.845 38.263 184.719 37.4899 184.719 36.6648C184.719 35.8397 184.845 35.0332 185.102 34.3048C185.358 33.5763 185.722 32.9482 186.198 32.4056C186.674 31.8667 187.261 31.443 187.952 31.1345C188.647 30.826 189.428 30.6736 190.294 30.6736C190.877 30.6736 191.439 30.7628 191.985 30.9375C192.531 31.1122 193.022 31.3686 193.46 31.7068C193.899 32.045 194.263 32.465 194.549 32.9631C194.836 33.4611 195.01 34.0334 195.073 34.6801H192.691C192.542 34.0446 192.256 33.5689 191.833 33.2492C191.409 32.9333 190.896 32.7735 190.29 32.7735C189.729 32.7735 189.253 32.8813 188.859 33.1006C188.469 33.3161 188.149 33.6097 187.908 33.974C187.663 34.3382 187.488 34.7545 187.376 35.219C187.265 35.6836 187.209 36.1668 187.209 36.6648C187.209 37.1628 187.265 37.6051 187.376 38.0548C187.488 38.5045 187.666 38.9096 187.908 39.2702C188.149 39.6307 188.469 39.9206 188.859 40.1361C189.25 40.3517 189.729 40.4632 190.29 40.4632C191.115 40.4632 191.755 40.2551 192.204 39.8351C192.654 39.4188 192.918 38.8093 192.992 38.0177H190.483V36.1593H195.248V42.2881H193.661L193.408 41.0021C192.962 41.5745 192.472 41.9721 191.933 42.2026L191.929 42.1989Z" fill="#1B1B1B"/>
    <path d="M196.947 36.5971C196.981 36.0693 197.111 35.6271 197.345 35.2777C197.579 34.9283 197.873 34.6496 198.233 34.4378C198.594 34.2259 198.999 34.0735 199.449 33.9843C199.898 33.8951 200.352 33.8505 200.805 33.8505C201.218 33.8505 201.638 33.8803 202.061 33.936C202.485 33.9955 202.872 34.107 203.221 34.2779C203.57 34.4489 203.857 34.683 204.08 34.9841C204.303 35.2851 204.414 35.6865 204.414 36.1846V40.4587C204.414 40.8303 204.436 41.1834 204.477 41.5216C204.518 41.8598 204.592 42.1163 204.7 42.2835H202.414C202.374 42.1572 202.336 42.0271 202.31 41.8933C202.284 41.7595 202.266 41.6257 202.255 41.4882C201.894 41.8598 201.47 42.12 200.984 42.265C200.497 42.4136 199.999 42.488 199.489 42.488C199.099 42.488 198.731 42.4396 198.393 42.3467C198.055 42.2501 197.758 42.1014 197.505 41.9007C197.252 41.7 197.051 41.4473 196.91 41.1388C196.769 40.8303 196.695 40.4661 196.695 40.0424C196.695 39.5778 196.776 39.1913 196.94 38.8903C197.103 38.5892 197.315 38.3476 197.575 38.1692C197.836 37.9908 198.133 37.8533 198.464 37.7641C198.794 37.6749 199.133 37.6043 199.471 37.5486C199.809 37.4965 200.144 37.4519 200.471 37.4222C200.798 37.3925 201.091 37.3441 201.344 37.281C201.597 37.2178 201.798 37.1249 201.946 37.0022C202.095 36.8796 202.162 36.7049 202.154 36.4707C202.154 36.2254 202.113 36.0322 202.035 35.8909C201.957 35.7497 201.85 35.6382 201.719 35.5565C201.586 35.4784 201.433 35.4227 201.259 35.3966C201.084 35.3706 200.894 35.3558 200.694 35.3558C200.248 35.3558 199.898 35.4524 199.646 35.6419C199.393 35.8315 199.244 36.1511 199.2 36.5934H196.944L196.947 36.5971ZM202.154 38.2659C202.058 38.3514 201.939 38.4183 201.798 38.4629C201.656 38.5112 201.5 38.552 201.337 38.5818C201.173 38.6152 201.002 38.6412 200.82 38.6598C200.642 38.6821 200.46 38.7081 200.281 38.7379C200.11 38.7676 199.947 38.8122 199.779 38.8642C199.616 38.9163 199.471 38.9869 199.352 39.0798C199.229 39.169 199.133 39.2842 199.058 39.4217C198.984 39.5593 198.947 39.7339 198.947 39.9458C198.947 40.1576 198.984 40.3174 199.058 40.455C199.133 40.5925 199.233 40.7003 199.359 40.782C199.486 40.8638 199.634 40.9158 199.805 40.9493C199.976 40.9827 200.151 40.9976 200.329 40.9976C200.775 40.9976 201.117 40.9233 201.363 40.7746C201.604 40.6259 201.786 40.4475 201.902 40.2431C202.017 40.035 202.091 39.8269 202.117 39.615C202.143 39.4032 202.158 39.2322 202.158 39.1058V38.2659H202.154Z" fill="#1B1B1B"/>
    <path d="M210.628 34.0738V35.5828H208.977V39.6487C208.977 40.0316 209.041 40.2843 209.167 40.4106C209.293 40.537 209.55 40.6002 209.929 40.6002C210.055 40.6002 210.178 40.5965 210.293 40.5853C210.408 40.5742 210.52 40.5593 210.628 40.537V42.2838C210.438 42.3136 210.226 42.3359 209.992 42.347C209.758 42.3582 209.531 42.3619 209.308 42.3619C208.959 42.3619 208.628 42.3396 208.316 42.2913C208.004 42.2429 207.729 42.15 207.491 42.0125C207.253 41.875 207.063 41.678 206.926 41.4253C206.788 41.1726 206.718 40.8381 206.718 40.4255V35.5828H205.354V34.0738H206.718V31.6134H208.974V34.0738H210.624H210.628Z" fill="#1B1B1B"/>
    <path d="M214.006 40.3137C214.345 40.6408 214.831 40.8043 215.467 40.8043C215.92 40.8043 216.314 40.6891 216.641 40.4624C216.969 40.2357 217.169 39.9941 217.244 39.7414H219.228C218.912 40.7263 218.422 41.4287 217.768 41.8524C217.11 42.2761 216.318 42.488 215.385 42.488C214.739 42.488 214.155 42.3839 213.638 42.1795C213.118 41.9713 212.68 41.6777 212.319 41.2986C211.959 40.9158 211.68 40.4624 211.486 39.9346C211.29 39.4069 211.193 38.8234 211.193 38.1878C211.193 37.5523 211.293 37.0022 211.494 36.4745C211.695 35.9467 211.981 35.4858 212.352 35.0993C212.724 34.7128 213.166 34.408 213.679 34.185C214.192 33.962 214.761 33.8505 215.385 33.8505C216.084 33.8505 216.693 33.9843 217.21 34.2556C217.73 34.5269 218.154 34.8875 218.489 35.3446C218.823 35.8018 219.061 36.3184 219.21 36.9019C219.358 37.4854 219.41 38.0949 219.369 38.7267H213.445C213.479 39.4589 213.661 39.9867 214.003 40.3137H214.006ZM216.556 35.995C216.285 35.6977 215.876 35.549 215.326 35.549C214.965 35.549 214.668 35.6085 214.43 35.7311C214.192 35.8538 214.003 36.0024 213.858 36.1846C213.716 36.363 213.612 36.5562 213.557 36.7569C213.497 36.9576 213.464 37.1397 213.453 37.2958H217.121C217.013 36.7235 216.827 36.2886 216.556 35.995Z" fill="#1B1B1B"/>
    <path d="M227.476 42.284L226.015 36.7722H225.982L224.584 42.284H222.25L219.645 34.074H222.027L223.536 39.6489H223.57L224.934 34.074H227.127L228.524 39.634H228.557L230.066 34.074H232.386L229.795 42.284H227.476Z" fill="#1B1B1B"/>
    <path d="M232.976 36.5971C233.009 36.0693 233.139 35.6271 233.374 35.2777C233.608 34.9283 233.901 34.6496 234.262 34.4378C234.622 34.2259 235.027 34.0735 235.477 33.9843C235.927 33.8951 236.38 33.8505 236.834 33.8505C237.246 33.8505 237.666 33.8803 238.09 33.936C238.514 33.9955 238.9 34.107 239.25 34.2779C239.599 34.4489 239.885 34.683 240.108 34.9841C240.331 35.2851 240.443 35.6865 240.443 36.1846V40.4587C240.443 40.8303 240.465 41.1834 240.506 41.5216C240.547 41.8598 240.621 42.1163 240.729 42.2835H238.443C238.402 42.1572 238.365 42.0271 238.339 41.8933C238.313 41.7595 238.294 41.6257 238.283 41.4882C237.923 41.8598 237.499 42.12 237.012 42.265C236.525 42.4136 236.027 42.488 235.518 42.488C235.128 42.488 234.76 42.4396 234.422 42.3467C234.083 42.2501 233.786 42.1014 233.533 41.9007C233.281 41.7 233.08 41.4473 232.939 41.1388C232.797 40.8303 232.723 40.4661 232.723 40.0424C232.723 39.5778 232.805 39.1913 232.968 38.8903C233.132 38.5892 233.344 38.3476 233.604 38.1692C233.864 37.9908 234.161 37.8533 234.492 37.7641C234.823 37.6749 235.161 37.6043 235.499 37.5486C235.838 37.4965 236.172 37.4519 236.499 37.4222C236.826 37.3925 237.12 37.3441 237.373 37.281C237.625 37.2178 237.826 37.1249 237.975 37.0022C238.123 36.8796 238.19 36.7049 238.183 36.4707C238.183 36.2254 238.142 36.0322 238.064 35.8909C237.986 35.7497 237.878 35.6382 237.748 35.5565C237.614 35.4784 237.462 35.4227 237.287 35.3966C237.112 35.3706 236.923 35.3558 236.722 35.3558C236.276 35.3558 235.927 35.4524 235.674 35.6419C235.421 35.8315 235.273 36.1511 235.228 36.5934H232.972L232.976 36.5971ZM238.183 38.2659C238.086 38.3514 237.967 38.4183 237.826 38.4629C237.685 38.5112 237.529 38.552 237.365 38.5818C237.202 38.6152 237.031 38.6412 236.849 38.6598C236.67 38.6821 236.488 38.7081 236.31 38.7379C236.139 38.7676 235.975 38.8122 235.808 38.8642C235.644 38.9163 235.499 38.9869 235.381 39.0798C235.258 39.169 235.161 39.2842 235.087 39.4217C235.013 39.5593 234.975 39.7339 234.975 39.9458C234.975 40.1576 235.013 40.3174 235.087 40.455C235.161 40.5925 235.262 40.7003 235.388 40.782C235.514 40.8638 235.663 40.9158 235.834 40.9493C236.005 40.9827 236.18 40.9976 236.358 40.9976C236.804 40.9976 237.146 40.9233 237.391 40.7746C237.633 40.6259 237.815 40.4475 237.93 40.2431C238.045 40.035 238.12 39.8269 238.146 39.615C238.172 39.4032 238.187 39.2322 238.187 39.1058V38.2659H238.183Z" fill="#1B1B1B"/>
    <path d="M245.029 44.7309C244.594 45.017 243.992 45.1583 243.219 45.1583C242.985 45.1583 242.754 45.1508 242.527 45.136C242.301 45.1211 242.07 45.1025 241.836 45.0802V43.2219C242.048 43.2442 242.264 43.2628 242.487 43.2851C242.71 43.3074 242.933 43.3111 243.152 43.3C243.449 43.2702 243.668 43.1513 243.81 42.9506C243.951 42.7499 244.025 42.5269 244.025 42.2853C244.025 42.1069 243.992 41.936 243.929 41.7762L241.056 34.0716H243.453L245.311 39.6948H245.345L247.14 34.0716H249.474L246.043 43.3C245.798 43.9652 245.46 44.4447 245.029 44.7309Z" fill="#1B1B1B"/>
    <path d="M262.166 33.9704C262.017 33.7325 261.832 33.5244 261.609 33.3423C261.386 33.1602 261.133 33.0226 260.854 32.9223C260.572 32.8219 260.278 32.7699 259.973 32.7699C259.412 32.7699 258.936 32.8777 258.542 33.097C258.152 33.3125 257.832 33.6061 257.591 33.9704C257.346 34.3346 257.171 34.7509 257.059 35.2154C256.948 35.68 256.892 36.1632 256.892 36.6612C256.892 37.1592 256.948 37.6015 257.059 38.0512C257.171 38.5009 257.349 38.906 257.591 39.2666C257.832 39.6271 258.152 39.917 258.542 40.1325C258.933 40.3481 259.412 40.4596 259.973 40.4596C260.735 40.4596 261.33 40.2254 261.761 39.7609C262.188 39.2963 262.452 38.6793 262.549 37.9174H264.965C264.901 38.6273 264.738 39.2666 264.474 39.8389C264.21 40.4113 263.861 40.8982 263.426 41.2996C262.991 41.7009 262.482 42.0094 261.902 42.2213C261.319 42.4331 260.679 42.5372 259.981 42.5372C259.111 42.5372 258.331 42.3848 257.639 42.0838C256.944 41.7827 256.361 41.3664 255.885 40.8387C255.409 40.3109 255.045 39.6865 254.789 38.9729C254.532 38.2594 254.406 37.4863 254.406 36.6612C254.406 35.8361 254.532 35.0296 254.789 34.3012C255.045 33.5727 255.409 32.9446 255.885 32.402C256.361 31.8631 256.948 31.4394 257.639 31.1309C258.334 30.8224 259.115 30.67 259.981 30.67C260.605 30.67 261.196 30.7592 261.75 30.9413C262.307 31.1234 262.802 31.3836 263.244 31.7293C263.682 32.0749 264.047 32.4986 264.333 33.0078C264.619 33.5169 264.797 34.0967 264.872 34.7546H262.456C262.415 34.4684 262.318 34.2082 262.17 33.9667L262.166 33.9704Z" fill="#1B1B1B"/>
    <path d="M268.734 30.8525V35.1266H268.782C269.068 34.6509 269.433 34.3052 269.879 34.0859C270.325 33.8704 270.756 33.7589 271.179 33.7589C271.782 33.7589 272.28 33.8406 272.666 34.0042C273.053 34.1677 273.357 34.3944 273.58 34.688C273.803 34.9779 273.96 35.3347 274.049 35.751C274.138 36.171 274.183 36.6318 274.183 37.141V42.1919H271.927V37.5535C271.927 36.8771 271.819 36.3717 271.611 36.0372C271.399 35.7027 271.023 35.5354 270.484 35.5354C269.871 35.5354 269.425 35.7175 269.15 36.0818C268.875 36.446 268.738 37.0481 268.738 37.8843V42.1882H266.482V30.8488H268.738L268.734 30.8525Z" fill="#1B1B1B"/>
    <path d="M275.609 36.5971C275.643 36.0693 275.773 35.6271 276.007 35.2777C276.241 34.9283 276.535 34.6496 276.895 34.4378C277.256 34.2259 277.661 34.0735 278.11 33.9843C278.56 33.8951 279.014 33.8505 279.467 33.8505C279.88 33.8505 280.3 33.8803 280.723 33.936C281.147 33.9955 281.533 34.107 281.883 34.2779C282.232 34.4489 282.518 34.683 282.741 34.9841C282.964 35.2851 283.076 35.6865 283.076 36.1846V40.4587C283.076 40.8303 283.098 41.1834 283.139 41.5216C283.18 41.8598 283.254 42.1163 283.362 42.2835H281.076C281.035 42.1572 280.998 42.0271 280.972 41.8933C280.946 41.7595 280.928 41.6257 280.917 41.4882C280.556 41.8598 280.132 42.12 279.645 42.265C279.159 42.4136 278.661 42.488 278.151 42.488C277.761 42.488 277.393 42.4396 277.055 42.3467C276.717 42.2501 276.419 42.1014 276.167 41.9007C275.914 41.7 275.713 41.4473 275.572 41.1388C275.431 40.8303 275.356 40.4661 275.356 40.0424C275.356 39.5778 275.438 39.1913 275.602 38.8903C275.765 38.5892 275.977 38.3476 276.237 38.1692C276.497 37.9908 276.795 37.8533 277.126 37.7641C277.456 37.6749 277.795 37.6043 278.133 37.5486C278.471 37.4965 278.805 37.4519 279.133 37.4222C279.46 37.3925 279.753 37.3441 280.006 37.281C280.259 37.2178 280.459 37.1249 280.608 37.0022C280.757 36.8796 280.824 36.7049 280.816 36.4707C280.816 36.2254 280.775 36.0322 280.697 35.8909C280.619 35.7497 280.511 35.6382 280.381 35.5565C280.248 35.4784 280.095 35.4227 279.92 35.3966C279.746 35.3706 279.556 35.3558 279.356 35.3558C278.91 35.3558 278.56 35.4524 278.307 35.6419C278.055 35.8315 277.906 36.1511 277.861 36.5934H275.605L275.609 36.5971ZM280.82 38.2659C280.723 38.3514 280.604 38.4183 280.463 38.4629C280.322 38.5112 280.166 38.552 280.002 38.5818C279.839 38.6152 279.668 38.6412 279.486 38.6598C279.307 38.6821 279.125 38.7081 278.947 38.7379C278.776 38.7676 278.612 38.8122 278.445 38.8642C278.281 38.9163 278.136 38.9869 278.018 39.0798C277.895 39.169 277.798 39.2842 277.724 39.4217C277.65 39.5593 277.612 39.7339 277.612 39.9458C277.612 40.1576 277.65 40.3174 277.724 40.455C277.798 40.5925 277.899 40.7003 278.025 40.782C278.151 40.8638 278.3 40.9158 278.471 40.9493C278.642 40.9827 278.817 40.9976 278.995 40.9976C279.441 40.9976 279.783 40.9233 280.028 40.7746C280.27 40.6259 280.452 40.4475 280.567 40.2431C280.682 40.035 280.757 39.8269 280.783 39.615C280.809 39.4032 280.824 39.2322 280.824 39.1058V38.2659H280.82Z" fill="#1B1B1B"/>
    <path d="M286.945 34.0735V35.1216H286.979C287.254 34.6756 287.603 34.356 288.027 34.1516C288.45 33.9509 288.915 33.8505 289.424 33.8505C290.071 33.8505 290.625 33.9732 291.093 34.2148C291.558 34.46 291.944 34.7797 292.253 35.1848C292.561 35.5862 292.788 36.0545 292.936 36.5897C293.085 37.1249 293.159 37.6824 293.159 38.2659C293.159 38.8159 293.085 39.3474 292.936 39.8529C292.788 40.362 292.565 40.8118 292.26 41.202C291.959 41.5922 291.584 41.9082 291.134 42.1386C290.684 42.3727 290.156 42.488 289.554 42.488C289.045 42.488 288.577 42.3839 288.149 42.1795C287.722 41.9713 287.369 41.6703 287.094 41.2652H287.06V45.1565H284.804V34.0698H286.949L286.945 34.0735ZM289.878 40.585C290.127 40.4364 290.327 40.2431 290.48 40.0052C290.632 39.7674 290.744 39.4886 290.807 39.1727C290.87 38.8568 290.903 38.5335 290.903 38.2027C290.903 37.8719 290.87 37.5523 290.799 37.2326C290.729 36.9167 290.617 36.6306 290.457 36.3815C290.298 36.1325 290.093 35.9318 289.844 35.7794C289.595 35.6271 289.29 35.549 288.93 35.549C288.569 35.549 288.25 35.6271 288.001 35.7794C287.752 35.9318 287.551 36.1325 287.399 36.3741C287.246 36.6194 287.135 36.8982 287.072 37.2141C287.008 37.53 286.975 37.8608 286.975 38.199C286.975 38.5372 287.008 38.8494 287.079 39.169C287.15 39.4886 287.257 39.7637 287.414 40.0015C287.566 40.2394 287.77 40.4327 288.027 40.5813C288.279 40.73 288.588 40.8043 288.948 40.8043C289.309 40.8043 289.629 40.73 289.878 40.5813V40.585Z" fill="#1B1B1B"/>
    <path d="M298.916 34.0738V35.5828H297.266V39.6487C297.266 40.0316 297.329 40.2843 297.456 40.4106C297.582 40.537 297.838 40.6002 298.217 40.6002C298.344 40.6002 298.467 40.5965 298.582 40.5853C298.697 40.5742 298.808 40.5593 298.916 40.537V42.2838C298.727 42.3136 298.515 42.3359 298.281 42.347C298.047 42.3582 297.82 42.3619 297.597 42.3619C297.247 42.3619 296.917 42.3396 296.604 42.2913C296.292 42.2429 296.017 42.15 295.779 42.0125C295.542 41.875 295.352 41.678 295.214 41.4253C295.077 41.1726 295.006 40.8381 295.006 40.4255V35.5828H293.642V34.0738H295.006V31.6134H297.262V34.0738H298.913H298.916Z" fill="#1B1B1B"/>
    <path d="M302.295 40.3137C302.633 40.6408 303.12 40.8043 303.756 40.8043C304.209 40.8043 304.603 40.6891 304.93 40.4624C305.257 40.2357 305.458 39.9941 305.532 39.7414H307.517C307.201 40.7263 306.71 41.4287 306.056 41.8524C305.398 42.2761 304.607 42.488 303.674 42.488C303.027 42.488 302.444 42.3839 301.927 42.1795C301.407 41.9713 300.968 41.6777 300.608 41.2986C300.247 40.9158 299.968 40.4624 299.775 39.9346C299.578 39.4069 299.481 38.8234 299.481 38.1878C299.481 37.5523 299.582 37.0022 299.782 36.4745C299.983 35.9467 300.269 35.4858 300.641 35.0993C301.013 34.7128 301.455 34.408 301.968 34.185C302.481 33.962 303.049 33.8505 303.674 33.8505C304.373 33.8505 304.982 33.9843 305.499 34.2556C306.019 34.5269 306.443 34.8875 306.777 35.3446C307.112 35.8018 307.35 36.3184 307.498 36.9019C307.647 37.4854 307.699 38.0949 307.658 38.7267H301.734C301.767 39.4589 301.949 39.9867 302.291 40.3137H302.295ZM304.845 35.995C304.573 35.6977 304.164 35.549 303.614 35.549C303.254 35.549 302.956 35.6085 302.719 35.7311C302.481 35.8538 302.291 36.0024 302.146 36.1846C302.005 36.363 301.901 36.5562 301.845 36.7569C301.786 36.9576 301.752 37.1397 301.741 37.2958H305.409C305.302 36.7235 305.116 36.2886 304.845 35.995Z" fill="#1B1B1B"/>
    <path d="M311.114 34.0735V35.5973H311.147C311.251 35.3446 311.396 35.1067 311.575 34.8912C311.753 34.6756 311.961 34.4898 312.195 34.3337C312.429 34.1813 312.678 34.0624 312.942 33.9769C313.206 33.8914 313.481 33.8505 313.767 33.8505C313.916 33.8505 314.08 33.8765 314.258 33.9286V36.0247C314.15 36.0024 314.024 35.9839 313.875 35.969C313.727 35.9541 313.585 35.9467 313.448 35.9467C313.035 35.9467 312.686 36.0173 312.4 36.1548C312.113 36.2923 311.883 36.4819 311.708 36.7198C311.534 36.9576 311.407 37.2364 311.337 37.5523C311.262 37.8682 311.225 38.2138 311.225 38.5855V42.2873H308.969V34.0772H311.114V34.0735Z" fill="#1B1B1B"/>
    </svg>
    