<svg width="277" height="50" viewBox="0 0 277 50" fill="none" xmlns="http://www.w3.org/2000/svg">
    <path d="M116.851 15.2344C121.979 15.2344 126.148 19.4039 126.148 24.5315C126.148 29.6592 121.979 33.8287 116.851 33.8287C111.723 33.8287 107.554 29.6592 107.554 24.5315C107.554 19.4039 111.723 15.2344 116.851 15.2344ZM116.851 11.7451C109.791 11.7451 104.064 17.4712 104.064 24.5315C104.064 31.5919 109.791 37.3179 116.851 37.3179C123.911 37.3179 129.637 31.5919 129.637 24.5315C129.637 17.4712 123.911 11.7451 116.851 11.7451Z" fill="white"/>
    <path d="M86.336 26.3168V15.6397H92.4872C95.4303 15.6397 97.8274 18.0334 97.8274 20.9799C97.8274 23.9263 95.4336 26.3201 92.4872 26.3201H86.336V26.3168ZM92.4839 12.1504H82.5981V36.9122H86.3327V29.8094H92.4839C97.3597 29.8094 101.313 25.8557 101.313 20.9799C101.313 16.104 97.3597 12.1504 92.4839 12.1504Z" fill="white"/>
    <path d="M75.5479 12.1504L68.3535 24.6065L61.1624 12.1504H56.8784L66.4862 28.7923V36.9122H70.1979V28.8349L79.8318 12.1504H75.5479Z" fill="white"/>
    <path d="M14.222 41.0611L9.48026 32.8497H9.4868L9.48353 32.8431H9.48026L9.48353 32.8398L0 49.266H18.9572L14.222 41.0611Z" fill="white"/>
    <path d="M47.3979 32.8457L47.3946 32.849H47.3979L42.6594 41.0571H42.6627L37.9209 49.2686H56.8781L47.3979 32.8457Z" fill="white"/>
    <path d="M28.4479 16.4229H37.9281L28.4479 0L18.9644 16.4229H28.4446H28.4479Z" fill="white"/>
    <path d="M14.2222 41.0551H23.6959L18.9607 32.8535L14.2222 41.0551Z" fill="white"/>
    <path d="M42.6563 41.0551L37.9178 32.8535L33.1826 41.0551H42.6563Z" fill="white"/>
    <path d="M33.1757 24.6346L28.4372 16.4297L23.6987 24.6346H23.702H33.1757Z" fill="white"/>
    <path d="M37.9174 49.2736L33.1789 41.0654L28.4404 49.2736H37.9174Z" fill="white"/>
    <path d="M23.6989 41.0654L18.9604 49.2703H28.4342H28.4374L23.6989 41.0654Z" fill="white"/>
    <path d="M18.9538 32.8462L14.2186 24.638H14.2219V24.6348L9.4834 32.8397L9.48667 32.8462H18.9538Z" fill="white"/>
    <path d="M42.6561 24.6348V24.638L37.9209 32.8462H47.3979L42.6594 24.6348H42.6561Z" fill="white"/>
    <path d="M23.6959 24.6346L18.9574 16.4297L14.2222 24.6346H23.6959Z" fill="white"/>
    <path d="M42.6557 24.6343H42.659H42.6622L37.9205 16.4229L33.1787 24.6343H42.6557Z" fill="white"/>
    <path d="M31.9827 32.8426H37.9115L33.173 24.6377L30.2102 29.7719L28.4378 26.7012L26.6621 29.7752L23.696 24.6377L18.9575 32.8426H24.8896L23.127 35.8969H26.6784L23.6993 41.0507H33.173L30.1971 35.8969H33.7453L31.9827 32.8426ZM28.4378 28.0158L32.6073 35.2429H24.265L28.4378 28.0158Z" fill="white"/>
    <path d="M146.026 14.2539H145.094V39.019H146.026V14.2539Z" fill="white"/>
    <path d="M167.94 13.4307L171.671 23.408H169.392L168.636 21.1875H164.905L164.123 23.408H161.916L165.69 13.4307H167.94ZM168.064 19.5524L166.805 15.8898H166.776L165.477 19.5524H168.064Z" fill="white"/>
    <path d="M174.317 16.1845V17.1623H174.346C174.608 16.7895 174.922 16.5017 175.288 16.2957C175.654 16.0897 176.076 15.9883 176.554 15.9883C177.031 15.9883 177.427 16.0766 177.803 16.2532C178.179 16.4298 178.467 16.7437 178.663 17.1884C178.875 16.8712 179.167 16.5933 179.536 16.3513C179.902 16.1093 180.341 15.9883 180.844 15.9883C181.227 15.9883 181.58 16.0341 181.907 16.1289C182.234 16.2237 182.512 16.3709 182.744 16.5769C182.976 16.7829 183.159 17.0511 183.29 17.3814C183.421 17.7117 183.486 18.1106 183.486 18.575V23.4116H181.501V19.3173C181.501 19.0753 181.492 18.8464 181.472 18.6339C181.452 18.418 181.403 18.2349 181.318 18.0747C181.233 17.9144 181.112 17.7902 180.949 17.6986C180.785 17.607 180.563 17.558 180.285 17.558C180.007 17.558 179.778 17.6103 179.608 17.7182C179.435 17.8261 179.301 17.9635 179.202 18.1368C179.104 18.3101 179.039 18.5063 179.006 18.7222C178.974 18.9413 178.957 19.1636 178.957 19.386V23.4116H176.972V19.3598C176.972 19.1473 176.969 18.9347 176.959 18.7254C176.949 18.5161 176.91 18.3232 176.841 18.1466C176.773 17.97 176.655 17.8261 176.492 17.7215C176.328 17.6136 176.089 17.5612 175.772 17.5612C175.677 17.5612 175.556 17.5809 175.403 17.6234C175.249 17.6659 175.098 17.7444 174.955 17.8621C174.811 17.9798 174.686 18.1466 174.585 18.3657C174.484 18.5848 174.431 18.8693 174.431 19.2258V23.4181H172.446V16.1943H174.32L174.317 16.1845Z" fill="white"/>
    <path d="M187.109 21.6751C187.407 21.9629 187.835 22.1068 188.394 22.1068C188.793 22.1068 189.14 22.0054 189.428 21.8059C189.716 21.6065 189.892 21.3939 189.958 21.1715H191.704C191.426 22.0381 190.994 22.6562 190.419 23.029C189.84 23.4018 189.143 23.5882 188.323 23.5882C187.754 23.5882 187.24 23.4966 186.786 23.3168C186.328 23.1336 185.942 22.8753 185.625 22.5417C185.307 22.2049 185.062 21.8059 184.892 21.3416C184.719 20.8772 184.634 20.3638 184.634 19.8046C184.634 19.2454 184.722 18.7614 184.899 18.297C185.075 17.8327 185.327 17.4272 185.654 17.0871C185.981 16.747 186.37 16.4788 186.822 16.2826C187.273 16.0864 187.773 15.9883 188.323 15.9883C188.937 15.9883 189.474 16.106 189.928 16.3447C190.386 16.5835 190.759 16.9007 191.053 17.3029C191.347 17.7051 191.557 18.1597 191.688 18.6731C191.818 19.1865 191.864 19.7228 191.828 20.2788H186.616C186.645 20.923 186.805 21.3874 187.106 21.6751H187.109ZM189.353 17.8752C189.114 17.6136 188.754 17.4828 188.27 17.4828C187.953 17.4828 187.691 17.5351 187.482 17.643C187.273 17.7509 187.106 17.8817 186.979 18.042C186.854 18.1989 186.763 18.369 186.714 18.5456C186.661 18.7222 186.632 18.8824 186.622 19.0197H189.85C189.755 18.5161 189.591 18.1335 189.353 17.8752Z" fill="white"/>
    <path d="M194.87 16.1845V17.5253H194.899C194.991 17.3029 195.118 17.0936 195.275 16.9039C195.432 16.7143 195.615 16.5508 195.821 16.4134C196.027 16.2793 196.247 16.1747 196.479 16.0995C196.711 16.0243 196.953 15.9883 197.205 15.9883C197.336 15.9883 197.479 16.0112 197.636 16.057V17.9013C197.542 17.8817 197.43 17.8654 197.3 17.8523C197.169 17.8392 197.044 17.8327 196.923 17.8327C196.56 17.8327 196.253 17.8948 196.001 18.0158C195.749 18.1368 195.547 18.3036 195.393 18.5129C195.239 18.7222 195.128 18.9674 195.066 19.2454C195.001 19.5233 194.968 19.8275 194.968 20.1545V23.4116H192.983V16.1878H194.87V16.1845Z" fill="white"/>
    <path d="M198.467 15.0658V13.4307H200.452V15.0658H198.467ZM200.452 16.1842V23.408H198.467V16.1842H200.452Z" fill="white"/>
    <path d="M205.374 17.4834C205.056 17.4834 204.792 17.5553 204.576 17.6992C204.36 17.8431 204.187 18.0295 204.052 18.2584C203.918 18.4873 203.82 18.7391 203.765 19.0138C203.709 19.2885 203.68 19.56 203.68 19.8314C203.68 20.1028 203.709 20.3579 203.765 20.6293C203.82 20.9007 203.912 21.1427 204.036 21.3618C204.16 21.5809 204.33 21.7608 204.546 21.9014C204.762 22.042 205.02 22.1107 205.328 22.1107C205.802 22.1107 206.168 21.9766 206.423 21.7117C206.678 21.4469 206.839 21.0904 206.904 20.6424H208.817C208.686 21.6005 208.314 22.3331 207.699 22.8367C207.084 23.3403 206.296 23.5921 205.338 23.5921C204.798 23.5921 204.301 23.5005 203.85 23.3207C203.398 23.1408 203.013 22.8857 202.699 22.5587C202.381 22.2317 202.136 21.8425 201.956 21.3913C201.78 20.94 201.691 20.4429 201.691 19.9033C201.691 19.3637 201.773 18.8242 201.937 18.3467C202.1 17.866 202.339 17.4507 202.656 17.104C202.973 16.7541 203.359 16.4827 203.817 16.2865C204.275 16.0903 204.795 15.9922 205.383 15.9922C205.812 15.9922 206.224 16.0478 206.62 16.159C207.015 16.2702 207.368 16.4402 207.682 16.6691C207.993 16.898 208.248 17.1825 208.444 17.5226C208.641 17.8627 208.752 18.265 208.781 18.7326H206.839C206.708 17.902 206.217 17.4899 205.37 17.4899L205.374 17.4834Z" fill="white"/>
    <path d="M209.844 18.4049C209.873 17.9406 209.988 17.5514 210.194 17.244C210.4 16.9366 210.658 16.6914 210.975 16.505C211.293 16.3186 211.649 16.1845 212.045 16.106C212.44 16.0275 212.839 15.9883 213.238 15.9883C213.601 15.9883 213.971 16.0144 214.344 16.0635C214.717 16.1158 215.057 16.2139 215.364 16.3644C215.671 16.5148 215.923 16.7208 216.119 16.9857C216.316 17.2506 216.414 17.6038 216.414 18.042V21.8027C216.414 22.1297 216.433 22.4404 216.469 22.7379C216.505 23.0355 216.571 23.2612 216.666 23.4083H214.654C214.618 23.2971 214.586 23.1827 214.563 23.065C214.54 22.9472 214.524 22.8295 214.514 22.7085C214.197 23.0355 213.824 23.2644 213.395 23.392C212.967 23.5228 212.529 23.5882 212.081 23.5882C211.737 23.5882 211.414 23.5457 211.116 23.4639C210.818 23.3789 210.557 23.2481 210.334 23.0715C210.112 22.8949 209.936 22.6725 209.811 22.4011C209.687 22.1297 209.622 21.8092 209.622 21.4364C209.622 21.0276 209.694 20.6875 209.837 20.4226C209.981 20.1578 210.168 19.9452 210.397 19.7882C210.626 19.6313 210.887 19.5103 211.178 19.4318C211.469 19.3533 211.767 19.2912 212.064 19.2421C212.362 19.1963 212.656 19.1571 212.944 19.1309C213.232 19.1048 213.49 19.0623 213.713 19.0067C213.935 18.9511 214.112 18.8693 214.242 18.7614C214.373 18.6535 214.432 18.4998 214.425 18.2938C214.425 18.0779 214.39 17.9079 214.321 17.7836C214.252 17.6593 214.157 17.5612 214.043 17.4893C213.925 17.4206 213.791 17.3716 213.637 17.3487C213.484 17.3258 213.317 17.3127 213.14 17.3127C212.748 17.3127 212.44 17.3977 212.218 17.5645C211.996 17.7313 211.865 18.0125 211.826 18.4017H209.841L209.844 18.4049ZM214.429 19.8733C214.344 19.9485 214.239 20.0073 214.115 20.0466C213.991 20.0891 213.853 20.1251 213.709 20.1512C213.565 20.1807 213.415 20.2035 213.255 20.2199C213.098 20.2395 212.938 20.2624 212.781 20.2886C212.63 20.3147 212.486 20.354 212.339 20.3998C212.195 20.4455 212.068 20.5077 211.963 20.5894C211.855 20.6679 211.77 20.7693 211.705 20.8903C211.639 21.0113 211.607 21.165 211.607 21.3514C211.607 21.5378 211.639 21.6784 211.705 21.7994C211.77 21.9204 211.858 22.0152 211.97 22.0872C212.081 22.1591 212.212 22.2049 212.362 22.2343C212.512 22.2638 212.666 22.2768 212.823 22.2768C213.216 22.2768 213.516 22.2114 213.732 22.0806C213.945 21.9498 214.105 21.7929 214.206 21.613C214.308 21.4299 214.373 21.2467 214.396 21.0603C214.419 20.8739 214.432 20.7235 214.432 20.6123V19.8733H214.429Z" fill="white"/>
    <path d="M219.554 21.6127C219.642 21.7664 219.756 21.8907 219.897 21.9888C220.038 22.0869 220.198 22.1588 220.378 22.2046C220.557 22.2504 220.747 22.2733 220.943 22.2733C221.084 22.2733 221.231 22.2569 221.385 22.2242C221.539 22.1915 221.679 22.1392 221.803 22.0705C221.928 22.0018 222.036 21.907 222.117 21.7926C222.202 21.6748 222.242 21.5309 222.242 21.3511C222.242 21.0535 222.042 20.8311 221.646 20.6807C221.251 20.5303 220.698 20.3831 219.992 20.2327C219.704 20.1673 219.419 20.0921 219.148 20.0005C218.873 19.9122 218.628 19.7945 218.416 19.6506C218.2 19.5067 218.03 19.3236 217.899 19.1045C217.768 18.8854 217.703 18.6172 217.703 18.3C217.703 17.8356 217.794 17.453 217.974 17.1554C218.157 16.8579 218.396 16.6224 218.693 16.4491C218.991 16.2758 219.328 16.1548 219.701 16.0861C220.074 16.0174 220.456 15.9814 220.845 15.9814C221.234 15.9814 221.617 16.0174 221.983 16.0926C222.35 16.1678 222.68 16.2921 222.968 16.4687C223.255 16.6453 223.497 16.8807 223.687 17.1751C223.877 17.4694 223.991 17.8389 224.03 18.2869H222.144C222.114 17.9043 221.97 17.646 221.712 17.5119C221.45 17.3778 221.143 17.3091 220.79 17.3091C220.678 17.3091 220.557 17.3157 220.427 17.3288C220.296 17.3418 220.178 17.3745 220.07 17.4203C219.962 17.4661 219.871 17.5348 219.799 17.6231C219.724 17.7114 219.688 17.8291 219.688 17.9795C219.688 18.1561 219.753 18.3 219.884 18.4145C220.015 18.5256 220.185 18.6172 220.394 18.6859C220.603 18.7546 220.842 18.82 221.113 18.8756C221.385 18.9311 221.66 18.9933 221.937 19.0587C222.225 19.1241 222.507 19.2026 222.781 19.2974C223.056 19.3922 223.301 19.5132 223.514 19.6669C223.726 19.8206 223.9 20.0103 224.03 20.2392C224.161 20.4681 224.227 20.7494 224.227 21.0829C224.227 21.5571 224.132 21.9561 223.939 22.2765C223.749 22.597 223.497 22.8554 223.19 23.0516C222.883 23.2478 222.529 23.3851 222.134 23.4636C221.738 23.5421 221.336 23.5813 220.924 23.5813C220.512 23.5813 220.093 23.5388 219.694 23.4571C219.292 23.3721 218.939 23.2347 218.625 23.0385C218.311 22.8423 218.056 22.5839 217.856 22.2635C217.657 21.943 217.546 21.5408 217.529 21.0535H219.416C219.416 21.2693 219.462 21.4525 219.55 21.6062L219.554 21.6127Z" fill="white"/>
    <path d="M168.875 38.1301C168.401 38.3296 167.92 38.4309 167.436 38.4309C166.671 38.4309 165.984 38.2969 165.376 38.032C164.764 37.7671 164.251 37.4008 163.832 36.9365C163.414 36.4721 163.093 35.9227 162.868 35.2948C162.642 34.667 162.531 33.9868 162.531 33.2608C162.531 32.5348 162.642 31.8252 162.868 31.1842C163.093 30.5433 163.414 29.9906 163.832 29.5132C164.251 29.039 164.768 28.6662 165.376 28.3948C165.987 28.1233 166.674 27.9893 167.436 27.9893C167.949 27.9893 168.443 28.0677 168.924 28.2214C169.405 28.3751 169.836 28.6008 170.222 28.8984C170.608 29.196 170.929 29.5655 171.18 30.0037C171.432 30.4419 171.586 30.9455 171.641 31.5145H169.545C169.414 30.9553 169.163 30.5367 168.79 30.2555C168.417 29.9775 167.966 29.8369 167.433 29.8369C166.939 29.8369 166.52 29.9317 166.174 30.1247C165.83 30.3144 165.549 30.5727 165.337 30.8932C165.121 31.2137 164.967 31.5799 164.869 31.9887C164.771 32.3975 164.722 32.8226 164.722 33.2608C164.722 33.699 164.771 34.0881 164.869 34.4838C164.967 34.8795 165.124 35.236 165.337 35.5532C165.549 35.8704 165.83 36.1255 166.174 36.3151C166.517 36.5048 166.939 36.6029 167.433 36.6029C168.159 36.6029 168.721 36.4198 169.117 36.0503C169.513 35.684 169.745 35.1477 169.81 34.4511H167.603V32.816H171.795V38.2086H170.399L170.176 37.0771C169.784 37.5807 169.352 37.9306 168.878 38.1334L168.875 38.1301Z" fill="white"/>
    <path d="M173.29 33.2018C173.32 32.7375 173.434 32.3483 173.64 32.0409C173.846 31.7335 174.105 31.4882 174.422 31.3018C174.739 31.1154 175.095 30.9814 175.491 30.9029C175.887 30.8244 176.286 30.7852 176.685 30.7852C177.048 30.7852 177.417 30.8113 177.79 30.8604C178.163 30.9127 178.503 31.0108 178.81 31.1612C179.118 31.3117 179.37 31.5177 179.566 31.7826C179.762 32.0474 179.86 32.4006 179.86 32.8388V36.5995C179.86 36.9266 179.88 37.2372 179.916 37.5348C179.952 37.8324 180.017 38.058 180.112 38.2052H178.101C178.065 38.094 178.032 37.9796 178.009 37.8618C177.986 37.7441 177.97 37.6264 177.96 37.5054C177.643 37.8324 177.27 38.0613 176.842 38.1888C176.413 38.3197 175.975 38.3851 175.527 38.3851C175.184 38.3851 174.86 38.3425 174.562 38.2608C174.265 38.1758 174.003 38.045 173.781 37.8684C173.558 37.6918 173.382 37.4694 173.258 37.198C173.133 36.9266 173.068 36.6061 173.068 36.2333C173.068 35.8245 173.14 35.4844 173.284 35.2195C173.428 34.9546 173.614 34.7421 173.843 34.5851C174.072 34.4281 174.333 34.3071 174.624 34.2287C174.916 34.1502 175.213 34.088 175.511 34.039C175.808 33.9932 176.103 33.954 176.39 33.9278C176.678 33.9016 176.937 33.8591 177.159 33.8035C177.381 33.7479 177.558 33.6662 177.689 33.5583C177.819 33.4504 177.878 33.2967 177.872 33.0906C177.872 32.8748 177.836 32.7048 177.767 32.5805C177.698 32.4562 177.604 32.3581 177.489 32.2862C177.371 32.2175 177.237 32.1684 177.084 32.1456C176.93 32.1227 176.763 32.1096 176.587 32.1096C176.194 32.1096 175.887 32.1946 175.664 32.3614C175.442 32.5282 175.311 32.8094 175.272 33.1985H173.287L173.29 33.2018ZM177.872 34.6701C177.787 34.7453 177.682 34.8042 177.558 34.8435C177.434 34.886 177.296 34.9219 177.152 34.9481C177.008 34.9775 176.858 35.0004 176.698 35.0168C176.541 35.0364 176.381 35.0593 176.224 35.0854C176.073 35.1116 175.929 35.1508 175.782 35.1966C175.638 35.2424 175.511 35.3045 175.406 35.3863C175.298 35.4648 175.213 35.5662 175.148 35.6872C175.082 35.8082 175.05 35.9619 175.05 36.1483C175.05 36.3347 175.082 36.4753 175.148 36.5963C175.213 36.7173 175.301 36.8121 175.413 36.884C175.524 36.956 175.655 37.0018 175.805 37.0312C175.955 37.0606 176.109 37.0737 176.266 37.0737C176.659 37.0737 176.959 37.0083 177.175 36.8775C177.388 36.7467 177.548 36.5897 177.649 36.4099C177.751 36.2267 177.816 36.0436 177.839 35.8572C177.862 35.6708 177.875 35.5204 177.875 35.4092V34.6701H177.872Z" fill="white"/>
    <path d="M185.327 30.9813V32.309H183.875V35.8865C183.875 36.2234 183.931 36.4457 184.042 36.5569C184.153 36.6681 184.379 36.7237 184.713 36.7237C184.824 36.7237 184.932 36.7204 185.033 36.7106C185.134 36.7008 185.233 36.6877 185.327 36.6681V38.2051C185.161 38.2313 184.974 38.2509 184.768 38.2607C184.562 38.2705 184.363 38.2738 184.166 38.2738C183.859 38.2738 183.568 38.2542 183.293 38.2116C183.019 38.1691 182.777 38.0874 182.567 37.9664C182.358 37.8454 182.191 37.6721 182.07 37.4497C181.949 37.2273 181.887 36.933 181.887 36.57V32.309H180.687V30.9813H181.887V28.8164H183.872V30.9813H185.324H185.327Z" fill="white"/>
    <path d="M188.3 36.472C188.598 36.7598 189.026 36.9037 189.585 36.9037C189.984 36.9037 190.331 36.8023 190.619 36.6028C190.907 36.4033 191.083 36.1908 191.149 35.9684H192.895C192.617 36.835 192.185 37.4531 191.61 37.8259C191.031 38.1987 190.334 38.3851 189.513 38.3851C188.944 38.3851 188.431 38.2935 187.976 38.1136C187.519 37.9305 187.133 37.6722 186.816 37.3386C186.498 37.0018 186.253 36.6028 186.083 36.1384C185.91 35.6741 185.825 35.1607 185.825 34.6015C185.825 34.0423 185.913 33.5583 186.09 33.0939C186.266 32.6295 186.518 32.224 186.845 31.8839C187.172 31.5438 187.561 31.2757 188.012 31.0795C188.464 30.8833 188.964 30.7852 189.513 30.7852C190.128 30.7852 190.665 30.9029 191.119 31.1416C191.577 31.3803 191.95 31.6975 192.244 32.0998C192.538 32.502 192.748 32.9566 192.878 33.47C193.009 33.9834 193.055 34.5197 193.019 35.0756H187.806C187.836 35.7199 187.996 36.1842 188.297 36.472H188.3ZM190.544 32.6721C190.305 32.4104 189.945 32.2796 189.461 32.2796C189.144 32.2796 188.882 32.332 188.673 32.4399C188.464 32.5478 188.297 32.6786 188.169 32.8388C188.045 32.9958 187.954 33.1658 187.905 33.3424C187.852 33.519 187.823 33.6793 187.813 33.8166H191.041C190.946 33.313 190.782 32.9304 190.544 32.6721Z" fill="white"/>
    <path d="M200.152 38.2053L198.866 33.3556H198.837L197.607 38.2053H195.554L193.261 30.9814H195.357L196.685 35.8867H196.715L197.915 30.9814H199.844L201.074 35.8736H201.103L202.431 30.9814H204.471L202.192 38.2053H200.152Z" fill="white"/>
    <path d="M204.991 33.2018C205.021 32.7375 205.135 32.3483 205.341 32.0409C205.547 31.7335 205.806 31.4882 206.123 31.3018C206.44 31.1154 206.797 30.9814 207.192 30.9029C207.588 30.8244 207.987 30.7852 208.386 30.7852C208.749 30.7852 209.118 30.8113 209.491 30.8604C209.864 30.9127 210.204 31.0108 210.511 31.1612C210.819 31.3117 211.071 31.5177 211.267 31.7826C211.463 32.0474 211.561 32.4006 211.561 32.8388V36.5995C211.561 36.9266 211.581 37.2372 211.617 37.5348C211.653 37.8324 211.718 38.058 211.813 38.2052H209.802C209.766 38.094 209.733 37.9796 209.71 37.8618C209.687 37.7441 209.671 37.6264 209.661 37.5054C209.344 37.8324 208.971 38.0613 208.543 38.1888C208.114 38.3197 207.676 38.3851 207.228 38.3851C206.885 38.3851 206.561 38.3425 206.264 38.2608C205.966 38.1758 205.704 38.045 205.482 37.8684C205.26 37.6918 205.083 37.4694 204.959 37.198C204.834 36.9266 204.769 36.6061 204.769 36.2333C204.769 35.8245 204.841 35.4844 204.985 35.2195C205.129 34.9546 205.315 34.7421 205.544 34.5851C205.773 34.4281 206.035 34.3071 206.326 34.2287C206.617 34.1502 206.914 34.088 207.212 34.039C207.509 33.9932 207.804 33.954 208.092 33.9278C208.379 33.9016 208.638 33.8591 208.86 33.8035C209.082 33.7479 209.259 33.6662 209.39 33.5583C209.521 33.4504 209.579 33.2967 209.573 33.0906C209.573 32.8748 209.537 32.7048 209.468 32.5805C209.4 32.4562 209.305 32.3581 209.19 32.2862C209.073 32.2175 208.939 32.1684 208.785 32.1456C208.631 32.1227 208.464 32.1096 208.288 32.1096C207.895 32.1096 207.588 32.1946 207.366 32.3614C207.143 32.5282 207.012 32.8094 206.973 33.1985H204.988L204.991 33.2018ZM209.573 34.6701C209.488 34.7453 209.383 34.8042 209.259 34.8435C209.135 34.886 208.997 34.9219 208.853 34.9481C208.71 34.9775 208.559 35.0004 208.399 35.0168C208.242 35.0364 208.082 35.0593 207.925 35.0854C207.774 35.1116 207.63 35.1508 207.483 35.1966C207.339 35.2424 207.212 35.3045 207.107 35.3863C206.999 35.4648 206.914 35.5662 206.849 35.6872C206.783 35.8082 206.751 35.9619 206.751 36.1483C206.751 36.3347 206.783 36.4753 206.849 36.5963C206.914 36.7173 207.003 36.8121 207.114 36.884C207.225 36.956 207.356 37.0018 207.506 37.0312C207.657 37.0606 207.81 37.0737 207.967 37.0737C208.36 37.0737 208.661 37.0083 208.876 36.8775C209.089 36.7467 209.249 36.5897 209.351 36.4099C209.452 36.2267 209.517 36.0436 209.54 35.8572C209.563 35.6708 209.576 35.5204 209.576 35.4092V34.6701H209.573Z" fill="white"/>
    <path d="M215.596 40.3584C215.214 40.6102 214.684 40.7344 214.004 40.7344C213.798 40.7344 213.595 40.7279 213.396 40.7148C213.196 40.7017 212.993 40.6854 212.787 40.6658V39.0307C212.974 39.0503 213.163 39.0667 213.36 39.0863C213.556 39.1059 213.752 39.1092 213.945 39.0994C214.207 39.0732 214.4 38.9685 214.524 38.792C214.648 38.6154 214.713 38.4192 214.713 38.2066C214.713 38.0496 214.684 37.8992 214.628 37.7586L212.101 30.9795H214.21L215.845 35.9273H215.874L217.454 30.9795H219.508L216.489 39.0994C216.273 39.6847 215.976 40.1066 215.596 40.3584Z" fill="white"/>
    <path d="M230.675 30.8903C230.545 30.681 230.381 30.4978 230.185 30.3376C229.989 30.1774 229.766 30.0564 229.521 29.9681C229.272 29.8798 229.014 29.834 228.746 29.834C228.252 29.834 227.834 29.9288 227.487 30.1218C227.144 30.3114 226.862 30.5698 226.65 30.8903C226.434 31.2107 226.28 31.577 226.182 31.9858C226.084 32.3945 226.035 32.8197 226.035 33.2579C226.035 33.6961 226.084 34.0852 226.182 34.4809C226.28 34.8766 226.437 35.2331 226.65 35.5503C226.862 35.8675 227.144 36.1225 227.487 36.3122C227.83 36.5019 228.252 36.6 228.746 36.6C229.416 36.6 229.94 36.394 230.319 35.9852C230.695 35.5764 230.927 35.0336 231.012 34.3632H233.138C233.082 34.9878 232.938 35.5503 232.706 36.0539C232.474 36.5575 232.167 36.9859 231.784 37.339C231.401 37.6922 230.953 37.9637 230.443 38.1501C229.93 38.3365 229.367 38.428 228.752 38.428C227.987 38.428 227.3 38.2939 226.692 38.0291C226.081 37.7642 225.567 37.3979 225.149 36.9335C224.73 36.4692 224.41 35.9198 224.184 35.2919C223.958 34.664 223.847 33.9838 223.847 33.2579C223.847 32.5319 223.958 31.8223 224.184 31.1813C224.41 30.5403 224.73 29.9877 225.149 29.5102C225.567 29.0361 226.084 28.6633 226.692 28.3918C227.304 28.1204 227.99 27.9863 228.752 27.9863C229.302 27.9863 229.822 28.0648 230.309 28.2251C230.8 28.3853 231.234 28.6142 231.624 28.9183C232.01 29.2225 232.33 29.5953 232.582 30.0433C232.834 30.4913 232.991 31.0014 233.056 31.5803H230.93C230.894 31.3285 230.809 31.0995 230.679 30.887L230.675 30.8903Z" fill="white"/>
    <path d="M236.454 28.1468V31.9075H236.496C236.748 31.489 237.069 31.1848 237.461 30.9919C237.854 30.8022 238.233 30.7041 238.606 30.7041C239.135 30.7041 239.574 30.7761 239.914 30.9199C240.254 31.0638 240.522 31.2633 240.718 31.5217C240.914 31.7767 241.052 32.0907 241.13 32.4569C241.209 32.8265 241.248 33.232 241.248 33.68V38.1241H239.263V34.043C239.263 33.4478 239.168 33.003 238.985 32.7087C238.799 32.4144 238.468 32.2673 237.994 32.2673C237.455 32.2673 237.062 32.4275 236.82 32.748C236.578 33.0684 236.457 33.5982 236.457 34.334V38.1209H234.472V28.1436H236.457L236.454 28.1468Z" fill="white"/>
    <path d="M242.503 33.2018C242.533 32.7375 242.647 32.3483 242.853 32.0409C243.059 31.7335 243.317 31.4882 243.635 31.3018C243.952 31.1154 244.308 30.9814 244.704 30.9029C245.1 30.8244 245.499 30.7852 245.898 30.7852C246.261 30.7852 246.63 30.8113 247.003 30.8604C247.376 30.9127 247.716 31.0108 248.023 31.1612C248.331 31.3117 248.582 31.5177 248.779 31.7826C248.975 32.0474 249.073 32.4006 249.073 32.8388V36.5995C249.073 36.9266 249.093 37.2372 249.129 37.5348C249.164 37.8324 249.23 38.058 249.325 38.2052H247.314C247.278 38.094 247.245 37.9796 247.222 37.8618C247.199 37.7441 247.183 37.6264 247.173 37.5054C246.856 37.8324 246.483 38.0613 246.055 38.1888C245.626 38.3197 245.188 38.3851 244.74 38.3851C244.397 38.3851 244.073 38.3425 243.775 38.2608C243.478 38.1758 243.216 38.045 242.994 37.8684C242.771 37.6918 242.595 37.4694 242.47 37.198C242.346 36.9266 242.281 36.6061 242.281 36.2333C242.281 35.8245 242.353 35.4844 242.497 35.2195C242.64 34.9546 242.827 34.7421 243.056 34.5851C243.285 34.4281 243.546 34.3071 243.837 34.2287C244.128 34.1502 244.426 34.088 244.724 34.039C245.021 33.9932 245.315 33.954 245.603 33.9278C245.891 33.9016 246.149 33.8591 246.372 33.8035C246.594 33.7479 246.771 33.6662 246.902 33.5583C247.032 33.4504 247.091 33.2967 247.085 33.0906C247.085 32.8748 247.049 32.7048 246.98 32.5805C246.911 32.4562 246.817 32.3581 246.702 32.2862C246.584 32.2175 246.45 32.1684 246.297 32.1456C246.143 32.1227 245.976 32.1096 245.799 32.1096C245.407 32.1096 245.1 32.1946 244.877 32.3614C244.655 32.5282 244.524 32.8094 244.485 33.1985H242.5L242.503 33.2018ZM247.088 34.6701C247.003 34.7453 246.898 34.8042 246.774 34.8435C246.65 34.886 246.512 34.9219 246.368 34.9481C246.225 34.9775 246.074 35.0004 245.914 35.0168C245.757 35.0364 245.597 35.0593 245.44 35.0854C245.289 35.1116 245.145 35.1508 244.998 35.1966C244.854 35.2424 244.727 35.3045 244.622 35.3863C244.514 35.4648 244.429 35.5662 244.364 35.6872C244.298 35.8082 244.266 35.9619 244.266 36.1483C244.266 36.3347 244.298 36.4753 244.364 36.5963C244.429 36.7173 244.518 36.8121 244.629 36.884C244.74 36.956 244.871 37.0018 245.021 37.0312C245.172 37.0606 245.325 37.0737 245.482 37.0737C245.875 37.0737 246.176 37.0083 246.391 36.8775C246.604 36.7467 246.764 36.5897 246.866 36.4099C246.967 36.2267 247.032 36.0436 247.055 35.8572C247.078 35.6708 247.091 35.5204 247.091 35.4092V34.6701H247.088Z" fill="white"/>
    <path d="M252.477 30.9814V31.9036H252.507C252.749 31.5111 253.056 31.2299 253.429 31.05C253.802 30.8735 254.211 30.7852 254.659 30.7852C255.228 30.7852 255.715 30.8931 256.127 31.1056C256.536 31.3215 256.876 31.6027 257.147 31.9592C257.419 32.3123 257.618 32.7244 257.749 33.1953C257.88 33.6662 257.945 34.1567 257.945 34.6701C257.945 35.1541 257.88 35.6218 257.749 36.0665C257.618 36.5145 257.422 36.9102 257.154 37.2536C256.889 37.5969 256.559 37.8749 256.163 38.0777C255.767 38.2837 255.303 38.3851 254.773 38.3851C254.325 38.3851 253.913 38.2935 253.537 38.1136C253.161 37.9305 252.85 37.6656 252.608 37.3092H252.579V40.733H250.594V30.9781H252.481L252.477 30.9814ZM255.058 36.7107C255.277 36.5799 255.453 36.4099 255.587 36.2006C255.721 35.9913 255.82 35.746 255.875 35.4681C255.931 35.1901 255.96 34.9056 255.96 34.6145C255.96 34.3235 255.931 34.0423 255.869 33.761C255.806 33.4831 255.708 33.2313 255.568 33.0121C255.427 32.793 255.247 32.6165 255.028 32.4824C254.809 32.3483 254.541 32.2796 254.224 32.2796C253.906 32.2796 253.625 32.3483 253.406 32.4824C253.187 32.6165 253.01 32.793 252.876 33.0056C252.742 33.2214 252.644 33.4667 252.589 33.7447C252.533 34.0226 252.504 34.3137 252.504 34.6113C252.504 34.9089 252.533 35.1835 252.595 35.4648C252.657 35.746 252.752 35.988 252.889 36.1973C253.024 36.4066 253.203 36.5766 253.429 36.7075C253.651 36.8383 253.923 36.9037 254.24 36.9037C254.557 36.9037 254.838 36.8383 255.058 36.7075V36.7107Z" fill="white"/>
    <path d="M263.011 30.9813V32.309H261.559V35.8865C261.559 36.2234 261.614 36.4457 261.725 36.5569C261.837 36.6681 262.062 36.7237 262.396 36.7237C262.507 36.7237 262.615 36.7204 262.716 36.7106C262.818 36.7008 262.916 36.6877 263.011 36.6681V38.2051C262.844 38.2313 262.657 38.2509 262.451 38.2607C262.245 38.2705 262.046 38.2738 261.85 38.2738C261.542 38.2738 261.251 38.2542 260.976 38.2116C260.702 38.1691 260.46 38.0874 260.25 37.9664C260.041 37.8454 259.874 37.6721 259.753 37.4497C259.632 37.2273 259.57 36.933 259.57 36.57V32.309H258.37V30.9813H259.57V28.8164H261.555V30.9813H263.007H263.011Z" fill="white"/>
    <path d="M265.983 36.472C266.281 36.7598 266.709 36.9037 267.269 36.9037C267.667 36.9037 268.014 36.8023 268.302 36.6028C268.59 36.4033 268.766 36.1908 268.832 35.9684H270.578C270.3 36.835 269.868 37.4531 269.293 37.8259C268.714 38.1987 268.017 38.3851 267.197 38.3851C266.628 38.3851 266.114 38.2935 265.66 38.1136C265.202 37.9305 264.816 37.6722 264.499 37.3386C264.181 37.0018 263.936 36.6028 263.766 36.1384C263.593 35.6741 263.508 35.1607 263.508 34.6015C263.508 34.0423 263.596 33.5583 263.773 33.0939C263.949 32.6295 264.201 32.224 264.528 31.8839C264.855 31.5438 265.244 31.2757 265.696 31.0795C266.147 30.8833 266.647 30.7852 267.197 30.7852C267.811 30.7852 268.348 30.9029 268.802 31.1416C269.26 31.3803 269.633 31.6975 269.927 32.0998C270.221 32.502 270.431 32.9566 270.562 33.47C270.692 33.9834 270.738 34.5197 270.702 35.0756H265.49C265.519 35.7199 265.679 36.1842 265.98 36.472H265.983ZM268.227 32.6721C267.988 32.4104 267.628 32.2796 267.144 32.2796C266.827 32.2796 266.565 32.332 266.356 32.4399C266.147 32.5478 265.98 32.6786 265.853 32.8388C265.728 32.9958 265.637 33.1658 265.588 33.3424C265.535 33.519 265.506 33.6793 265.496 33.8166H268.724C268.629 33.313 268.465 32.9304 268.227 32.6721Z" fill="white"/>
    <path d="M273.743 30.9814V32.3221H273.772C273.864 32.0998 273.991 31.8905 274.148 31.7008C274.305 31.5111 274.488 31.3476 274.694 31.2103C274.9 31.0762 275.12 30.9716 275.352 30.8963C275.584 30.8211 275.826 30.7852 276.078 30.7852C276.209 30.7852 276.352 30.808 276.509 30.8538V32.6982C276.415 32.6786 276.303 32.6622 276.173 32.6492C276.042 32.6361 275.918 32.6295 275.797 32.6295C275.434 32.6295 275.126 32.6917 274.874 32.8127C274.623 32.9337 274.42 33.1004 274.266 33.3097C274.112 33.519 274.001 33.7643 273.939 34.0423C273.874 34.3202 273.841 34.6243 273.841 34.9514V38.2085H271.856V30.9846H273.743V30.9814Z" fill="white"/>
    </svg>
    